<mxfile host="Electron" agent="Mozilla/5.0 (X11; Linux x86_64) AppleWebKit/537.36 (KHTML, like Gecko) draw.io/24.7.17 Chrome/128.0.6613.36 Electron/32.0.1 Safari/537.36" version="24.7.17">
  <diagram name="Page-1" id="pnmmrmMmQEoPrk8f0Ppy">
    <mxGraphModel dx="378" dy="261" grid="1" gridSize="10" guides="1" tooltips="1" connect="1" arrows="1" fold="1" page="1" pageScale="1" pageWidth="1100" pageHeight="850" background="#EDEDED" math="0" shadow="0">
      <root>
        <mxCell id="0" />
        <mxCell id="1" parent="0" />
        <mxCell id="R5m0K3MdsQXHiXzFZC0X-19" value="" style="rounded=0;whiteSpace=wrap;html=1;movable=1;resizable=1;rotatable=1;deletable=1;editable=1;locked=0;connectable=1;shadow=1;strokeColor=#007FFF;strokeWidth=3;" parent="1" vertex="1">
          <mxGeometry x="10" y="60" width="1080" height="746" as="geometry" />
        </mxCell>
        <mxCell id="Jo6vO53GGim_JeBMiUSH-1" value="" style="rounded=0;whiteSpace=wrap;html=1;movable=1;resizable=1;rotatable=1;deletable=1;editable=1;locked=0;connectable=1;shadow=1;strokeColor=#007FFF;strokeWidth=3;" parent="1" vertex="1">
          <mxGeometry x="442" y="90" width="216" height="240" as="geometry" />
        </mxCell>
        <mxCell id="Jo6vO53GGim_JeBMiUSH-2" value="" style="rounded=0;whiteSpace=wrap;html=1;movable=1;resizable=1;rotatable=1;deletable=1;editable=1;locked=0;connectable=1;shadow=1;strokeColor=#007FFF;strokeWidth=3;" parent="1" vertex="1">
          <mxGeometry x="440" y="325" width="216" height="235" as="geometry" />
        </mxCell>
        <mxCell id="Jo6vO53GGim_JeBMiUSH-3" value="" style="rounded=0;whiteSpace=wrap;html=1;movable=1;resizable=1;rotatable=1;deletable=1;editable=1;locked=0;connectable=1;shadow=1;strokeColor=#007FFF;strokeWidth=3;" parent="1" vertex="1">
          <mxGeometry x="442" y="560" width="216" height="245" as="geometry" />
        </mxCell>
        <mxCell id="R5m0K3MdsQXHiXzFZC0X-1" value="" style="whiteSpace=wrap;html=1;aspect=fixed;" parent="1" vertex="1">
          <mxGeometry height="140" as="geometry" />
        </mxCell>
        <mxCell id="R5m0K3MdsQXHiXzFZC0X-10" value="&lt;font style=&quot;font-size: 23px;&quot;&gt;Machine Learning Operations Canvas (v0.1)&lt;/font&gt;" style="text;strokeColor=none;fillColor=none;html=1;fontSize=23;fontStyle=1;verticalAlign=middle;align=center;labelBackgroundColor=none;labelBorderColor=none;fontColor=#000000;" parent="1" vertex="1">
          <mxGeometry x="57" y="20" width="380" height="30" as="geometry" />
        </mxCell>
        <mxCell id="R5m0K3MdsQXHiXzFZC0X-11" value="&lt;font style=&quot;font-size: 12px;&quot;&gt;Product name:&lt;/font&gt;" style="text;strokeColor=none;fillColor=none;html=1;fontSize=24;fontStyle=1;verticalAlign=middle;align=center;fontColor=#000000;" parent="1" vertex="1">
          <mxGeometry x="490" y="12" width="100" height="5" as="geometry" />
        </mxCell>
        <mxCell id="R5m0K3MdsQXHiXzFZC0X-12" value="&lt;span style=&quot;font-size: 12px;&quot;&gt;Designed by:&lt;/span&gt;" style="text;strokeColor=none;fillColor=none;html=1;fontSize=24;fontStyle=1;verticalAlign=middle;align=center;fontColor=#000000;" parent="1" vertex="1">
          <mxGeometry x="721" y="12" width="100" height="5" as="geometry" />
        </mxCell>
        <mxCell id="R5m0K3MdsQXHiXzFZC0X-13" value="&lt;span style=&quot;font-size: 12px;&quot;&gt;Date:&lt;/span&gt;" style="text;strokeColor=none;fillColor=none;html=1;fontSize=24;fontStyle=1;verticalAlign=middle;align=center;fontColor=#000000;" parent="1" vertex="1">
          <mxGeometry x="900" y="12" width="100" height="5" as="geometry" />
        </mxCell>
        <mxCell id="R5m0K3MdsQXHiXzFZC0X-14" value="&lt;span style=&quot;font-size: 12px;&quot;&gt;Iteration:&lt;/span&gt;" style="text;strokeColor=none;fillColor=none;html=1;fontSize=24;fontStyle=1;verticalAlign=middle;align=center;fontColor=#000000;" parent="1" vertex="1">
          <mxGeometry x="1000" y="12" width="100" height="5" as="geometry" />
        </mxCell>
        <mxCell id="R5m0K3MdsQXHiXzFZC0X-15" value="" style="rounded=1;whiteSpace=wrap;html=1;" parent="1" vertex="1">
          <mxGeometry x="490" y="26" width="220" height="30" as="geometry" />
        </mxCell>
        <mxCell id="R5m0K3MdsQXHiXzFZC0X-16" value="" style="rounded=1;whiteSpace=wrap;html=1;" parent="1" vertex="1">
          <mxGeometry x="728" y="25" width="180" height="30" as="geometry" />
        </mxCell>
        <mxCell id="R5m0K3MdsQXHiXzFZC0X-17" value="" style="rounded=1;whiteSpace=wrap;html=1;" parent="1" vertex="1">
          <mxGeometry x="921" y="25" width="87" height="30" as="geometry" />
        </mxCell>
        <mxCell id="R5m0K3MdsQXHiXzFZC0X-18" value="" style="rounded=1;whiteSpace=wrap;html=1;" parent="1" vertex="1">
          <mxGeometry x="1020" y="25" width="70" height="30" as="geometry" />
        </mxCell>
        <mxCell id="R5m0K3MdsQXHiXzFZC0X-22" value="&lt;span style=&quot;font-size: 12px;&quot;&gt;By Nicki Skafte Detlefsen&lt;/span&gt;" style="text;strokeColor=none;fillColor=none;html=1;fontSize=24;fontStyle=1;verticalAlign=middle;align=center;fontColor=#000000;" parent="1" vertex="1">
          <mxGeometry x="16" y="806" width="250" height="20" as="geometry" />
        </mxCell>
        <mxCell id="R5m0K3MdsQXHiXzFZC0X-28" value="" style="shape=image;imageAspect=0;aspect=fixed;verticalLabelPosition=bottom;verticalAlign=top;image=data:image/png,iVBORw0KGgoAAAANSUhEUgAAAfQAAAH0CAYAAADL1t+KAAEAAElEQVR4Xuz9Z3MjWZYlioLQglprFVprkVrrUtnVVV3dPT2371jbXLNn9ux9mj/xPs6nNzZz77TNdM90l+iqyqrUOjMiMlSG1opaKxAgtOBby90RySABEspBgNxehQSDdHHOOsfPPlutbTDIIQgIAoKAICAICAKCgCAgCAgCgoAgIAgIAoKAICAICAKCgCAgCAgCgoAgIAgIAoKAICAICAKCgCAgCAgCgoAgIAgIAoKAICAICAKCgCAgCAgCgoAgIAgIAoKAICAICAKCgCAgCAgCgoAgIAgIAoKAICAICAKCgCAgCAgCgoAgIAgIAoKAICAICAKCgCAgCAgCgoAgIAgIAoKAICAICAKCgCAgCAgCgoAgIAgIAoLABkSgbAP2SbokCJQEApFo1ByNLZpjsTi+46ZoNG7Bzyb8bI7FF03x+KIxboibFuOGssXFRSM++DaUxQ0G4yL+9vjf6t+MaqcXE33HqYal7/fjPzwJjnKKdl7ilDQuS47wE+tJGW6LXywajYZ4mcEYLzOWKR9jGX6HbuDnWFlZ2aKxDL9TzlF/LjMaFvl7k9EYM5uNEX4sJpP6bTbFSmJwpZGCwDogIAJ9HUCXR258BCLRWBkEsim+qAhmkyaQIXgNZdF43OwPRpyBQLh8wR+u4sfrD1Xz2+cPVfkC4UpfIFIRCkcdFO7RaMwCwY9PTBH2isBXNwD4OaZsBiKRuBXPgqhUhPIP/1kONc7A/5a898mEd1oCPdXakfg9ZLIilOMWC4SyyRS1Woxhs9kctZiMUfwuDOGsfkya0MbPPC/xN7vN4qsqt89WlttnqsptMxXltrlKp23eajWHzMayqLYh4AYhjmdxc4BvQ9xqMafYvGz8eSc93NwIiEDf3OMvvdcBAY8vVD7vDdTNe4O18wvBBnzqff5wtT8YrgiEIMiDUVcwFHEEQlFXOBK1ByG4Q6GoM8hPJOoIhyOOUDjuisRi1nhs0ZTQ1mPxuDEOdR2/M2q/w6YhXobfl8VwHiQ1DgNkmibWk/WNbzzFHT+P3/5klzzxu8SZywQlz1GU8KW/X3JX6OUU6qaymBEquBkat8lkhDaO35nLYmajKc6/maCp43dxs8kYplaOc/FzGYS9OWy3WxacNvOCA98U8C7+22n1uviz0zrvciifOafD6nY5LPP4nQfn+FwOmwe/C+owvHJLQaBoERCBXrRDIw0rZgQgnO2RSMwGTRzfcWsY36FIzLHgC1bPeQP1kzML7VOzvvapOV8HPm1znkCTZyFYvuALO3CtNQItG2ZzKJUUrTAyqxLWhG9FSKpyF//l/zV9G2erMhj/5lmFe3mTmeLZkBRyPt2BS/SD38rttF9oAHB3giOmPR2eBoOBwt9ht0YrnNZAdYWDGvxMdYV9vKrCMYXvSX5Xlltna6uck3XVrnGnw+Kxms0Bm9UUsFr44c9m5V5yCAIbDYHCrQkbDTnpz6ZBQDOfm2HSNtKvPTvvb6LAnnH72mbc/raZeX/r9Jy/dXbe1wRtvAbm8vIwhX0kZuUnDE2bQh+mcWMsFjPE43AoUyQvNX0XVEDrP3RPGAByfNxS/wEUfoPRaDJAg1+ETz0GE30MJnuY6o0RE/3tNN/DpO+wWgJVlfaZuhrnaHNtxVBjfXl/U115X1NdRT+E/TS0eQ/dATTTq357xUIgpvocx0ouX18ERKCvL/7y9CJHYNrtq59zBxqm532ts25/C4R3EwR5y4w70OrxBRs9C6FmmNhrPAsBp3ch5IRJnYJbDQfj/5Uv7WdFC9W07CLvd6bNo2Ne6Z6mtedToCdrSyJUgN+qwNdaoPybQr/MYIcmXuGy+2orHXPVlfbJmirncE2lY7yuyjVRU2mfqq50TFeXQ7OvtE/g55kKp90NjV7M9JkOvpxfNAiIQC+aoZCGrCcC8GWbYTK3h8NRO4PRfMFIuccbbBib9vaOTMxvHZ6Y34ZP79D4fKc/GHJA47ZBdpjVYDfKE3qwlwiW9exMCTw7lRE/n02nP0PZUOE/kO8MmotC0EcdNksQgtwLjX2kqaFisLle+fQ11pYP1tc4R+iXxzl+u83ss1pNIZjsJbI+nwMj99INARHoukErNy4FBGBCL0NQmh1m9MaxKU/PyIRn68ike+vopGcLhHmX1xeq1YLYbH4GtAUiNgShPRlTtlQDL4VOF2MbE8F6OrRtSeC/cndq7zDVU4MP2GzmoPptCcIvPw1Nfaqjqephd3vtre62mputDRX90OgnmTIHE72Y5HUYH7ll/hAQgZ4/LOVOJYIATOJlCFCrRbBa8zSC1iZnF7pGpzxbJqcWuvFz+8Sct2Nmzl8z6wm4kB6maHgJ0zl8rRkGo2kyYLkoYBwcPrw3b47bKgc1fUSu8ycteDxz43WyK+D/1x6wxEStnchnwo+sCDrtm502IC0O0fRPxo8pzUy4DTS/v9KHXI8lAv2H+z0p5bUguVyf9Bjnx5YV/Ib4IArfgEj6aGOta7q1qXKgtbHyQVtD1cM2fNfXuIbrq50jtdWuyQqX1YMNgQTW5WUk5Cb5RCAPb2I+myP3EgTyjwAC0aiFO0PhmN0fCFe4PcGG4cn5rQ8GZw48HJo5AJP6dgj2WmrqEKamaHzRgtQwLPLQxLPVyRShpwpriEn1OyH4lnyrUetqKLviBab2H0fgHJ6t2fApQTMCZblAVzRSM9PGTHF8BxFQFvwhPQypYvi31WwMmM0kbymDJmpSCF+YThcGZsh1Rw583I7UOAsEvAmbHHwv2vGzFUIf+fAxA/6dURtXO1nFSQtAeEyUg3+nGIyE//6HUxOO9cybRKwQSW9Aeh1T7MLlDpu3qbZ8pKO16m53a83tnrbaWy2NFf0w2U8zlc6GqHnkxQcRQS9m+czhlivyjEBmK0WeHy63EwQKgQD94/cHZ/Y+HJw5+HBw+jB/nphdaPP7w5UL/hByw5V8cFVeJKLN0wpe+0FwPBYqigJrQgKaGULBYjCaLfi24hsffiNCm8I9Fg0Z4pGQIRoJGGKRMIR4RJNHqmaeqTaquu9xHQSrIluVIDGlQ3GHzRyCf3geWqanutI5jYCwISXVq9wOE7NzEulfUy6nxYN0roBG0qJIZwhpM/LlnfOeYD2i9+uYT+/Gh7EF+LkVVo76mflA1fiUpwqpeDZcws4pWj4NEMp31tq7tjQlrADADWIW900Ie23mKJsura8abovKZogKdHbL29KAOwp3pLpFESy3AN/6AvPcG2pco91ttfd622uvb2mvuwLz/G3gOV+IuSzPEARW3QwLPILARkMgEAw75hdCtUwvm/P4m8anF7oeDc/u7R+Z3TMEbRzBbY1+P8nLNOGjBU6tjcMPoVyqqdykCGhFgMNcSymm/NtohvA2488U5vhWhBH4TBUzehyCMmqIQ6DHINBjkSCEOwV6dO3HJ2SYGtatbEBU2jdFq4yDSCVQ7oTQwbcifByWmXKnXYnwhrlYieSudDnmKl22mUowr5W7bG6wsPHfbgjzUKoGYNNTjliCarDZVSGPvgb/rsG/axYC4Sq3N1A7M+tvmvUGGr2+YB3+3oC/u/A3J8h0ygPBiCO2CFZXLf5dle+qCyOTg8Q0xLtMcVWoG4WE+X/pfRRhrmxqNLdFYqOjCHkVt0wPxQ2iBT4i5sLgtFsiLQ0V0+3NVY/am2rudrVW3W5trHrEoLrGGtdITbVz0ioUtZnCLOfnAYEMX6s8PFFuIQjogAAi0y3I/bZDmFQhuK27f9S97/7A9OEHg9P74B/voHDBOXYQutBMnLYGrDG/PGE2VwQ0hLZJ0bqhhRspuC2qAIdGzr9TaIF53bAIH3wc2jc18hi18bCmkS/G0AZYaRPR8WkKGmq9MAXThB4DbarfAhM6zL5BCBl/Q61rvAkR2xAsw0315UMwFQ821lUgVcs+hd1LBOZksLIZo9TCISAVdjb+jnnYZHBLNSyklqUrQqWwhcrPn+F2h9A0akx2ZpLpjE95u8YRSDiG74kZbye/Z+Z8Df5wxAnMkc4H83100YlvI1P7KBwzOh5bTWgBoM9f20wl4hHUvYKydVB09oT2DheGmoVAdwafqQY1ZivgE2MA7OGiMIUYEY+I+fFdWxov7u5tPL+9q/4iUuQmyp02N0zxIWyWIhn1U04WBLJEQAR6lsDJZcWDAFjazFMz3rZ7g9MHbj+cOnmvf/IIhMkW5IhXuxcClf5AxJIIClMMtquqh6oZXRU1zGemhk3hbVMEuMlC87ldMZ9TKzeS3I3BbYmfqUniiMUgxMN+QwSfKD6LNLFTsMSgneM7HU3xSTM6g+UU7TBYW+30QiMcb2+qutveVHkXZClDMKePloMsBSxqCzjHq1CmggLVCYpUCJ301f8sh5U888C5Ahz15TC/u/zBKHAPV0Brr5mYWeiggMd3D4IOuyemFxrGZ7w1ON+hWOfV//ygdafTBkVwJ7R11TKiWkfUsVAJ9zTXBQW5MpwJx4gq2BmrAFRVS4cyJukfCetIIt3BaTXHaqocs3BhzGFD1b9nS9P5XVsazm3tbLiKjdYYNl+6j0H6rZczNyoCItA36shu8H7B721FIZPqqbmFlpFJz7b+4bl9DxDg9nBoej9Sz9qhqVsy899iVV9qMlcEOQUF/eAU4tTCbQYjBbqRmrl5CcKsiQLhgIA2auNx+MRV33hAEebUztMVGAn/LTcgEAKGcoc1DNO4F2bxOZjTZ0BnOqrkTTdUDrTVVz5qbijvhzAfgx98ejUte72mQygStdH1gYyClmlQ4YKop5Use9Te+TP47pvwgQk/WIncfxutJ5mb5amtM2PgB4Gu/qwFJi7rvOpzp1BXAw9V7Z3j94MvPuHSSGfjtRxbaOXR3va6wa2dtVfxfQ3+9ptt2HiRjrbSZZ9Ffnt4vcZDnruxERCBvrHHd0P1jmlU0XjMzMhran39o7N7rt0bf/72w4njA6PuXgiEikgkao1AKDD1a3WBvtSPq0ZU03xustphzrZDE8cHWjl/Rw1dvRc1woSGr706mnCIR6GRwx8eDfkMEXxi0SDaAKVMM/WuPRAUSogqozndaERwWlm0qsK20NpUNdbVAj9tS/XN7tbaWxDm/TXV9kkEagVRUhTVyzTa01VM5ms/W98z1CpxiJBndThUmsMY2b3+cA2Ees+joZn9D4dmD/SPzOwanfI2wTfvQjCeDZH0VkbOPxayaTVR1fIV4a6MGbV2Rufh38ly+TRTzGNLiLYpU03z1NxV1wzpZhWW3jRSHhKPgVDnhiyEILoFRMc/2NUDc/y25jNbOuquNlQ7R+128wKyDqIYvwz9DmkBISdtUgREoG/SgS/FbsNs2zo45t72YGAGkepTh+En34N0szbkjNd6/UGwtilyOT2TOrRxpGcpJnQTTegQ4EbNrK5o5Yr5Vgt2oyBXjh+C4vgzBXYcgjtKvzg+1Mop2OMwt6tm9dUjrRN50DSlM62sqsLubamvmOxqrb3b2VJ1Ez/31deUj8GUO8ESotWISocZfQFpUiWv4cXiMSNM7pVub7AeGnwztXgI+G5YV7YgjXAHGPlA7ONpgNmecQ/Y36i5+ulZXdScem7AVCsLghQTgn3VyPclG4iE/53V7ZRUQmrzNNGndySYA2klQN56uLbS6YYpfqSjpfrWts76y1s76y5B0N+pQ7AiXCKS054erHLWGgiIQJcpUtQIIEpaMdlCI29HzvghLdDtMBb8HphsqxQxq0Ugr94Ram9Y3MEQhv8oQWyqCd1mMEMrV/zimiDXwqdX3k5Lj1IENn3kjFDXBLnycwxyNoNIagRLxVDn2w2+8QWYY8daGyv6FG28reYWFvtbiEwfR8CVj0VH0HoWW1uEYEpXphT1uLJxLP1KBZj0uSgVa2FmAszxHUNj7p2D4+7tIxDqk1qlOpjkKxgTAQFPyt30D2XjRi0d2rqisXNXAEH/OM99lVtpQl0R6MrPieA6ZcIpG7x00gsTm0ymwFWCchbWlvtbOmqvwr9+BYL9CvLa+7BZm3U5bb70OyZnCgIrERCBLrOiaBFY8IedsyiEcvHm8KsXbg6/cfvR5NHJGV9TJBpVItUVFrO08sV5GhZ2aOBmmxNauRNCnN8U4hpj2xoLvCJENB95JLRgiAQ80MxpWqcQTyzsa4saNWp+MQ6zeqSxzjWzZ0vztV29jee29zRcxEJ/F1r6NEy1qAVuCm22QCrWe4ep3QyXCdwmMRt5AgYg3JlyeLd/8uitB5NH+kfnWmOLi6gTHzclYhvTsISrLhUtRkINdKTPXQ2qW/N4HEzHoU5o7OAtIAEQXTtaxv9a9+HsYAAgouNZ2S2EeIi5PVubzh/d2/HZoR0tX7U0VvYh3dC/1n3k74JAKgTSmM0CniBQWARQIMWMALc9tx5MPHXjwfjTWNT3jE7Od6NUaS3Y3tRo6FVnrurJJLmLWTGjwy9O4Q3zehmi0xWiFy7q1NbXJB/hg7B5IAkMBHgYwjyukcFQS1fynldT8jTrAU3qzBFvaaic6mypvtPeVH0XlKKkFX3YUFc+WIc0J+SGz7EcaGHRLu6nuT3+WqbETaNM7eikd8vwuHvro6HZ/X0jszsRDNkM4hsHXRZrz4mEuZ6ZCVTSVfIfflPQp39o+f+a1k5eAea8KxkMj9n9Vr8bNyBss81mMsAKM9tcXzlIkhoI9+8QHX+mt6PulqS6pT8icuYPCIhAl9lQFAggGtoCjawCTGS18JV3X7418sqVO+PPX78/dpj544z6VgOkVjk0LUwJiKJJneZ0iwMfaONWh2JuV1OdeI/Vp75qSoUGxjQz+MUZ7BYOew3RgA8LOIPdeI/VNXLQqBqsZku8ssI2C4E9g0jn+2AWu761q/5KDwp/kHHMZrX4QXCD3HDmhG8cc3q+JhXN8qxDT9N8KBRzznn9jQiCPHa7b+oomP/2jM8sdIM8qI78A9jsWci9n87BeVCGLILH6W4qyV2aPvolT1AEOufJEqGuBNtpc3UN8wFdAJyJdLvs6K6/cXh325cHd7Z+1dpQ+bACGzyXQ8llT69T6XRcztnQCIhA39DDWzqdg5+87n7/1MHvrg7+6NLtkZdADtMOn2o1hDnJTNbWyJl3jAhxauNWeyU+FTCrO3ChGqGu5CanfahpaNEIhDhM6xG/F/5xpJ5BuKerkVPUQyP3o9DH7LG9HZ8f2dP+ObSvc6AInbaAbEQzqwvhSNpjop4IgW3E5s8eCkUdYKlrQJbDsxdvDb987e7YU9DYG8nHj6B0JYguHWt6wvTONEQ1eI5Wm2wOVXNnoKTCNYBNX4KKd627JeY3+eAxP9xtzVV9h3e1fXViX+dHu7c0noew9651D/m7ILC2miIYCQI6IoBypPY5t78RftGdCHY7yvSzRyOzB0YnPG0BML+trW1RUEPLgjZuhjZuhAD/IeVMZXFbSxNf2j1FK8eCHGHkOlPPFFY3Rq8H1SjnVTRyZVHGnsFlt8I36pztbKl52NNeo+QhgyL0Xltj1UPQgo5BmAvBSJ7mFPj3LSCp6RyeRMnbCfeWAcyjR8NzB4bG5nqn3L56lL1FARlK99UfqAp/aOzYECrZDQpnPFnoMtd3nshpV9LgVFP8D3zzqdvCTSB86wZQ9gbhmhmDNecqBPrZ7d0NFzCXbrEgDDIcZP7kaf5sxNtkPmM3IgrSp4IiwGIpQRREYWoSBPmRS7eHX7zTN3UCC3In6FstiZSflI1icJNSAEXVyBnkZkGwmxLwZrJDsiZNOk55u8e0oPCJMwUtHIRGHl5A+VAIcsWEm9q0nig7yuIdIA3xtjZUDfd01Nzau7X51K7ehrNdrTV3cc4i0pfiiLYW02meZxo1dprkmevOWva3Hk4+dfPh+IlHgzP7JmZ8bTDHV2OulSP1bc2IdFWwM+WNaYtq4FyCNz6rZpO3n5p6LCHYf+DfXy2nPbGPAHVssKOxanjPtqZT0Ni/6Omovd4AWt8qkNNgYyhzKatB2dgXiUDf2ONblL1D7njTzYcTJ7652PdzRLC/5Pb6a4LBqAvm0jXno2o+R7Cbo9xgtVUq0epKFTOlvFc2WhWIzWEijWnm9XBgXkk/U5jd1vB/ciMA03mswmXz7N3adAVm9S93w6wOStYHKJTiIQXrakVPinJwSrhRcM/YQDtbgVTHijFwyl+/N/bMxZsjryA7Yt/cvL8G0fPYU605xVTNXIuIZ3EdlRVw7euSQ6cx0ZGZDoJdzWlnhLxGR7sK3mwqCIQMmEs++NNnD+xoOXVyf+eH+HyECPmpEh4qabpOCCzlr9TpEXJbQUBFANpSzdC4e8vnZ+8/ffn22MtYaI8PTcy1oM72mhApOeSPg9wcCHJj6hmZ3Gxq+lHGB4hhsMBSeMcRvR4J4kOaVpjY08kthmRYRIT6GLSmWyjGcZkMYIxUbm6oGKoqd8xl3By5IGcEtM0Tq8ZN+wKhSdDmziCCvG9Hd8PBe4jP6Bue3YOAy6ZQJIaUt9QCWhl/BroplhlVICuuHSUOI1PBnuCoR7U9VPdD7CPJBJSoeM6/1WIyWEcGm1x+XIj2d4Fp7xWQ8VS5PcFGxJmcgUn+JixDXmwq136BckZXblAKCGQ6O0uhT9LGIkMgFI5YsAjVD4zN7Tx1eeBnl26PvoICKjtA4Qp2t9XWIm0xpH/TbDbYHFUGCwLeLLYKLcgty+mrpRkxFS0cmldzykMwrzN6fZWDxCAmk2mRdcMrXdb54/s6vjy5v+vDE/s6Pq6ssM9sNOKXIptGGTcnQVwzO+9r+h6a+pkrAz++cmfsqel5X30kEncg133NzZtqhmecBuvbQ//RzPKZC/YlzcecV1gGaRmitq4yI6XVP1DJhpHyOHx8X/uHLx3b8mtYg+6DInjGbrOWPHtgWgDISasikOWKKKgKAukhMO8NVCOPfNuFG0NvfA+CmMGx+Z0wsVcv+CO2tTRh5gmbkHZmsbogyMs1bnXmkDPFKLupS1M6g9wiQZDDhDxK4JsSmbxGtS2utxDavu6Wqod7tjaf37e9+TQoWsGtXj7EwijQkiRiPb0pUfCzELNh9SAdcmxqoevh8Mz+63fHnr31aOJE38hcN6rD2dacSZoQV8iJtGh4NWtizStT91Xj+E/ksIOhSMlnX+ud4KYSG8o4CvJMg1nwLjaUHx3Z3f4ZrEO3UMRnoeDgygOLCgExuRfVcGycxsCPaZ+c9baevz509Oq9sefgz3z2weDMLpgMbYlSpsl6q0Qbk5qVhDAskALTOgU6f8428lh5DrUimNcZ9EamN4UgRhPmq6HOIhtk70JRlNGe9tprO1FkY2dPwwWY2G/Adz4nPvLin7PwQ1N7HYePfa6+xjmGVMKhNsQ53EJWBTIs9sIM30LBTvbBpIfGBMj69upUQuT84hK2uWwgSGj+SLekFSBOlxK19seENck1dkbto63Gkcn5RlSwq4OVy4VqdQ2znrYv4c662tFcPZBNc+SajYFADlvMjQGA9CL/CKCalmkSpTLPXOn/EQLf/uL7WyMnvf6QkxHhqx+IMGaZUmjlinkdpnU1l3yt69buAzVwBryFfLMQ6F6Fi301DUvl3zbEwbE+x0Xy2cM97x3b3fbZtu6GKwxSWvuJckYxI0DL0f3B6QPfXRl857ur/W+PjHvaFlDLPRqNrankqDUBVBO8mhqZj4NmeJLT0BTP4j5qade1Dm4uaqtcnmN72798/ljPH145vvU32IQGpODLWshtzL/nvlJuTFykV1kgAA3I4vEFa289nDp6/vrgW6BufQZUnT2znkAV04ZWm2xqLjm0cQeEuA3mdfybiyYj2rM/yC6HwDeY2ENB+MmZjoafVcrW1RbLRUN1hXMB6Wf3juzq+OLI7rbPEezWV1Npn65w2t2gcRV61uwHpSiupBl+IRCuAJ1w0/iUZ8v1+xMnr94dffbm/YlDC4FQxeqyNJHeplbje4IbPqfeUaAzDA++fS3VTaWUXV2w04pUU+lwI0ju1u6tTacP7m79AoGAl5neJhSyOQ1IyV2cy2pZcp2VBuuHgM8fQl65ux2R6ydZTOXy7dGXJ6a9zYgoBm2nUk165aERejDtjOlnVvjJzQmtPMemMi0oHqeJnf5yLz7wl0fB9rYKQQxTmhw2c7i22jW7taP+xsFdrV8d2tX62Z7eposixHMckCK7XDPDz6BZM5FI7B7K1A7WVNinWJ4WxWD2Tc54m4OgkiXn+spDjXxXOOTJUEgTvIEBcyq7UDaENOozuDlQv3lHmuFpRVKEukYnmwxGcDcYQIFb7QuGj47OeLqQTdKAjUrLrq6Gi/Me/3BVpVOyLops/unVHNHQ9UJ2E90Xub8O1LDuPXd96K0Pvrn794+GZraFURFt9XQ0leWNfOtWRzWC3irgK3emXwFrFXyx1EITDyuBbzSxR0ESo0YSp+bioIkdvNkBBLmNP32o+33m+u7a0nS+0omCKWajsHNt8PlMghrUZq/rH5nb/e2lvp98feHhX8Bt1MS5nVyo/wCIyo2AuQxCGgZyqultuR8JwiOlngDN8GsUf6FLi/PYZjOH2hurBl49ufVfj2Me79vWdB5tikmtgNzHpNjvIBp6sY9Qkbdvem6BKUEwsQ+9deXu6HPQ0nuRN2tdzf+ncGaj8pnqIy83WBjwBt85F8VcD6aeRUJ+NYpdMbEjr1yJYE+1d100oA51sA1UmyCHOXNgZ9vXzClvbigfqnBaaV4XYZ7roJTA9SaTMQ5Nd763o/aGxWL0d7ZU3cW8fvlO3+SJoYn5NlQABINh8o6olMFw7SiaOm3mnMsqnWwuhxo6grgSxfUEzV8R7DTBJ/f4KMGm+D8ob22jk57uLy88+su5hWC91xeq3QauBNxsJJf2yLXFj4AI9OIfo6JsIXJ4jTTr3XgwcfzMpYGfnr02+PrgGEhisJ6lUlBUWk0EE5FzHeZ1henN5sp54VMBgl4ejSIlza8WVKGJ/QmSmCdXY/6LKUAggfF2t9U8PLCj9RSKqHx0cEfLt0j/8RQl6NIoXRGAL5rR8DOoyz7bDcpexFFMoT79nPX26PMQkO1znkBlqvjMxxzu3DhichlRFEgp4ZtTQGeCh4G3JMe8+u9YTC0elGrTzLZ4A2ErYliYVULqW1coGrXDjXCqutIxA3eDpFjqOpPW7+Zicl8/7Ev2yRTmoG9tPXW5/6enLw+8i6Iqh6bn/LUsppKqwCk1FqMRWjmC3lgNTSGHoeaRoxbzWJgjOphR7GGfW2F8Y4qasrIm0aq4xrJcKdLO5o/ubT+DCPY/H9rd+iXKmY7YLSxnKpzrJTs589BwtWQry7VGHMOT81u+vzn6yndX+t+8cGP4acz9cqaOpQ5UU83eysYVZEhlNMPnJNR/6JC6aaDvXivrC40dpoFVe2xFiViwyXkUEqQDXR8+fbDz/Yaa8jFEwUtgZx7mSrHdQjT0YhuRIm/Pgi/kws5/D1LR3kDw2xug1NxHzYWsW8kWLpUX26T4xy2IXjfbmVPO2uTWnHg5lixz0MpDYHrzGsJ+sL4hv5xc2am0FzPoN202S6irpab/wM6Wr47savtyR0/D9811lYNWq6KhybHJEdB8zdwK+vyB8EMIxVBluX26uaFyALnrzw6NubsQCe9MHiOSKKMKeYlpiKmvpLflY+OaeL+UqHpau6itK1HwqbX1MN7LsDdWeR1lZqGpV7CmPDavn6Nv1zb5MG/I7otA35DDqk+nvP6gC3zYu779vu/nX1/s+8Xg+FzHgj+MzX6qyF76/5COxhrlTgS+IbfcBN85ljhVe87DEYsikh3CPLjA4Df6yymTkxue4A831FQ45tqbq/ugsXzy4tHe38Lcfht55f48NEVusQER0DgH7oK8ZXxLW+0N8BJMXr498hLeg53zC8EqCEnwwq/sODnaqcmXMcMDkfBGc67md/UZiTrvi4smwyJ3C6xFoFkM1AyO5AdqxdfN+0LPIlWvMhyN2JFO6kVfJmTub6xJKyb3jTWeuvUGWng1tPHDn35372/Bh/0KmKrasJiZlUUryVMZxMNSpvSV2yHMqZWrJnaenYdph4UyhsjfsH9W8ZlHUWBFrT29cqPAZ9ospgjY3ib3bWs+88KxLb9DadMLVaBsddjNPqSrxVGtLT87DN1GQG68ngggtc0SikRtqEnQ8HBo5sA33z/6GbTeZ/BzN96B1DUJMPdMSqlfRMEr85/pbfnpiTrXaRFgkSEtYG4VCmMTrFNOhy2M+IAH+7c3f/Xisd7foszvOcQOBIWIJj9jst53EQ19vUegBJ6P4ha1LHN69urg24j8fWNkar4VlJNaDO7KDjBanQxviUIqauAb+dfz1dlFmNlB4cq0NPjNqZmTCzuZRKZfH6lngS1dDX2Hd7V8cXRP+ycg3zgr5SfzNRab4z6oP85AMn4WsLmdx0bQW1numEG8xRvI7OiCtl6elAmRPm8QxSAEXtWwlSq/aoBbrscPm2MWDeIdmbvO7MzknPB0EXgXglaklW6H66wqHoubvb5w9d6tjWfhMptkKeBc2yTXry8CItDXF/+ifjpe8jKYGuvu9k0d/uy7e//u3LWhVzy+UAW0FQT9JNXLlfQaksTYoJXTzG5GSloaDJZp46AGBUEzh1YegnaupqWtNDXymWxjudMW6u6offTc0e7fP3+4+/fbuxquGCXoLW285cSVCICVbRa//fzG/XEvLD/+M5f737o3ML0zGI64OBWXm+AT5ViVtDYYgpQ3B5vefAXLqWZ4LuV0fWHvAOc9meZSubUW/CGzLxBuw+cXkzMLbWifaQ82uXivx7FxkTTNEp70ItBLePD0bDoifC0TMwstF8D69s2FR7+Auf0I/OUVizCxJxfmWE6QS24lQQyi2EnfysC3fAtzauPh4BxKnnqVqmn0USY7qAmRDvPInrZvntrf9fHe7c3fon75AFY8Ma3rOXE20b27WqvvOu1bvciWmK2ucr569c7ISc9CqDZV8SF1Mwp5GcU7RC540hpzouaurKvaPwW7wi2vJLipDHNJyJTUDUCZAVaFGqSdPhWMxmzjM97OZw52/wmMj6PgZZBaBSU6j0Wgl+jA6dlsaBrm8emFTqTpvHb6Sv+PL90eeR4mOmfySHaV7tIMxjemolmdVdDQXVrRijytVOwsFkP6ycPILw/73QqNK8k8lktnhWYWixVS0Ob2b285+8LR3t+Di/0LlJsck/xbPWfN5rt3hcs+j4A0TxxBb0gN8yKDIoYo+CODY+7W5IGiatqZkvamwIXsckUA50ZAk0A+YYJXfPXcJeA9YMaHUuhl2cF2IAbGMBn21QbCkafisUUbt7on9nd+CDfVXUndLM35LAK9NMdNt1ZTMx8a92y5dnfshY9P3/0/7g1M7YXZ3UlFOHlaGoLfSN/qrFEoXM0MfssD49vSDipBP6ByDUGQR2BqZ4GVZJqHQhaDiHtE786Cg/30yye2/eshpKY111cKQ5ZuM2Zz3xjWqsVoLHav3Gn14ONGLQAPyFzeCIQiNaFwLGkEPDeni4j5ULajrNxGJT0vfAzaWJBPHlH1JjjU4woJDYoRKQx2T44VzfPcWsDy5rr5YOIoUvRcVqs56LBbQAsfnbBbzdg1y1FKCIhAL6XR0rmtzDFHekvbV+cf/PK7a4Pv9A3N7UHQjCu12ZzC3GGwuuAvh5ndZLWribf5PPBwpX452d9gZld85inINBiUVF/tmnnmUNdHTx3seh8a+ikI96l8NkfuJQgsR8BsMsVQvW1q//bWM1azOYhyppOwbP2kf3iuBwLTmIwLnoJ0kbSKjLPDKpxvoa7kkigbazWrhHEnNMEnixxl+5DO5hgYm9vx1fmHv0A0vx2WrX9DffghKUpUWvNdBHppjZdurUUxFeOjwdkt4GR/+8yVgR/feDB+MByJm+kPTJ6WxsIqiGRHbrmqmdu0wJx8uajVRYgCPALCGLLAkf0tmWbONtLE2Qo+9v07Wr57HosR09MaasvHdQNMbiwILEFAq9426vYEAtWV9knEYy7abZZXBkbmtvoCoaTBcmR5U4S9Fr+G4HfVp56XQ31rjY+FunpTxsAke4eYDTK/EHLhvT8K6tuycod1/ti+jk9xyWBemiM3KQgCItALAnNxP4Rm9vFJbydS017/4NTd/3Nsar6dwjxZ2dME8xvT0myuWqVKmgnBb0paWp7IYhRDILSJKChcQ74Z1DH3qT7zFKYCu9UUQ/nL6WcOdn3w7NHeP+zqbvieBCDFjbq0biMiwDoAWzvrb2CDGa2vdY19de7hXzwcmd0xNx+sZTzmiinMQDlGpCsuLTUzY0WYfI5AsfpbmUGloI0jAp57iOWZIYr5Hb+HRa4cAbCH4Loi9aMBFM9/qiq3z0r0e46DUKDLRaAXCOhifszcQqDhm+/7fnb6Ut+P+0dme5FjnlozJ40rC6uQ+Q1BcEYzhXm+tAoVJQbxsLhKwszO0pHJhDkXIObftjVVjTx9oOuDZw73/HHPluZz5U6LV4J6innGbdy2QZBT3/YjJeyO3Wb2u+xWz+fnHvwcpYVfgBZsS2rxQiQ6g9Hp71a0agS15S30XYOa6aTGMgTgUXArFoFkfPRqwN6cN1h5+9HkUbxbkUgkan3uSO8fccXoxh21jdMzEegbZyyz6gnqmHddujX2LAqtvHu7b/IgAmPMSlrL8rtpldIYwW5j/XJHpcrHnq+cG+15FN6KZh5AahqIY+LUzJMctB5Aa4iDk33o+N72j186vuU325BjDnPnXFZAyEWCQB4RcIFOGFkh9x02iz8UidlZ8ez+4PSeOXegugyb0OWHEv2ukCMlCGgSrIr5axTfa0bAcyPM54BYJoX5fdEwOx+oRGDs09HYogX0sAsT097P66qdE1LUJX/jocedRKDrgWoJ3BOLjCkQCFd8dvbBW6e+7//pg8GZvaib7EpKdqEsBFal1KkN0exKWhqqSOVVmENFofbCGuZMS4uGKcyT10qheRD+yRB95i8d2/Lbk/s7Ptze3XjZ5bRI2dMSmHubpYkmozFeU+mcwvz8yGkz+/78zZ1/f/P+xOFAKFoeT5IfTt+2wtxKUiQlUI7kM/m1fjFFThHqiokdGwglo+3JCHjV/L5oQE59BUiljoBBLoTI/XJUavsA5DMjYn4v3hksAr14x0bXlk3NLrRfvzv2LFiufnz5zsizXn+oHLvxpPo2FxYrNHILNXMIdVZ7yq+fTw2AC8NXHgm4lVxzhYAjic+cQUT0M27vrL/LcpDPHOp+b0tn3Q2Qe4gw13XGyM0zRYApbbgmEA5H+yAEw/5gtAJCfvH7W8Mn/MG4nYGcPxxaZjqFeiJQjnnq3Djnqfxq4lncJJSxvKsShMfUNjLargxmjUKDn533V129M/psFOQzsNrHkaf+EU4eyBQLOb8wCIhALwzORfMU7LCN4KJuQADcs5+euf+3t/smjs56/AoPdbJodprVLSh5qkSzw3eez+ISCVAWIcyjITDA+efw7dMWmCSQYc2pdNn97c2VA88c6vnTc0d7ft/VUn0PgUjeogFYGiIILEMAud1wRUeHjkNTh6m7DDnervsD07s8C0FXMtZFhVFOoW6lDYx56qyDkEeSJuXGuG/CV48NBIPllm+gaa2jTx3m94pbDyePWszGoM1iDoxPez+rq3aA+90sNLFFNttFoBfZgOjZHHKzY8fdeOnW6EvIk/3RxZtDz4EAozwVpzTzWFnDXIlmBz87d/X5PJRaUYxmhxBnAFwY5nbY2ZM+gm1EQQz/tq7626gS9TtQun7W2157C5WihPwin4Mi99IFAQi/mD8YHkDZ3o85l6Gd/xI+6kN4J5VAueXHY/M7BS0OFnTJq4uLd1OEOu+O5zMoLxpVmJGXNidRgWneG6i8fn/iabvV4kfUfPTY3jbWVJ/QBSy5adYI5HeFzroZcmEhEIBm3ninb+roF+cf/BVKPz7l9gYVYb5y8w/TO0x95GUnlavFSl52HaYKhDlZ3+gzpzBfVEx/Kw+aIB12U2D/jtaLTx3o/PC5Qz1/bG6sGAKjFcqsySEIlAYCTrs1AO38Ad45cLwsmhBFHr1xf+LQnMfvgp86hVDXzOHMZsOGOs96uibU4VPn09EEbrAV6b7soPl9bt5fDcveyxT4dVWOcY8v6HfaLQsg1skX+URpDGQRt1KHVbqIe7uJmwY/nun89cFD313pf+f6vbGnwdXekLLICgPgoJGrqWkQ5ii6kteDrz80gVg0CJ/5PJjgyAAXTPmIuhrnfHdr7f3nj/b84ejuts/aW6oe2YSWMq9DIjcrDAKgUw0Hg5H+EwjkNJrLwBq7aL3bP7UXFdCcLG+6slIbfepICY9BmyZDOynl8izWFU2dmwWa2CnPFWs/I+B/wCRhfp+Y9daCfOaZ1saKfjPqqO/oabiKs6SYS2Gmz5pPEYG+JkSlf0IgELFBC6j9/vbIK6cuD/xkZj7QoJR0THLw5WYUuxU+80Seef4RYN5tTElLo99cTU1b2R41zaYsuntL0+VnD/e+d2Jf+4ftTZV9IszzPyJyx8IhYLdbgqFw9B4EYjgWXbSiqEv8+r2JwwuBEPNAVxw0v8dgvSpTShbnO+pdfRzJZ5R0NiWljTnxikMsSWPKDDNuf9M33/f/hc1qCTTVlo8iYC4o6WyFmz+rPUkEenGMg66twK6649y1wbeu3Rt/YWLK2xJROKRXHmUwq5MBjmZ2RrUbUQkqXzWbf3gaA22iqmaOaPYohHnyeuaLhspye6CjuaqPfsdnDnb+ubG2fASLiPjMdZ0tcvNCIIBNaQSc6f0nD3S8z0C5cDRuB0MbA+VsK945ZfMdU3zczDej+yv/76XmU8d+IU5LgCrVV+Sp06qHzYhxeNzdiSqML6Gq4chJuMFwtlDEFmLirPEMEehFMAh6NQER7Sako1WfvTZw8stzD/9qaNS9nYFxK/bdJI0BA5xiZkdqmhUMcCazDc3Kr8dOKUgBYR4NgThGyTVHoRXFZ/fkwYh7m90S6W6tefjske4/HN7Z9gVqmfdhMVl5sl7gyX0FAZ0RQMQ4hfr9SHTxYxR3seN9tSL6fQcEpim2rIYCZbpSXEWrZc5E9XwHvrO71NTV995MozviWlZq6gziC0Zi5r7h2T2nUfehwmV1Iw02LLUTdJ4wadxeBHoaIJXqKf5gpOLavbFnz18bhnY+diQYjtmTGtphZmelNJrZbeW1EO75p54khjTzR5SIdghzVFBLpOYsx9dkNhqgjU8d2NXy9TvP7/rv9dXOMZj0JEWmVCeitDslAhDqYQjzG1arKTw3H2hEcZfqsRlvayyM6b5MYquR7+rvSTan1k/I76ZbFeoMlMUaQHpY0DCr3rllKwd+OTXnq7l6d/SZSpdtFsVpAiCf+Qx14f0y3OuHgAj09cNe1yfDdFdJ9rdvLvb9HMQQL/iCEdQ2XXkw+5zaODVzFlpRGeDyf1ATp6+c9cyjpHRVom9Wbi9ItlFb6ZxF+dMPT+7vfB8+ukFhpsr/eMgdiwcBCMOozx8eePpg13vBcMT+1YVHP52cWahTZPVyOapQtqp7W9XsjlA5HVR1NX6FGwaL4r9nlbblB6qyGZDOVg2inFdQZjVUW+0cB9vkbZA8CS/EOk0vEejrBLyej0Ud47I7/ZNbwQD30uXbIy8OTbjbUj2vzKJGtFtYz9zs0K1ZZKNiNLsS0Z4iCE5Nh3HO7uyuvwph/sGunqbvTcay5A5/3VoqNxYECo+A1WoMIfjzvC8YrhqZ8GxFgaRDcJdVkNjlCXmtFFWBbxvSPqbVV1A19XwfjKg3KSF4imUgSTEXusaYzjY45m6FheHF5vqKfij3UeTm3XYgRS/fLZL7rY2ACPS1MSq5M8Igq7h6d+z5L88//EuwOrVEoqllohU55jaY2k0Q7GpKTJ4PSmmY9OkvD6GuOYV5snrMNMdzcdjZ23j5jae3//N2lECtrrBPG01GEeh5HhK5XfEhoLGuzQ2Nuy++cmLrr1Fx0Hjp9ugxMMzZTEk0cAp1RqJTkwYZMsPYdOiUGlujEMsrPnxwvy/LjlF9+3EDyy9/fOru34JNLtRYXzGCdzkEa5u8uzqMymq3FIFeYMD1fhwEeOu5awNHYWZ/fmjMvRVEFknHmMQxZotNKYVqRq65Xrv8OApAxMLgaNdyzRc1SsulOHBRqK50+BHR/ujonvbP9u9o/qam0j4tJVD1ni1y/2JDABaqiYM7W7+eXwjW+4LR6odDM9tRAXFFOpsiWCFI49isg6dG2TTrYXqneeAHUimY+xWf+pNymoF0cBVYB8fdW6FIvNDaUNV3cGfLKWArTHIFnmAi0AsMuJ6PYwQ7Ukm2oYLaX99+OPm01xd2KoUenjhUZjizxY7KaVWKMGdN8/wfakIrK6YpEe0IglOZ4J5sD3NrUa91sa2xagSayW8P7Wr9oqWhqh+BObK7z/+gyB2LHAFUEfR3oj7B0b3tnzKoFXSxldiYt+PdNi6njqBQZ8U0yFgUccE7nOBpzXcfuVlAqhwy1dUKbUpDnnyPWdgpEo1Y7g/MHK2q6J8G1/s4TO8eMb3nezBWv58I9MLirdvT8PI7hsbn22/cH3/2yu3RlxCB2sSgleUHd/FGBMGZoZlbnYhoN+s0BSjMY2ElRY2BcGSCS2ZqN2N331jnmtizrenM80d7/w1+uAEE2Eh6mm4zRW5czAhoFdrCPn/oGuSm0e0NNKGyy0ujk942us6WW9+pMYPMwVCGzBBQQmnkM/nvocomh4BZheVV1dRXROyhcePTnuard4wvIeX0ToXLPsua8KC1lQyV/A9J0jvqtJoXqPXymMcIwCxXiRSSF8HR/iKEeUMwxEILy3RzzXxGMztZ4Ewwuet1xFh0BTXN1SA4CvOVMprtQ5rLwv5trWeRa/456ps/cjqsQiOp16DIfUsGAZfTtgDu9DvM9ECAnM0X6H9tbj5YvbKOOrVmNfKdfnRd4mA01GhNgz3NQFOByir35DvN5QY59AZE6DdfuT32cnWFY6q1sXIIv14oGeBLvKEi0Et8ABPNZ+GVCzeG3771cOJoGCVSk2Wy0E9uMtkQBFcNDd2pW8+VqFilvrlXqW2ejDyG+3yLyRirrXRMH9/X/vGhna3fgD1LImN1GxW5cakhUO6yu1F//MNIJG5/NDSzD1a48mBo0bwyMI3vG93oqpauR266ih2sewyQM6OG+iKCWxXGyWUuNCw8/lDEdu3+6PHqSvsoOOs/jcfiPgS3JqXAKLUxKfb26hDWXOxd3njtezAwtRuBcG8hgObwvDdYnYqnXaV1rQaJjEMljtDpoN9coXWFuZ2RsckOmux6O+ofvXB0y3vbuxouVUGwSxCcTgMity1JBEDJEAP98XxPR821Z4/0vtfbXtePd2R52XKlb+omGtULmTO+LGgt352n+d0Ewa4EyyXRHBi3M+8JMqDvMHgwfvpwZHYHqtDokVuX766V/P30W9VLHpri7wCD4Ghq/+rio+Pnrg+9Bv9VA6gkVzRcrXuM2uY0tTtIHqMPFzR361xMohH6zb0IiEMFtWV+fJrqbDazwWkzz+/d2nT25MHOD1pRcAVVqIRhqvinnLSwgAggelzRapvrKgdRz+Cjabevddq9UD0zF6iHgFzRErK6KTXNoUErhVx0IJxR9HTNdQdDv8Itv7yeOxWKEPz9I5OeHpDkvGu3mT1ge2TE+1wB4duUjxKBXsLDDj+5a3TK280UtUu3RhHVHnQkS13hTprkMYxoZyU1vQ6+yDFo59TMo/Cdk0xmufmPfO4VTqtna2fdrcO7W784sL3llPjN9RoRue9GQKCmyjENN9qpkcn53uGJ+S2B4ITT64s5V0a9syobAudgeqd7TZXneuSna+b9RfC9K7Z+mgiWpbLh4ajKVvHt930vtTRUPNjWVX8F1eRC5Q6bbNx1nJRictcRXL1vjeC31jOXB358f3DmOIJR4BRP/vIyqt3qqNGVCY6rxyICcyLwm0fDfi21ZUVUHjiojYaWhsrB157a/r939jSeB8NU6kLoegMo9xcESgQBq8UU2dFdf5HxJrVVjpnVBDWFrEoCo2/nVMsfTO/4TnaoaXWLZTS9n7069Nb0nL8ZbdNnh6FvV0vm7iLQS2aofmgoqF2NSGtx9Q3P7L94c+gNsEv1MEVtZVQ7U03MiGZ3qDztZn142pWWcRFR0tQWFFa45aZ2nmKGGbC+1jkN7fza0T1tn7U3VfVhMZB88xKcg9LkwiMAroZH+2HR6m2ru11T6XCnIpJR6iY8Ln2qn1RXgvBAD6taBJKLEhZ6GRz37Lx4a+iV/uHZffMLoZrCI7d5nigCvQTHGqxMrjt9U0eQb/4yyi3udXuCSQhk1GpMFtQ1t4KnncI81UuXKwSKqR155hEUXVEC4SDYaVpfevAch93s37+j5eKR3e2f11e7xmwWU1DLu821CXK9ILDhEShH0ZOO5uq7zxzs/BPiTy5ZLcZQMi1cDZAj4Qw/+u6XqZ1TaaBgT2Y14KZjbt5Xjlrvh67ANfhgcHpPOBzVg8lqw49/Oh0UH3o6KBXZOShTWHnt3vjz1x9MvODxhav50i7frSvmMOSZWxU2OKduwlx5iZGPGo2o9K5MV1NTWX6wrHHRQWDMYlN9xdShXW1f7t3afAaMWD7s7PVTH4pszKQ5gkA+EKgqt80e2dvxmTcQru4bmds5OettCYVjK83YS3LTQfOmlytdec8ZcEv7PnPkGZi3PJUtBhY570K4BiyWL1WW26Z2dDVew0nhfOAh93gSAdHQS2xGkAJyyu1ruf1w4qmHgzNbwSKVlMPZaFKrqJlRfIXlUfU7SGoRURnhwNlOU9/K1WPRUFXhmN/aUX99z5ams52t1fdREpWSXw5BQBDIAAFQqfp72mvv7N3WcgaBZjdqUGo4meld8V8/Nr2rNMy6HEowPalhUZmN5vckkfX8FWJ8THf7pvbcfDB5YnJ2oc0XCOsXnatLR0vjpiLQS2OcHrcSvM7brtwaeQmFEHaD59m6PGVEPRF8TtDKaWo3KaYw/Y5YJKSQx9BvrgjzJDZA/gpUkPdP7Ov4EPXNh6jT69ciubMgsPERaK5zDbx0vPfXve21t1HhLOnmWA1KY+lTusD0Nb0/DpBLYXqnCy4YiVlHp+Z3nLna9zbWsZ6NP0qF76EI9MJjnvUTo8g7RwDcjst3Rl8CvWITU1SWHwobnBVV1KCZU0OHPSzr5619IbXzkOI7j0VWBsIlcs6RtjK9s7fh/J6tTd8hmGcKu3gR6GuDK2cIAikRqKl2TiIe5dTu3ubz8KuP2azJA14VgY7sE9UUru/B+unqZ6VYUahi0QZm5py7NvTq0MT8Nol4z/94iEDPP6a63RGUihX9o+7dqKR2BEUbHCulIuojWyyKMDdBQzehippegXDsJH33UdQ3Z2Q7GaqWH7QeIOfcvRsBPPCbn+5EwQbknC9IIJxuU0RuvEkQQD63t7u19u6+7U2n92xpPF/htLiT5YMpZDMgoUnFHpkvuBSyGSVADgqFYnpfKVp4DgJ4q67cHT0xODa3wx+MlqNuup4aR766VzL3EYFeIkM1M+drvHhj+BVwtT/t8YWqYyvKoqIjkPBmk0UJhFP85joxRREy+ueUFLWQT6WaTKJzc4Gpq3JNPnuwi/Sul82mMqm6VCLzTZpZGgjAn379AOqngzp5nnXJkx2qPx0R79DU9U5OV1PZUjNRMr02gLKwyM45fOH60Etuj7+uNJAujVaKQC+NccLONlB/6dbIa/f6p48GQhHr8h23WhbVqpDH0NSu8CzrdoBEhpHtSs45SWQ0tqglzzODc7quxjnf21F3c/eWpvMwuw+YjEYR6LqNidx4MyLQWOsa3tpZf6UH2npttWM2FQZxvK+Kpq5z+Ipa8Y0aOiPrV4oX8ryDR8P0aHj28Pe3h1+e84ZEoOdx4opAzyOYet0KeZvm8dmF7uv3x58fHne3KPSOK1hkTEognMnmwA5ZX1M7FwWa2CMQ5jEEwy33z3GzAWarELTyOwfg5wMzXD/S1AIJbmq9cJL7CgKbDQFEvQea68sH4E//uqet9kHSMouKRY3Bcfqb3mkV5NrEqHcK9mQH/z4yMd9+7e74s9OzC+2IgNczDWdTTQkR6EU+3Ci+4rw3MH2Itc6nZheawyi+sHKXDd85Xh5ytVvA1Z6KQSofXVWEOUhkogyEg/9crey0jEQGv7HZLCFSVe7qbThnt1ukHnI+wJd7CAJJEIA/fX7/9uZvoalfMpmNoWSetkTE+6LiT19Z2CWfwHI1UBgqKdBTuP0CoagN6Wsd1++NPwOymd3hiJDN5GMMRKDnA0Ud7xEER/vNBxNPXb49+orbG6xhsOryzLAyhd6Vke0MhNPXd86HUyuPwNxO7vZkPjmn3RKDiX1sa2fD1c7m6gc2i1n42nWcI3LrzY2AzWoOoLTqdVIqt4C8CVp78iwSbL5j5HjXOeJd0dATAXIpKGFpZZxfCNZdvz/23J3+qSMIsBVZlIdpLCDmAUS9boESiWWehWDt3b7JY9DSd0K4w6L2ZCwr/6UKcxd86LaUZq58tZHBcExRI5EMf16+A2esXmNd+RQ4p890tdbcLnfa3BLVni/05T6CwEoESNJUVWF3d7dW3z66p/3bxtry8WQ4KaljiwiO01lD57O5TK1leodWbro7MHXgfv/UYTBe1kQiMT0DfzbF1BGBXsTDjEC4RpijDg5Pzu9AaVSn6jt/ssEoRwyBbldqnZvADqcjx6MSJRsFG1wUJneywyVPhVk0gDxmeP+25lMt9eX9ZrNJKB6LeI5J0zYOAs11FYMn93d+AJ96H4sfruwZiWZUf3qsAKlsCi2swvOeXMyQEnZuPlA9gFTcG/fHTyBHvXnjjMb69EQE+vrgvuZTIbzL4GNqv/Vo8uTEzEIHJ3+yg7mfNLObLeRr1zelk6kvEWjm9KGrfrgf2sSfGNleXeFY6G6pvQ1aykvVVfapNTsqJwgCgkBeEEDd9Il92EjTMlZd6fCYybG+/GAKGxQD1lzQnz2Opne1vGoqelrw0JsQILf9/PWhN0enPL15AWIT30QEepEOPjjbbeNT3h7ma4KMoTpZMxkIZzTbFVM7tsF6Kudq8QUsAvSfx1BNbcU6AVu7y2EN7OlturFrS+M5pKyhmpolJOb2Ip1g0qwNhwB96XU1rtHtXfVXd/Y03HM6LEnTRBnYqrjLlIBWHY9ExLvCHpc8N50Wxzmk5F69N/bs6IRnC9Y9MbvnMCQi0HMAT69LMalNmOSNg+PzO/pH5rZ7/UH7yo32opJ3bnVWK8FwqVJE8tVGpRQjeNupnSO8fcVtSRgBge5F+sy323vqL7rsVk++ni33EQQEgbURMJlMcQj1MPPS921r+dZlt7iTucUeR7xjE643g5xSdBGWQ5reoXUk7YQvGLGA270TrsUt025/E3k21u6tnJEMARHoRTgvQqGoE5zt2wbG3Ltn5/014XAyznbV1G5DvXMztPRktI956xqjY5GiRmGu+s6fbA/NaVhIDPW15VO7ehvPd7ZU34f5Xaqp5W0A5EaCQHoIgLilrL2p6j6tZAhOnXDYLCl86WqpU77Legt1rk1KJTbFl75ypWJs0II/5BqZnN/aNzyzyw8mufR6K2ctR0AEehHOiYVAqPrOo6njAyNz++E7t6/gkFH85mSFs2nmdvrK9BPpfOFpamdFNSUHfsmjVN95maGprmJ2C2goWxsrHyEv1o1gOGGFK8K5JU3a2AjQxYWa6TPtjVX3tnU3XG1uqJgge9uKAy8uPOm656TzuRTkZUZyvSfneFfOQZ7b2OT8ttuPJk/4/KHKjT1K+vVOBLp+2GZ95wV/pPJ23+SJ/tHZbpjfFff4DwcFKviSEdnO6Haas/QU5ry3EhXL3HMww8He/sTzFmG2gzYehyAf2dJRd62m0j5pwr+z7rxcKAgIAjkhYLGYIwiKm9rWWf99a2PVYCq61ziD4xDtXphqxox4p2BPLnKYGj884e1FvfSnfIFIdU4AbOKLRaAX0eCj8pDRFwi5xqY8PfApbUFBlnK1ROqTKjFJG+g3Vzjblb/pVY2UPjZyQIeVqmoslUoBvvywWsx+1Du/tr27/nuQWniLCFJpiiCwKRGAqd2L4LiLKK16HVp7JClhG6lgKUkV07u+MCk56UrhllSZOEhh8wSqh8bmtqI0dIc/EEHtZzkyRUAEeqaI6Xg+tHErcjK3o6LaCZRHrWNFtRXvGVNASPNqQREW+M6Xqe/5bR3NctGwopmrvvOVtzfB3F7utPp62mpuUEN32M2+/DZC7iYICAKZImC3mf29HbXXO5ur7kC4B1EYKcUtIMxheqcBXu9DMb0rzHHJ3YO0Rs77QnWPhmb2Dk24u0E0o28ert4dXof7i0BfB9BTPRJViKx9w7N7IdBPLvjDVcnOYxU1M0zthWCF4/NjEOhKiVREuSfb5Vc4bcGOlqq+1obKR1Xl9hnkvorvvIjmlDRlcyJgQQxLpcvuhg99sLetdrDCZWPhhRVg8DfxQqSwKU+mlk7Te3I3IWN1AoGI6z7ItFAvfSfoYCWFLcPpKwI9Q8D0PN0fCpcjsn3nQ+xQUTPYuZJhCS8D6p2zqppSHlXHeuc045MiMhZDIZYINHQI9GQ765oqp3tnd+MF0E0Owaym/zZfzwGQewsCGwgBBsjVVztHDuxsOV1b5ZxO9nLShQbBqXz0c939ACoD9CjQU7HHhSIxR9/I7L5BrIOsY4F26Rftu4HGOtEVEehFMqgR8BrPe4O1o5PzPWBMagxFkmvECVY4Na9Tv4M7dxZfSaSrpSroUFPpmNze3XgJKTJDsKbp7InTr79yZ0FgIyJQV+Ua27e95RQE+lTyt/MHga6887o701U/ump6X3lgHTQMjs139Q/P7XajjkUYBFsbcVz06pMIdL2QzeC+CHwzojhBLSgQt03P+dvD4ZhxRewZtHEjqBxZiIXR7WRe0vNQirAgCC4ege+cJrmlNK9487H7N1SU24KIbn+AohC3qivt0/DTiYau56DIvQWBDBGornJM7exuuAh+90cOuyXM93bFQV4J5qMve88zfFRap6vBcRToat305UccGwqUjHZMznq7+odm98x7grVp3VhOUhAQgV4EEwGhb2UIgmvoH3HvgZbexpfuyamOeucaZ7uJVK8U5jobopRUNXK2Ixhu+cFQPavZbGCpRvJG19c4R21Wi5RILYK5JE0QBJYigFLGC031FQNtiHEBV4QbGSlJg1sV9jimsBXAxpYIjksl1Lm2zXoCHTcfTjw17fY1yYimj4AI9PSx0vVMCPL6gVGamQI1K6Q1U89Jn4jIdvrQdY1s13pJBqkYqF4Z3b5CoKM9NqspiFrntzuaq+7abRaJbNd1dsjNBYHsEIDVbBHlVUPtLdX3tnTU3kf0O17olVI74UdPlbOe3dNTX6UK9dTBcbPuQD2Cg4+BCrYt38/eyPcTgV4Eo4vodsusx98IIpmd895AebJYN74ATFMjf7ve6rmyW0cQnEr1mqQQC/4Oqlc/tPNrHU3VdxBRKyVSi2AeSRMEgWQIsJRqR0v1ne1ddech0L3JlXA1MG45rbNeiNLimDC9J1MYvKCCHUAtixm3rwXro6SvpTkQItDTBErP05iiNjnrawWhTOuCLwwVfOkB+xP+TzO7yQr/OTR0XYPb8WiVTAaV1ZCypqS0LDn4bMazwB/nb2+qvtvSWDlgNgtvu57zQ+4tCOSCAGNbWusr+nrb668izdRrSuZHVx4AohklKC7xyeWpq19Lc7sS6Z5iMQuFowbUsaiemvO3zsNqifoWy9ZF/dpWyncWgb7Oo8e0DDAjtU5MezqQpmFNQsSmmtshyOk/L6PJXU8HOsukRlkmFS7xZTXPCRVfRFRSCyJN7VFXa/XdhhrXJPxyoqGv8zySxwsCqyFQVeGYammseNRcVz5a6bKFU4bgaClsi4s6B+ks0dCTRbxzXwFiGQvYMttGJjw9wUjUISO8NgL6hkqv/fySOAOVgCqQF7l9es7X6vGFqkmIioYnEjeTWbCSvQ2J3z3+G3/4/Rc37IMj7p3gMD4WCsfsywmdlMARk1UxtSuEDNzR6phaQh9anDSv+Kjmt2XheegtXvay+YVg9bkbg6988O2ddkTpo9jx4219Ao+l2/ylGC39WSnEpHxQDRabGRMWnKGWhsq+BtRTB41soCQmiDRSEChyBOAiCz0anplrbarqH5r0bJ/3heuWryPqC6uWVIXrXV/FQcGLke6MeE9OPYt2WBAU1zk47t7ZXF8xhAukJPMa80wEehovIgLWas5fH3r54o2hl+/0T+/FzrGMXmZl/qsfpeqv9klwGy6VhEuF+eNzFRZ2CDFwuJtBe2iMROOOJ1M5lGg4para40IsekehsrIa0tWiUUS4J2OWwu/CkagZjHbbkDP//0ZVtcR5CTwSPJLLNz3JbHnESomMgVnQhCIv5mcOdX347NGePzhsLQy0E4GexvyUUwSBdBCA/3yhrbHqbn3V9EFUcqxbsZQom3WtrKoStKazls4Xn+b/RSwDy4ht+GiUgjVOz/q6h+FL349c+nT6uNnPEYGexgwApan7qYNdHwaC0YrhCU/vmM/TgJq9di1YNKFlLv1OCO1kd18q2JTzGLSiTO0k7w//aLKopVLVF0xvia7RvUKgq3uWlQcEvYmEDyC/saE5ib4m08x58XJN/QkNXZH6qOEMzumx4/s6Pzm2r/PTHV31V1zw9aUxNHKKICAIpImAw2r2gTfiHshmBvBa7kryZqs10o2Mm9FfNKjrHctLqXFCy5c25qRPuX0N0NC3hUIRV5rd3NSn6T9qGwDecpeNpp4bF2+OVPn8wYpzN4bfANdwJ03kEG6pqw0k73syYZ9iK8yJDjIZRUMHYVIKdqV8QczdOSle6UNfxGe1Ay3DBkR7EdUTV7gU1moX8u3jKOay0FxfOXxwe+t3L53c8rst7XU3m+rLh4WkZi305O+CQGYIMDOlrbHyfl2NcwDvboQm7eV3SJjcaZ3TX0FXyWVSscaxDR5v0DU+7e3y+EM1JOCS0syrj7kI9AzeiZ099ZcqXFa3PxQthxm+CikV9mhM3+gRRoIq7HAQ6roGw3GDDGIJBsMpuec0t2f1RqdnReDtrSZjsLGmYuqtZ3b8y8mDXR9t66y7hpzZiAjzDCalnCoIpImA02HzQUDer68uH0mqEvM+fDFpdtcxTmdpc5X0NX6UIJwnrY9sgi8Yts26fc0zbn/LQiBcgWvn0+zupjxNBHoGw17utAU83sDA80d6/kjt8qvzD3+C1IomlDnVxdnEAiwU5EajzpHtCgbkdNai25mqlnWPVncJ8CUFKc0iGKzcB3a0nj2+v+PTgztbv25vrupjtDwLSmQwJHKqICAIZICA1WoK1VQ5ptubKqcQQd66EIis3LcnfOkQ7Km05wweueqpCbY41Z0Iob5sI8F/IoXNjpTe3qk5X3M4EvNbsenP1/M32n1EoGc4otzl7tnafB4R2cap2YU2BMkdQcpZc/43tOQ8NhesTCo3x2oxFmjoSrpa/g9S2oKEZhG80iMwrV959kjPe8f2dXxWX+2asFvNARHm+cdc7igILEUAJutobaVjqrutZjAYjtR4/eFlgbg/RLoXxuxOOa6a3X/IgX9yzODadI5NebdNzy50doD3An8VgZ5iWotAz/B9B4kKNchJ+HUuGAx7jfbTd4MfT3vewe/sGd5q9dPppEaamhIMp9QP1v8goUwsGlBY4vJ9cMMDU3qsobZ8/Oie9k9//NLu/xvsVfernPY5LjIizPONuNxPEFiJAGPKqyrsk92tNTeGxz29iwYv8ruXmeOUMFaSzCSSUPRFkuZ2hTWODJVJAnERfOsYnfTsmJzzd8YQkKtva0r77iLQsxy/6grH3O7ehgugaq0PhiLO248mDk/MrF5IgLtQi60cjG/kZGfq9up2bSPyz81W1D7XubKaAoESTe8wOCoa4EOPrkoBqbrZIoZI2K/Sw3IDsIqJgjtv4OXrbqt9dGJ/5/uHd7d+3ttWe8vltHrMJpM+5oAsx1UuEwQ2MgJIM42h3vg4SKFuXLk79jxezcbl/YXzjVwTlOqFgYKxtQz4TRGzg4wa89iMp316bqEdGTEi0FcZFRHoWU5Z5HSyutjIwMjsFxZQnyI4zhYIjTl8/lAlfOrJ70q6Q5Q+tTgqDRarS/WNZ+2rzrLhq1zGXHcl332VQ42EZ/BcQPmOgx42WUALb0EULCajAcVb/Fs66+4iLe3jV05s+d+97XW3YOkQQZ7/IZQ7CgJrIoA03JmultqbFU7rGJaf7SsuUHJJ8R9+TPyH3osUNXQExsWTPycSiRumZn3V8Pk3w59OxjghmEkxyiLQ15z+q5/Q3FAxAoH1mT8QqTCbyqLf3xw+Cb9UZbKrmOMZCSBIE0LRSIYkK31HpTQEEOaIgA8HPPjMG6LQ0NWI+BT56lgQqqrts7u2NF55/kjvH04e6PyoqbZ8WIR5jpNOLhcEckCgtso5A5fh3apyxwQ0dkVirwhGUznj8GojfS0l93sOjVhyqRIYh3x0yvNkdgFo5YZgKGqb8wQbUH2tCRwgXgTV+vPz9I11l1KSJkWJPOqAh8AcN3lod+sXJDENwPz+aGh2FyIy61Y2mCxsoD0P+wzGgGo5MsMEz6MQrEzZA8gXOwb2uBA2JF5DJOQxREMQ5ilM7UpKmsW0iPrL43u3N3339IGuD/Zuaz6N+ukDwvue/SjIlYJAvhBwOSyeumrnRE2V3ev1hSrDEZUh6vGhRLr/QIOZr+emvE8iH52m98cFYhJnc92MW5DCVjMz729B/Qik3RlEoCcBUwR6HmYqc6dxm1tgNAoGgmQ0Ate5N3gsFo9bV5jfWfwEfueQkhKCKHaFp70QaWnZd1Q1sQcNkaDHEPLPGqKok55KK1c2KWajgYsFfOVfPgca16f3d32skfNk3wi5UhAQBPKGAFih4kxfa6ytmA8Go5XhMFNVfxDpdKE/STKjt9ldUWsU0zvMfstCcpjOZjBhba2dm/c3o4hVfgOQ84bq+t9IBHoex6Ch2jX+8omtv0bEdswfDDvAQdw7Nx+oXhFEymhOBJ7RbE1Tl91Vg0A5Zx5bkq9bcWccUbTxkN9tiAa9Sq56KmGurQex3vbavmcOdv/pxIGOj7Z21N1AvIHspvM1JHIfQSAPCMCMHq9w2eeqy+2zIyZjR9JbaiQzav2kAhxaLnoywzs3F6DerpzzBJog0KXyWorhEIGex3nKGuG4Xd+th5Ofx6KLlq++f/guiBD2YmfpIC/x0gNlUw2LEdQewa8Z8W7BS2NW6F0LsRNOo9OwILAeegTugTA08wiFOUzuqQ660SsrbAvd7bUPju1p/+wpmNm3ddVfq650zKTxNDlFEBAECogANXTURp+rrrQPoyjSLixP1ieWHiV1jdHuiZpL+q9LSvqaWthi5YFfBsNhGxSkFmQVqX5KOVYgIAJdh0mxo7v+CshThjy+YK13IVQDTb0Lu8plvMmaXzriMyz61ElsNNUoJvh1P5SKa0hLCy0oJvawf3W2RRNT3qzGQGdz9YN3nt/5308gmh2c0X1Wq9RJX/exlAYIAkkQgOCMV5XbpmsqHGPggeBOfdnCo0h0fCDU8V/9xbn6kMf1IZZI9UTF6GAwQoHehEItItBTzGoR6Dq87pyALrvV8+zh7vcQRRr95Mz9vwV1YSsC5kzLXwwq7vSp0/zOyWyxV0JTX0cXEXbkzC+nRk6feRTpaakO9sVsMcXhapg8uLPlW6SlfYoyh9821rpGSBajA7RyS0FAEMgDAtDQYxXltpmqSvskNHSExCVRihW+CQTLKXUd8vDQNW6haugJXvcnT6bJ3Y+Ka7MePwR6TCqviUDXf0ImnoCCKnw/wogevQIfeRmKuLR+fzP+wsOhmS4l6OOJQ+VQX4QQVdmMVbOTiZp6gc3v9OuzDjpT65iaRmFO9rhkB2u92mzmECLXJ/Zvbz79zKHuP+7f3nq6vsY5zk1M4dCWJwkCgkCmCEBu0uTuBuHTFAQ6Um9W6uHLi6Vk+oyMz1ci3XnVyu0F9xTwoTsQFNcIa2cxBhxl3F09LhANXQ9UtXs67daFXgSFvfXsjn9EtPvi6LT3L+Fbd4GFZoWsXlSCz3yqEOekhqauVlgrzMG0NGrmYf8cfObwl8NqkKrkDJvncFgC7U1Vw8f3tn/68smt/wqymJsuh9XDgMDCtFieIggIAtkiAKVhEZkn8xDok9iAY+ee5E7MyFHoWAuioCvqjLr+rTQHcHMB7nnDnDdYHQiJQE817iLQs30j0rjOZCpbhPD29LTV3Xj2UPefYb4yXbgx/OrQuLs5Wd45tWGStSg7VK32uclENjl9o0wVshiY1ynIo/iOR0H9qlRrWdlJmNIN1eWO+a1ddTfhUvjToV2tX7Q3VvWBdcptEhrXNGaFnCIIrD8CqKuwCBegp9Jln0X1Qz/f6+QHguLKGBinP+OqIsehRSS17mMtikYZ6R6x+QKhCqyrZhR6EkvgskETga7zu6VNuqnJWe9pByhQkc5WFQiFn51fCNZwgi7djDKFbZHkLdCWy8AkpxzkftdNU0fwGyLZaRkI++aUiHY1kj3JDhkvFChukV/umkVd+Msn93d++NzR3j90NFc/1BlCub0gIAjogIDNYgq5nBYvLGteEEHFkZGzUqprfnSD4kXU25Ge0M5Vob5cn6C1AG20MNAYAcdV0Nhn7VZL0qB4HeAqiVuKQC/QMNVUuiZ3bTGdm/duqQcRTejc1aFXEOBRQ1rDJw8yOsD8DUY2RUtWTFBG+NQ5VPl6oei3R/QqfPdBn1sJyIsjhU6tsrbyGWyCFUUdUCltGrXLT794rPe3h/e0fVHpss2h/QgLkBrmBZpG8hhBIG8IcOUxm81hpJbOuRy2YCTidya1vFO4QpgWhs0yYXYnY9yTlNJcmbBqmTz+UN3cfLDebjHDR2lgTQ05NAREoBdoKkC7jYG+cPbAztav6b9CpGb59QdjR8cmPfUIonuiFQqfwyJ86kGfEvWp/A+aepmJWnuuQp0+MTK/wV/O/PLAglIyVWVnWvk6c8MBk1y8p7128MDOlq8Q/Pbeni1N51jDvEDQyWMEAUFAJwSwLoWRujaNyocBt9fvTO5LZz46BXphtHQ1dY2KzcpOx2OLZgQb188h2r0BAbgi0J/ESAS6Ti9KstvCT8UpOjA+7fkCJQFtkVjMDPPR06FwzBmNkQr2yaviMXKnLyrlUxkdby5z4juHIWOQC7TwKLTxSNBtCC3MpSyVqgTCMP3OYQ22NFZOoOzph/CZ/x4R7WccdqswvxVw3sijBAE9EOByA1N7CIFx0+B2x64+maGbCoBaqKVQh5K6Br+9yi6/NCFdsRSYUPwKAj3QjDXzdqHaVCrPyUE6lEoXi6+dtZXOyeN7Oz5GYIcVO07Tnf7JAyjmUqu09In3BoQz0JwVYhdlhwzTO2qWlxmzCFAhWQz841H4yUPwl1Oox5CmVgYjVtLNByosOR1W/87exptPHej84Nje9o9B6XoLMQFIcZFDEBAESh0BpteOTMyHqirsM8jIUQgnUurgiWj3XA2Ea4Cm3l4LjFspzynQzf5AuHbBH6qNQVsv9THId/sFkHwjmsb9wKDGYi5Dg2Puj+AHCsQwSVEe8LAvEHaxmMvyQDkK4khwQQmUQxl1gxn/ycSfxU1BHFXeQvCVR5T8cpY9pb985b6bLzTJJEDj6jm0q+0CNPOPj+1r/6gNkezQ1hfS6J6cIggIAiWCgMlsjDDd1G41LTxOAV8utFUfYOF6lCJ1TdlwwGAZDkfLsV6WY93UN/2ncD3O25NEoOcNysxv1NlS/QhUhnOznkAjJqnt3sD0HviHXE/6shURqxC+LML8Dvu7oqGbzWCTW4t4Rsk8QyoccsrJ/BZCjnkUdK6rHSZo5rU1rhnQ19545eS2f0Fa2pdop0SyZz68coUgUPQIgLY5ZrWagrC8BdYKz9FZOVexWuMhXBtharehZLUdSfIi0JfNMBHo6/zKlTut8/BN/wFsTbFoNG5/ODyzHUJ9GferGt9JLTschPmdByu0Qain1tRVrnhEripR7GEfItnjqa3lvI/VYmTE6+zzR3o/PIniKjt66r9H7eGxdYZIHi8ICAI6IYAMlSjS1wIpyWWU56raeSFC4hSZ/rjq2spOsw10VYYiMSfS2LLwPeoEZJHcVgT6Og8EUtjikWj0fjTa/vGCP1wdjsZ/ebd/cpuSVrbUyqVYvRidjoA2ZdIbDVbHIszvrCS4bFuLFyKOmuU0rStmdmjlMVZ2S7L75TMYZI9KceHutpq+wyCKefpA95/2bG06W+6yesxCFrPOM0QeLwjohwD86FFEuofMprKQFlDzhNar2geTBpzr1yhtRUsaoofGRGJxM/LR7dDWRUNfNgoi0HWdlund3GI2x33+0MNnEEUOP3olyGfs41PeNn8ojA30k1KYWrdSMEXhZVUD5Yxmq/JNiU2hvwhqWbK+PS57Cia4VKYsRLkaKsqt8z1ttffpL3/hSO9vUSlusLLc5tY46dPrhJwlCAgCJYcAVxGY20NgjgvjZ9I2JxGSFOmFK6OaOqBeXfMiUQh0ZAlBQxeBLgK9ON85l9PmB3vc/eeP9vwGGnPs49P3/8o3Hm5JqlVDe1coYpViBtDUyfuu1FI3KZHsSmEVmOYjoR+C35L1mpuFuhrn9HbULX/5xNZf793WfKq9sfIRU1lEmBfnPJFWCQL5RIBrjSLQlQItSXTiRDxcQWPiUjvSycMVjUbLwpGojYk/+cRiI9xLNPQiGsWqcrsH/vNLrNA25wk2Qt6+ODbtbWUxlyc1dfrHkU/+uEIbzfHlysY2EoJm7ncrpnnmnCc7SKHohIm9tso5e3xfxxf4fISI9q8ba8tH6MsvIkikKYKAIKAjAti4x6zItDHD7K4WY1ruKS+0wZ2NSHySdFwNijMhKM4K0ivxoYuGruPbkYdbV7hsvtl5/42XT275X9w5n77c/9bErLcZAXNP3h3SXgl6Uyq0YZsN4b0YBbscWN+UsqfQ4pMdjGJ3Wa2hzrbqgT1bm8+8fKz31/u2t5yx2ywBbBqSX5SHfsktBAFBoPgQ4Duv+tBpcldqJaMa1LJjvWT68nZo5HGRSNwMgW4Rk/vK+SQaevG9YwZqzm5P4BQM6ougi7WcutL/5ujEvEIR+6RLXaVxTQS9UYgrPvRlHMiJLjLH3W4zB3o7a+4/e6jnz689vf2fG2tdIxUuuxY6X4RgSJMEAUFANwQQUR5HYG4QlSHDqengEvb2VTTnvLYwuSU9YUCAcmOED91KS2ZeH7sBbiYCvUgHEelj89NzvgvMt/SHIhWQ0k/PuP0NmMjLzO8kgomA9Y2x7zwwxxkqssTnpfJCLBogvGe2tNfdf+pg1/s0s2/pqLtVpN2XZgkCgkABEEDUbRyFl4LIZtF86CsfyrUjDkWhbJXg2nw2VVmvFOVkpeOeVFjRWMzIqmsi0EVDz+e80/1e1aBk3Lut6UwoGrXDVB69eHP4hcm5hfrF2HKGNwjxRDxLkj0ri6vApO49uKP13PH9nZ+c2N/xYXN9xZDuHZAHCAKCQFEjAIHOoLiwGhSXOr6c8Th08RXiWC3fnTKeUe6shy5BcSLQCzEf8/YMkD3EUcBFKYyCXXQ4EIqUx+7Fj83M+WtZBW0FUVxCmGsbW41VydDWWDl+aHf7qWcPd713YHvLt/U1rnEEwggne95GSm4kCJQmAqz8iHUmTB86PXwpe6GwThYu1D31k9S0NVguzaCoFpP7sgETk3uRv4cWk4lze25i2nvaH4xUYCcduXJ79OmZeT+KE6SOYaPAd9gskdamipEju9q/fe5Y7++2d9Zfbm2sHCzyLkvzBAFBoEAIQJAvzrr9SlAcHln0QbHU0GFyX1RN7pK2tnyaiEAv0IuT62Pqqp0Tzx3u+T1KEpcFAuGKmw8nDs57QlWxZQFwCSpYu80UammsGHv5+Nbf01+OHPOzNqtZyp7mOhByvSCwwRBAyhpM7mURkFUVTgXPAUMoMmVKpUqVXUuOJQiIQC+R6UDzO5rqHhl3fw6Tky2EYi63+yZ3gy62MhE7ovqeFhXmJ/jLLx7f3/E5zPUfdDZXPyh32jwl0lVppiAgCBQQAfrRkVFT9Np5AhKsd/SfM71OBLqY3Av4pujwqMa68uGD4Fuf8/ob8Aaabj+c3AO6WCfSyw0mkykOcphJcLLffvZQ95+P7Gn/rL258hFM70hWl0MQEAQEgaQIKCG1Sro5AtrxVdSUqmgjKqfKSCZDQDT0EpsXFos5FgiG+0E887/hT49NzSw0QFtvM5rK4pUuu+fAjpZTbz+7439s6aq7Vl/tGkPtdQl+K7ExluYKAoVFgBTSZREUaKHZfQ4/JzTfZBrweojSpe1YjJehnpTJwDrQ69GWwg5Nhk8TgZ4hYMVwusNuDUGI94Gu9QuY3Guv3Bl9IRiK2PDvL4/sbvts19amc5Xl9jlwsieS04uh2dIGQUAQKEIEbBZj8OTBri9QytnDkqRp2rHTPO2JDmdyTUphzQQflHWeaIK1sgjhXNcmZQLwujZUHr4SAbc3UDs87t524/74M15/pOrY3vZPemBuR6GXeeFklxkjCAgC6SKAILMyBJuRGz2RBr40CbZY5MTjFHVaEUBZG5EiUk+OcLEMVLrzTs5bggBeQCMKFVhC4YiTu1b6ykkSgSAXMUXJTBEEBAFBQBAQBAQBQUAQEAQEAUFAEBAEBAFBQBAQBAQBQUAQEAQEAUFAEBAEBAFBQBAQBAQBQUAQEAQEAUFAEBAEBAFBQBAQBAQBQUAQEAQEAUFAEBAEBAFBQBAQBAQBQUAQEAQEAUFAEBAEBAFBQBAQBAQBQUAQEAQEAUFAEBAEBAFBQBAQBAQBQUAQEAQEAUFAEBAEBAFBQBAQBAQBQUAQEAQEAUFAEBAEBAFBQBAQBAQBQUAQEAQEAUFAEBAEBAFBQBAQBAQBQUAQEAQEAUFAEBAEBAFBQBAQBAQBQUAQEAQEAUFAEBAEBAFBQBAQBAQBQUAQEAQEAUFAEBAEBAFBQBAQBAQBQUAQEAQEAUFAEBAEBAFBQBAQBAQBQUAQEAQEAUFAEBAEBAFBQBAQBAQBQUAQEAQEAUFAEBAEBAFBQBAQBAQBQUAQEAQEAUFAEBAEBAFBQBAQBAQBQUAQEAQEAUFAEBAEBAFBQBAQBAQBQUAQEAQEAUFAEBAEBAFBQBAQBAQBQUAQEAQEAUFAEBAEBAFBQBAQBAQBQUAQKGIEyoq4bdI0QUAQWAcE4vF4WSwWM/GzuLio/IzfGZd8yvjzkqYtaj8r60lZWdmi0WjkJ45PLPEzf28ymWL8aH9LXLcOvZRHCgIbDwHzxuuS9EgQEARyQSASiVhmZ2dr3W53NT/4uW56erqe3x6Pp5Ifn8/nikajJgrppc/iBsDhcATr6+unnE6nn5+6urrpqqqq+fLy8gX8frqhoWEK3zO5tFGuFQQEgZUI6K6hh8Nh8/z8fNXg4GAXF4llO/tEi1bbqSttxCIR4KLQ2to6igVherMOJhZbBc9Hjx71crHlApotFtSSuru7+5ubm8eAr99sNuekMQWDQRvHeGJioonfWPDT3jDabLaQy+Xytbe3D7e0tIxn2ye5LjMEOJ8CgYAdQrqK84pzanJysnFsbKyVAlwT5o1TU1ONFOr4O8+r9Hq9LmruyZ6GuRTGOzpDAY4xpRCfrK2tna2oqPA0NjZOcL41NTWNQ9DP8J3G7708t7Kych5zMJ5ZD+RsQUAQSCCQ9oKbLWTYyZffuHFj7z/90z/9+7Nnzz4FAW9dvqtP595YBMb37dt37d133/03nP95OtdstHNoCsWCWnHlypWD/+2//bf/6/Llywch0JeaPtPtsiK4sXhG/uEf/uG//uhHP/pzW1vbMH4VSPcGyc6j5nbhwoXjn3zyyVvffffdU1j0yzHWqRboxxsR9gGL/uyWLVvu/epXv/pnCIoPYJbNaXORSz82+rVLTeoQ0jUjIyNtt27d2oP3dP/t27f3Dg0NtSU2ZNiUWbgxo+DnNz8YH5rcU8LETbzf73dyw0jzOuZZlB/8HLdYLGFu3iDAvR0dHcN79+69tmPHjtvbtm27t3379ruhUMitmePjCdP9Rh8P6Z8gkC8EdBfo3MVjYa8YGBjoxqKxC4t3Vm2nhj86OtrS29v7EBrEVe7m7XZ7JKublfBFDx8+3PLll1++cv78+RPQ0jtz7Qq06WZo1vZcNP1EG7jYQ3urxlh1QzDshuaX9vyamZlpo6+VWmKufZLrV0dgfHy8ua+vr+fOnTu7MIe24N3sgUbehverHfOhBZtG+2oCOx18sQHgadxs8mNJdg3myVa0Y9u5c+fGsGEf4aayp6fn0datW+9jc/cQ1pohtCPEeZHOM+UcQWCzI5D2gpsLUHwhuUPH7jyO3Xs2GqUBO3cLFoAOaKeHdu7ceefIkSPfo00TubSrlK6lhkRtCv0/fObMmRegQTXk2n6MhxKglI3FJNmzNY0qjrGO8d6ZCHSeT3OrtnhTe5dFPNcB1q7n3FlYWCifm5urodn8448/3nv16tVDnEsQ6N34XR023mYIT2rfhmw33Zk2Fxt9y4MHD7qxSe2itYj+9s7OzqEDBw5c2b17941du3bdhBY/hA3IRE1Nzaym5cu8yBRoOX/TIFAQga6hmbWvl9dzkWGwDky6J/ni0/e7mQQ6F+SbN2/uhWb+1PXr1/fAvO3YYLOUC3VOc2SD4ZG37lCg3717d8dXX3310qeffvoGTezwiTfBLO7CRpkR7Hl7ViY34nO1Z5fRFYf2WDGvqyHgt3344Ydvw98+/vzzz3/98ssvf/bSSy99SX97JveXcwWBzYZAIQV6ztjSLAyzYMf3339/4tKlS4fh6/PQD5fzjUvgBsPDw+2ff/756+j3USx6Feu1COsIlQjzPIJLixY04EqY1Xf+j//xP/Zx3ly7du0g3V6Ia3FSEy/GA4LdgI8drhc7Nh116IcDG5BO+vehuV+GRn+TpnkE3oWKsf3SJkFgPREolECn9pX45NRfaKo2CPLOU6dOPV9dXe3Gv2cRYOPP6aZFfDEWNwu18y+++GLX6dOnn79///42LMZZuS0K2M1szKIi0PMwQAnzOjTyDgi/rV9//fXLsOqc5M8QkhVMNSuUST3X7nDTCm29FwKdm/gjTz311Blo7F8cO3bsAuJo+rU4mnCuz5HrBYGNgkChBHoCr5wXbb7k8AVWQsC9ToF+9OjRC1jEgvTPb5RBWdoPmiIZvHTx4sXjTFWD1mUrlQV5I45HsfeJqYO0XsFP/tb777//NoING5iShngGa6nNG7YXGxADNrQWtL8F2RNvMmMGAv38K6+88gnN8Hg/JqxWa7TYx0XaJwgUAoFCC/S89AkC3MSId5gQGSD2DHfsuPFQXm5eRDehNoVAwEakgD2Lz3NMJSq1RbmI4NywTWEaGeNLoJXv/O1vf3uElhxsAI8h02BnCt6HksOCLgJs5F3ws2/HpsXFjQrcUB3PPffcN4jKv864GhHsJTes0uA8I1CSAp1CDS+1FWbEnQie+TGDZbBwDW+k9Baa1ekrZ1oR8vefRlTyfgYN5Xn89bodLTE5W2P0atxGui+FOVMFSQaDd+Gdjz766B0ET+6hFWujCPOl4wWfehnS7NqRZteEDcx2CPMaxtYg1e0BtPVpEeobaXZLXzJFoNACPW+LPHfs2KE3Iyf7pT179lxjqguEvBe56RvCp8ZFCtp5J7Xze/fu7YCp3aFDIFPexiPTiSfn544AhTkJXGhi/9Of/vQzbPyewVzZCQHv2IBBk48BoxkefbdAsPf++te//mts7Lf94he/+Jenn376DH4/LKREuc8tuUNpIlBogZ5XlOBXU0zvjOAlGcXx48fP4wGTeX3IOtwMC5YRJsU6pKcdgEvhOQYF6SDM9e6ZbBZ0RJgWKmz4WpHGeYyBb9jYvox50sUYCz2EOTRf0i9HsGH2kcIVn3lyGCzvIjeitAxAk7aT7x3tqYIP3MXo9XwetNLhGYb+/v52bGocZJ8jQdIzzzxzGuvCkETB5xNtuVepIFDSAp0gM2gMAv0EFpgFLTe95AU6FiQnTe1YrE/gcxTC3VWACVUMArgY2lAAqHN7BDVzkK3UUzP/r//1v/5f+D4C07NiYs9HjAUIggwQ1gZWSsM3aVsjCED1sIYC+ddB/tLf1dXVz/oKyxkGSS6E+esg4x82GO3ISOmCJt2pRdhbtCpuJLHJC4EN+wt3Qx0sFD/FM2q4yUAkPHcPg7mhLFcLAqWHQMkLdC4MZJBDWstxfI5i8fCggMtwKUe9s0AG0/KwUB8j+Uc+FukCTs1s/ecizNMYJFpvmEf+2Wefvfab3/zmr5hbTh96viw4FOZIB/OyQA4YGRWOdbxPIyimMsECK9DQgwxAYyGdJRr6E+VTKbQZpEfBTtpnMtSRbpYCnu4jpF5u5zvLAi9pdHnNU/h+ABM7N8CkH6YbAs/5ktSxaGtwzRvICYLABkGg0AI974s2X2YsDFZotFu/+eablxggR5pIjM9CqY0RF2sKcEQobycjHKOWYYFIWtEqT33L+3jkqV1ymyQIUDOHi6mVqVtgfHsTPvOTFJa5CnNo4gZYuEIQ2JMU3tTAyaWOoil3GGwG4T7Gcqgsi8pmZUIVzOBOCne6kND2Ngja7ZzXrElAzn8Kefytke9wLoPOjT2IaKqYc4/NfIiC/dVXX/0MZvj+jRJXkws+cu3mQKDQAl03VJHSVY4o3x/Rv3fo0KFLWET8paalQ3jbmGuOYhVPIar9AEyJlboBJjcuKQQozCmkGMH+X/7Lf/l/sThPPoQ5QaBZHSb0B4hBOffGG298yABTlrGlqV2rw5ALxwP97PyMoP1jfDfpJiOnPFPrYCr/Ceb7SQj5bbkWCOLmHpg4kX//JvnpWXud6wGeO5FraeCSmizS2E2LwIYR6Nyhs1wndv47uFCwkAMXkVIZWU37qgNhzquMWIYwbymVtks79UeA5DDUyCGsfspgSWxg63MJfqNWTo0bGSK3nn322a9RxvQ6ypfeoyCnNq6HqVqrdc7NQRTm+AkGsYKvfZIMcNjAHmQAKKqv9SKILqcofW4MmNL6L//yL/+OmwdwwX+BDf54qW3w9Z9V8oSNhsCGEehLctN3MOoXPr/xUhLorBuPiN0emgwRC7AfC1DaJkguzvR95ivQaKNN8lLvD9wwdmiw3TSzw630AtI1WxHhnTX9L0zQMZjXp1m1EGxrn7/55psfsmwpa9IXCistCp1kUEMo2XoHG4ubdJdh08I0TSW/HP3Oen2CGb/y22+/fQH3dCOYbwqbhwCeNVeo/slzBIH1QCDrF6YQjaWQWnqsFRxGXyJ25p3Ylb8DbeM2XuqbCN5ZKPa66WS+g2WhlfSu0FC2YrFOS5gTH37YP5hN49B6bMzRzfLIhn89y0fJZekiQLZACLgeCPIXGSiJn7difmf13nKuYPMXR+3xUWrHf//3f/9/79+//xoi16ehvSoFzNfjYLDdwYMHL7PoCr//8Ic//JwBrngnurFJzSrOQ4utqWRuPoL8PLj3CO7l3kjkU+sxVvLM4kYgq4WhUF3CQuNDgNsMg2pghqugn3w1M2OC+xnm6ibQX77AyFyksHyF9hZ1Khuj2hHotA8a2FvwoW9LF18shF74PgfoXmCkMwOMgFOxjKlsENIdyBTncWPHlCzM5ec++OCDn2CzStpTS7a3xfswS74GELB8CzP3aQjPKzB507+ci4882+Y8vg6bCfrYfehv+MSJE+fg9/Zi0zGG3PpXuMGFu8GWzUOwbpB8qpPR79jg32FUPrT+Pj3cCdm0T64RBPKNQLEs/kn7BYE119vb+4BRq6B6bIXQOpCO3xALgw2BNs8wTxbRug+g5Uyv96KVauBYTAOBTl3QSI7B3H4MwTxrpvJQ0+LmBYveOE2mTNNBWcy9rHGNv5nXsmTkexLJ/fRBgFX2MDf2woX0EoT6Cfzbmc2TMPcNrEgIs/aN119//UPOGfrMScZSTKxqaA+tBP38oFRwkEF53OSyUhxpjzOd11wruMGFu2I378N0O1oDcH9JZctmIsk1RY9AUQt0vMAmLEQLYH/6GgQVHSwdit26c60Xm2ZnaKvNzNFlsA1eYmr5g9gYFJXWSHMiU224YLP4CoR7Wgs2feYk/sBm5xGikj9AEY49XLRyjRIuotlaVOO0HrhwbmD+dvz+97//BeMqWCM8m3Zw8wc/8gJM7GffeuutP7/77ru/o1+52IT50r6x79i8X6LwZTsh3N+4cuXKftZ4X+vdT4YRN0IIuHua6azc1CBexQNXHH3qcggCGwqBohboQNqMFzq8a9euWwhsmYQP8T7NjjC9O1YbBb70pJpknutXX331KtNXaMLDNfnln8xhKjCqnQQhWpra09Cwd0OgpzUe8JkvwnR698iRIxdgSrxL64X4BnMYjCK7lFYbjGkdKY1ZBxyb2VZyFGTTTJivg7BS3X/ttdc+QjT7Nx0dHcPZ3KeQ12hz2Y334y42IR/Qv09aV3K3Iy1t1Xc/WTu5wcfGuRob3930zbPsMjb4DzVTfyG7Js8SBHRFIC0BomsLVr+5if5h+vko0JlewzQUCPRd6bQJL385yWbgZ+5D3fTzxZSPypxiLNSdXGCQhrQXvtKqdPrEcxgNzMUZvtBT0DrmGBCHX2fL0JbuY+W8AiGgFVw5gg3sCwgM28pa5tk8mto5SWJQXvgcUrc+I/NbNvdZr2s0Lfo0gkWDjHoHO54Z3zvYnkw09YSbDu9bN6xhrzA1D2Q5o7hNyZFPrddYyHNLA4Gsdv0F7JrSPry8Rr6EP/7xj/+AqNxLMMMHaHJe62DUO4R/3eXLl48zvxtaT9ta1xTi7zQpUuNABO5TMKn+EtpDWjnnXKCxyMWQYvQAwX5fgqTje8QJ+DVTOwV6sY9nIeAt6WdAczSTJhUBYa8i7ep5FjbJpkOwbMUZg0KXzF/91V/9L2jmgxo3Qza3W7dr+K6wRsPPf/7z3yCQ7xQ29jPoW1YuGbxntSxmQxcGN0pMB1y3jsmDBQEdECgZAQAz2RyE+VUyTcEPdpdUlWvhwV08XloLzNkHsEC+jojZnmxNl2s9K5O/06QK82E3NhqHYVY9wMIV6VxPgQ6/+UONCOQai2VQO99AvvN0YNjQ52ADWktqVJLHgJegFXNl7Z1rEkRI4frKK698jo3f12R+o1WnWANDVxtQmt9phdq3b981ZqywmhrS0NzZTAJGvbM6IwNIiTFplrO5j1wjCBQrAsVuck/gtsgIWGjcbviNLyISvBHm9GoIwu61TG/U0iE8G8hChc3ABQpELJKT8ENnnbCdy2Ay55xlL6mdY9E+iH6kRe+q5ZuHDx8+fOHtt99+j4UncmmHXFt8CMCdZEHwVxe0yJN0xzBdM9NWapXSort3776BPPP/B4LwOoS5N9P7FNP53LRiI+6jMCePPLBpx3tTQbfVWu//8n5A4zez7gOCZQ9xLcH6MFtMkf7FhLu0pfQQKHYN/QnTGl9mCmSa3hjhjZ16gBHfqx184SnUmdJFLZ2md/jhatdrqJhPj+CcXaB3fZfR6em2A26GGIpl3McCfZUYsNpVuteW0HlZmVJLqH8pm8oiJkxTu3Pnzm4SyFCTzKZfcMFEMT/6ac2CZn6VNK7Z3KfYroF1IcZYGmrqiB05jaDQvmz42RkgR3M7c9NpsWM1OPwuK/KaYsNI2iMIlJRAp/mN3M+MeoemehHRu4/S8aVzmJHu5mAFM9LCkoAF2lDB+06GLzy7DZr5fpjbD4LysjrdKQh/6BRN7YxsZ03qhPlUzO3pIljc51Ebx3xoYmlRfLZgvmbl38VGz0tyFgSBXmCVNI1itbg7n2brmEuPIL8haOqn6EZg/Eialz4+Tav5YKEwB5nTfhDPdECgZ2wJyfS5cr4gUAgECmlyz8sumIE9TEN78cUXP4fJvQp+xk76oNcqIamxRtXR1MbcdNJd4ndDhcxNZ/Qyo9oRtXsS2lhawpwWCKbXIBDuITi33+dCZrVaiyb9rhCTdDM8AylaLvp1aQ5GVHtafATLcaEWS1pXEsfAvXRZ2+xtKKsHLVPsGwUytOyj2CR3pJvuuRQv4F0F8qmnSTeLTcIA/lay7xTdeNwQ0gXBWvSJD3+XYg4oazHTAbmekg6Y3/w32fS0z4aZN1SkiAVxIUbY1BkZaE1aZf7MT7I1hhZhfvheESOeQ2yAU3gJTvzbYrGkDRdSoGezLicm1ePNAIFjaVSa3lhfmbm6WAj3IJhoVY0m4WuD/3oLiSqYBseiDWhUQQgmSG6BzUcH6SxBInMSC0paGhi0kPi2bdvuUjtnNSxo6u5VgMzLpimbgZJrckOAm1OagUkBzKDJbO6GQLhx+szhP7/F4kRaOmM2tyraayh42DcWlkFfb2DzU451oCHTBrN6HQT6cbixbiJ48DNcn7cUtkz557MVBnwON4Kw+tXR8kcLD7N60LdK1p+H9aGdSkQybCiQkPkwRDcGue5p+aRFh2uipuz4SjlPn9gQV7hUXNj8KdggNbiRtODEjFlGxIjpkJhDrO63Qqhzg0MrEDEhwRlxpNzAezbKQM3EB/jN408ZW4synbPpnF/sAj1pHwA0A9rGIcyvPPfcc1+zUhkmspKfutaBAXTR9A4heYeLAnZvfdB4ySWt20ESGRTV6ERg3jNo8xEsQI3pPowmVMYMMMKXL1+618l5pYEAFx5qUbDc1NN6xIIkTF3LtPXUJMjTjpzz8yxEslGZ0LhIM0AOfX1APnps0DuzEehY0A3YYLeDqGobF3usA/NYB3IKlGUGDd7zHSgus5MCM50xpOaHjcUkU/PIZJdOG5huh8DgBlj6mukyAAZdzJpBumMrBRYEegW+6/H7ttVccrDmUIhP4Llu1r3AvBnCv0eYIcE0YShKk2TrY7tKIUOC6yzjUFjXAu9SHZSn6j//+c8txIduVqYtA6MWCnQIcTvGvQHBlVWrBVZS1gCbKQhtLwNOufFhQDKsxJPc+JCFlAIfBGZTrEHAbBJukPhNUrR05kA+z8l44cjh4dmYcFJewyAi7LCGmWeLF7MbwUS9+B3NKqs2kaZ3vsA0e4Nwpp/8zriAJBO6HNou2ska7b/5zW/+Bi9aezoP0qLaYwliEFbF0tqazuVyTokgQDMgFyEuzFhwmlkLPNOmc65wwSVrIH3nmsaQ6W1K5nz2FRvzIdZRhzA8CYrcvXjPaD5Nuw+Jc7EWMI1tNxdgCOTRbALtEg8l6RUEyI/+83/+z/8f7T5L168VaxmFLQR4CC6Sr/7dv/t3/4OBjLiXJ1UnWE0RAqgG/e2iYgBL37NY93Zy3oAW1472s9qihdomzcmJmg+p7of1sxHCv4GbD83kTv78MIUULBd3kR58nW0i7z/wHicNbzHGZJASWGMSrIPLagsw2cXURNRB2IfNXjOtFEvwWWpyB0RqXYxkh1aS2ow1uwVYNfMcshXSZUucsBmj+T2iWTimWHeEtUO4sYbCeB+B2HTpRugi5XchLB6FFOhpv2zpnEhzIl4gN7mZGSBHWkeAzWCiVQNcOHjYoVkRlHaUnNYwT97UU6CzYhapWZlXTJ8fXsq0c18xQfrI8EW/OaOVddwlZ7PZSmeYMjmnGNqQSXvzci59epgfLTALcu6mzRa49OFYKAzQDjzMfqBbZjNs/NDfBWa6IED2JlL9DkHzasumfjpTYLn4U+PXLGBZa+kU0NScsTnLiMAKfbinmX1Tcg6wyh6zY7iBYQouhRbT92CZrKZAy2YyUrnBh246ygF+FDcgNjmN+DQDlz3YNDxDhkEybcL6cwHtfFRMQp19p/ZNhYnlpxmHwn9DmDbgU8+iPtlgw2sSGVKakphwZxKn8qX3hGBvpVKJYNattHYwaBnujAG+j5QvfCfp3sBGazZb90q6fSh2gb7qIo+dD+ZjZIaTjROQdZSxKK75MnGAMOi1DFAjuQtMMqP0y2EHmvXLnApwTKpGvBRPc1dHc386A8OdIXw2QeyMr8G/9ykXrjSE+aYUiOngWcznUKBjMehhuhoWn7Q4CZb3h9olBNI9mm1pIi2EJrDemHJDj3d9HsLwNq1X8JVWA7+MN0QQiA0QlHtJo5yPjJF0Te0J/DhW1KrpNkzGO0AzsmZe3wYT8stkEGRVxmwsOemOmZbmW4O1qwbYbOOGiRsIMhgygwJa7731LrvLQECu+djg9GINPwKT9yvA5SiLcqXbz3ydR2sPY6LwacFmTkk3xXr9DGMSyHXAeC9YPO5Ae38IWTNCCwh4UEIMtstXGxL3KXaBvmZ/6YOC4LvBkqmsrsbdJXez6Zjf8DI3JcoqIoL8Azxses0HpnkCTe1sE4T51n/7t3/7BTX0NC81YAccwwL9CJr5ZaboUftK91o5r7QQoJmWBXrISUDfXjatx+I6jliSb+j3pGKRzT1K8RqaibmJIYkOhM5BVi7MtB/kpEDcwhYIzXpurnA9S7gW7GBFSfh8a6lV0vWCB08mHo754IDwrKVC8N57771LpYD13bG+ZeyWybZDVC7QvhrGHcEC2kXLJlwEn+HzJTZQQ3QZ5OKmyLRdjFOgeR3vTDu4/V+nIEebDmAtb+T7w6ygdNb+TJ+b6fncHJLSG7VEXgR2JxhAB2vyTWyIvjt58uR31NrRl7l8C/VSEegpFymNRWqaO3UGyWBg6xEpvDudQcVEdZEvGzumaZq1IYBZVjIvWjp9ozTDYJNxAMJ8H4NU0p0U9MmwZCwG/nSapvYEPptmMU8Xy2I/j0KEAU3UhLBAZhXdzvlLSmQEOY0n0muKvd/5aB8DlhAHM0CTMDSerLJVgLkRQlMJJiPpE95b1ohP3xmfh45wDlBIc81I3I6mZLhhOj7++OO3kJXzGqvu0YyMDWBWVMDZNjNRuRLPdWC93ELhTqzoq4Y78HMIqLO4d8EUDm56Tp8+/SwFObNC4Cffw0p62fZPr+to5aB1BeNKq1sl5lgTLQrMzGLw4uuvv/4h5NV3+FteCcJKRaCvijt3OZhoMy+88MIX3Glruenlawl1vDQGTM5qCN1DNL9TkOLlGsh1x8mAPZpguDMD69eLDD4hQ9VaB3eX2FDE6HthVDt3dKVYUGOtfqb4+6ZLuWPgEhbGKpoyMUcy1i4TOLIcKINwaMrbTDSmFOikcaZ/krUe2HctayDtKciFF+b6SrrGyKNPLHFxLtHJGW2qKTC1gD5TwuSPPlnpj6WJ/de//vVfQTM/wMCutdaztDudw4kQSrXA6xlYNXoxZ+vZZszfK4z41tPVw1xyuh4QP3Dwt7/97a9gWX2FylsuPvIcYMjqUrS/mqRi9KMzgA7m+O9FoKeAkoQT9KVhV9uLHdxzmADbIFTT2s0iuKQH5ps3mbrBPEM8IqecQuYRczdGCk9MwKfTzTlncBMIZAaOHz9+lloHX5I0fOdZTS65aP0RoLaBudfBXNhsWsMNIDd8nCfMjU3kymZzr1K9hnE0NGfC3TAKIegBllVrZbos7ysFKlOdqAxwc5CjQM8YSviDrSQToqbOSHYGSUJgvQFh/itqoFg/nJly1mfciAwuQBtNaGM7OTVo/qZrEdbEs2i/LusVzewYmzqm/QKTv0bw21Fugqk4ZdDsojiVmVisJ5CKzCbXRm4IDZ0gUEvHwM/QdA5zxkfvv/++DYEcPekARO2IEZIQojfhk+vDBL2Xi+mdZhVq5/SLYuKnTXoBgR5ExP75V1999WPmEmcozDPSDDRceE0216UDq5yzCgJcpDA3KjhXoPFQO8/YQgFhtggz+5gmzL0ZzpcNMT7UdqAterERfsTgNuZgZ7rQU8skIQs1wGwK4uQCpJZ1U04LAYU658Mnn3zyxkcfffQOtTls+tIioMqlDZlemzDDM7+bmxC6eei/xrr1GbBnBci8rim0TnA9hfvhbShrT5MgphiqZmaKG89nnhzjEvjR49gwAl0Di6aMR8xNp48H2no7I0jX2rFDgJexGAapIBGZOKqZ3TLOTedCQlIQTLzdH3744Y8RwLJmNTit3Qb4AONYlPoZNMFcYlgc8sZcpcfEkXvmjAD9a3bkFdfhOyuqV8yZMOcM6Us3k+98OfLAIUj6VlrYINy7qPFmMjr0XTN9jemlDFLM5Np8nEv/OS16LBrDNQS57D9DkN9hzo983F+ve9CNyHRB+viBm43pWgcPHryST02dDJt0P8CC+gaE+TNa8GLJaeZLxoCSnJ+8bnoS999QAl0LkJsl9SVTvrjDxUvahd3jmnOavhiUNH2a5AnMbcfLNIWFIqOIV+7u6Ydjmgd22G8wlWbNB+MEmk5h6mP96s9YfCXNQLh0bp3JObpMsEwasNnO5Xzhoo0FMCshwghjCnMyVW1mgc53lsKcwYHZ4EC/OzVjBCf2rJMQLSMHAQpHvYQNnrJ+QHDVrKWIrPf7Qk2dcUgQ6k1M/0W2xY+JP2iqv0XbQrm2j8oRhHkXtXNG+mPD04PnbQSZpdtauxHAeWLe0OwI4TyDKPFvuev+4x//+BcQ6HVrTS4GnMD0zvKVu5geQl86dp39mdDCkhsYL+WLCLA7xgCItZ6Z0M6hjQeRxnAbgXBfpplzns6t1+sc3SbrenVIj+fSzMvSnRAk7TkQylCQjbNYUTaCTI9+rcc9ycLFoDjEEHizIe7QKrBVwP9evTTSvBB9oVDEPChnUR5G2zOugqb/TIQ5FQK4XqbIQUCyrAQWS9tP4hqsiy4GANJkTbZM/M6aD98824q2d9JVwMBMWEsGce+BXAloOBbMEoLF8x1utrIl0EngAMKlMDNB+M5wfWdbGXvFDSGpk5ONN99TcuMTO272+M4yG4Kyhes9FLiKQsyTdJ9RaIFO0DJxHmQlHBgow4pMHAQWu8Cut5KTIZ0oUeYzIpXtRfIX04SE9rrTAZP8yhDkvTS1I5Al7Zxz+kFpNoXv/xJZhfjcdJ5X5OdkNW5F3qe8No8LBRcGmnm1/OOM7w+LFAPCuIjPb2aBzsBAYkCBno1vUvNjU9ixNnpB10Q+GwLDDKWjlUKF82K1jJiE/xXWw0XwU8xDSHkpnFiXgm4HxlTQbaitXY/nFPtG7Z+pb3RHglFtFyljuXmgJRHrI6u0ZTwHExeg/Rby4pOOFtbGQVTDjELDHsg28l0LhGMG0gEWs+KmJ5vGQVgbkL3kxntC9rYh4HSLFMlUnBinlBDqqd4fBq8xTY+Uu3xPKcT5b8YPkBCKtQSILd0mdJ1BDpSTsXANWZMwu2fTpVWvKejkzXvrU9yQAXIMziBDD6lTySAFwb6L5qG1DgxYJYTy23xZuCnANQtrBcjRNISBbYUg30t6V/jOW9d6TuLvrObDfHOYqb7hy4hnZWTm1+4jAjRdwIvoPI1akulKWfkEySXN/GtyRafSMIqou7o1hf2nlYLaKXDIOIeciy83/RRw6+FD5/M1AbCmssM5ww+E0QCtkGTJZEYMXQ4sDkJtkx+6Y5YCTm2XsQWMSGeQGQUUTfs0ZUOBeYGFXBiBne0gJfrA9F/cg8Ga4xqV7tr+ziQPZeYHCt1s14rn1GX7jkCYz8Hy+TWtn6xEyABSpidjI+TD2htg6uNaVh3g5k6Up2WsAOcIMeSHwYAa7et2tHcnNyD47M4Wx1yvK3aBnrWgoj8dqSiTpHTEZO1hFStM5jUZlshvjMleztx0pGW8BL92HLvFh6vlpnNXTz8PzO0vkzQAz1lzgaaZjCYg5A8/QBu/ZRGEzcDBneuE3SjXUxOjGZTR1dkSylAzZQAnF/JsBNlGwZKLMrQmLxfobDY2FJDUipluWmiTeyZjAPNwlDETWCsuI/jsEsmEqJlTI8faEczkXowb4CZIqwc/SB84udsZS4D5mLVgh8Zfxftws0CNGMLvdjoV5JZtPsogyOsoHFkhLZsUL8wFAzKWHkBZOvPaa699xJxv9hVWnIxTkjUrQ8J8sSJYGXPvIccBKaiXMSbf02XL2gz4dxdTEBl0vaR/mVqpMxlWhZB/wx70j5A6FTuzyxC4x/HCbsFnTWFLQLDr2vrBBx/8NOFzwa+SRp1zEcCANrCIAfMkU9UfXg4yFmMDWK6GGdVOYU6/zjqkHWW9Ydqwk6ZAHUv40LEBbIApLyuGOMyXCP2m9JnmSoZUoG7r9hhopUHNUpGxhp5oVDabAd06tOTGUE4Sm//7YBf79t133/0tBQg3c9TGM+WP562plUJ5GWQALu/FIGLmlXMdQyDaNi1YM6vuwYVQQ4pYUhGzoiVu4s3kRtTGGVwMt8BuWEybMrk2UT0N1oExZju99dZb79PSSqz0IunSYhfmoZzdI9c93A1fov+HGGQNi8VxmuVpjscGPiFvN63JPac8aZreYRKZQZWgc+RARoDcz6Gpr1m8hROIQW3ctXKnyZJ4GJD7TBNaPrlIDMIKSORqp8mOGn46B17CMF4i5sx/yB12HoR5sQnnNc2H6eC0kc+hGY9pOdn6LrmQk0yGmulGximdvlEYF6tATqf9q50DYeSFUnLjnXfe+QNdiCzPiXH35UpRq2meC5iHAZqhEcvTxyIi5EhncC8Ec1bplKw1TmHGzQKFG+7vz8SXntjsUssl1Wwm+FGg05LBvoBv/nOW2MW//blitVobND52avCUD9Dp/B4WZuFGApaGT1Dq9igr5EFz38fqm3RP5KMQULI2FUpDX7fFnTtY0mJiYn0OcLdDm67jhFuLipWCmTmPLEpA3zZ9VJTzCRCZL8pBQXraDgbCMUAC5qU1tX9OOJjHYtgk9MEMdJ5mM5pMM5m0cu7GQIDzJ1cTL7WObDS0jYHgxu6FVhZ3AWRTlyDM/0gBxTrltESs5ffNBBlN2E5jXVTcFswaYOYFlRS6HzONhOfaCeWmkaVMWceCcxRH2hZILfK/guVh0Y6MguHoyqSCxII9DHzDRqXgfB6spEbLLoMV6XaglQLWiiHIoSNQLLu4eWKMgx4b0EIJ9EzmV17P1QLkpig4EUByjtGJ0NK3ITJxzb6zEAIZ5DAA8whAOYV/zyXS2MjDzRQQBsKhUMAL5GtPp+GccNgczLCQDHPOuZPLY8WdYtPS04FEzhEEBIEkCNAvDpfhHcTxfPLzn//8N1QqmMGjF1hMM8Mad4/3p8mbAWAwGR8kj3omz9SCPSnU20B//QIzEMiVgHuk7Q5hRDkq0LFgTkbPpuuJChiE510Kzkzana9zl2y2GJw9w/6zuhrrcyC+YC8VSwZwYiO+doGPDBuVEVgZ3jsfp+dFQCVqJzP4jCkHDFRIh/SFplCa3lmrmiYo7qiw+7yDHWycwUys1EZzCnmGMenTskLAYhDGju0BC8nQcpBHYZ4PvOUegoAgsM4I0IrHNQZa3SDN7Azqgk94Uk9hnugyA9ggRPvhe/6AaZXQ0KuhBHUzFStTWLAuNjNQmKlicHteyOR6zXpFK2gml/FcUqvS/ZL25iHTB2Ryvmbqpyk+DPdviOmEcJ9c1VxlGQUypvPcjAcpnZuuco6uEX6rtY2md5ZYRRDSafjFj2CyHiCxwlq56fw7rulg8RaaxmlKwcAEYErqQgGFN2mW4g42nYmHl5Q554OIUL3IIBT6mHLEM9fLM35b0nxgWpubNO8lpwkCmwoBWvGQUz5EKx7TWZk3TTN4oUBgJDhM3ff4bKx9LVgrSaySlgVyaRuhNDnBr7+TaV3whVflkxI2FRZcr8mLzyJdJArCeYOM6M+niyLbcaA7gzTFlCHcdOjh1y+0QM8Gi7wIB2rG0LjH4Y/6Hpr6N5xg0Ly3cbDXahRz08FX/CpyGIdhtr/IzQGu3QlT+4sgaehJR5jzGfStYKf6HV8U+lQyTTVZq53yd0FAECh9BLjYMy3tL/7iL37DEsoM6iq0QKLwoe+epm+kj+2H7zdjgU7eDyg7LpjO22kVZe43RiervPR0R5X+e5i0e0Ekc5wR7mjDHazPNG3rpbyk2zQls0DvdpSCQE8bsLVO5I4IZqBJEjIwRxATrTWdoA8G0LHqEfzl+997772f0ZxDMzzM7mlRNNKExuIrJDVgXjxSG85u4FKXa26QVhmnXK5da/jl74JA0SPAgFls9gdIikW/K6yCnkILc4LEQDkIw2kG4bE0KrTdWtIUI9sno3eUyg5oZluQCredbgMoUGtuTrRIdR/Wy3FsCCpgEU1bTvF5FOoMUv7nf/7nv6OWDvfm13juxHrgWOgJlzZQhW7YsudlNIlWaysDJWDuvo4guYsUypig29fyDyU0cATT7UBUexnrJ2uEIK50cKEJDZNzjH4klnfFCzuSznVyzsZGQDO7Zc23qdGEkhbRBKSKwme4sUdM/94xABdrxFWuUeSmyJSUJZ8tJGslhPFoIu2XCkw2xWtgAm+CQN/BTYqWLbSmtkz3JmKNhqBwNUOgZ5S6RgwYpPzFF1+8ik2JncQ0LNgFK8M0ORtoKd2osUulItDzNk8ZWAJte4KUidDSOzHwNQj6aEnnAfAn1eH8k1oU56qcy0vvx5xzbCDO//KXv/xfJFtI51lyzsZHgH5RmjapOaTj+lmOCDeWZJsjnSf+VjAf68YfmfXrIYKmpuA7P0U6V6anrV9L1CeTnIubC3K/k28Dv8q4pCsFOiO7yXmeTn+40aVAJzc9lKjtuCZjgQ7NXqkCh8IubyKyfDesDN9BU/8SFtLTVK5wz6w30un0Yb3O2XQCnUAzMIE7Nuz+PmfxFuamk593rQA5mt7xychaQJID5iJqaXMXuENcr8FO8tw1d8pF1NYN1RQuWnS7sEoW/IudCELKmC0Oc9HCYhHkvQY4Bc+3LZYBIScEFm8Gbjmz4fzWospjECILeWATy2h9SGCYYDgjHSsFKGNs9AiaynTMGC8ETXkAZDb3GMRLBYjZP+nGDfF5WF+bsSHYwapl6RCq8N0gDixYRRpZXNudabsTqXN4pgsBctuwvtupwCHu6WVQwvb9z//5P/u4LtMKwiA10m5nWUcj06bpev6mFOiauWUCAW3kQ/4eppgODna6tLDpjghfUgRnuJFvfhH0rle0nWG6l5fyeVktalqHc7m2ZDDjokXtHAvXDBaTUDYCHQurmRW0uFDCb2hkqlPJAJDHhrKWAn2lTLNKR2AsfzRdYjB1+0DhSQrdvOcGp9NV0rti879AQQ6B04885aIgmyJPPto/hYyeAQjAYfjRO4D1mjUxlvaZ1eRIEsMx0orfrMpsyI0MNg4U6FdJRQvLwBGMMXn204HyiXMo2OmDh8m/hx+uyeD+GIdCdwdZTzcQp3AHBDQPmSePjYMH72RQK24TTtAJ04JWKv73TSnQEyNOfl9GQtJs+Zvf/OavIdArM54xq1zAknwoCDBITmFGq+bz3hv0XptCmC8Zu0R/s7KU0OSeqP6kaaabVqAzGpvlkrMp5MFFntq5nnzfa72v1A4hXB6y9kQxFmli/jTWsOuoS94LAd2dqXBlnAfTyci+CeFMqutVpTPJWMjTQcsmYp32sJJZphuJpZgnLAr8RjuawQBaB+vsflhrfXBtBOnbZ9lXbqaQWvyINd1ZzIXEXxiPAObVY/dHMQv3TS3QOVAsjAINvR0EMcch2PdgUbBmYk5K9aJyx42dH03t32OneVkrJbjWey1/3yQIaH5Ccj6P0l8Ik3FVpl3HwmhlcCZTMLPRTDN9XrGeT60PGl096UqzeXepocNSMstFvZD53kvxZGwPTcEUJtQQiw1rRttT4GHTM4u524X2ZbT55uYTmjI3XXSLrHktBT7Gdf748ePnML8V6wvGd+tabtF0cKN/HR8L7luL8/kx0ErL3HVsHqZI2co66dzE8JvR+fh5mm4AFmLBeXM8J5vKbem0L5dzSkGgZ6W9pAMKox1pTgK94TXkXF4g3SEGq2stnve17s0dP0w3YeaSMk2Nu71iHPy1+pHD33WrJpRDm4rqUgp0aiHwT/aRBhKNa8+0gTCz20ivSWGWjWaa6fOK9XwWuaH2R/dDNsGFtKRpC/fEeglTbCTC2NyNQCscWV7LvBhwp3uIQgyCfV7jIF9TKC/TkMsYvMlPOgKd19L9QQ2dYwICr/2sTAgtvSofQn05pths2PFphWugdenfEhlK2Gj1M40QNTjuY+P1SCMpG6VLguPFjSA3ZeutvZeCQCe+ugl13pxBHz/5yU9+j0WhAT6iJgj0jCM5l+22uUBMg0Dma3LAa4QKxfBeFqINGb3oyxqUy7WF6Ften8GFisIcG8uMazSzISzdi3zbXlqYci3ykteOFfhmTKUioxkEel02GxvySmDD7WHK2HoVuoEgUCrnaRzfmTuLdcacgcTEB9/0f2e8HlNDZ+2LTOIctBKvUa7Pf/d3f/ePwMf7b//2b3+Be7iyscRkAxGfgw1zCywL1az+hrX8Oa7n1NgZVIc8/dsIGHygmer7IDvcGvXsuvjdS0WgZzMWaV9DTQmRpTeYyoY0ia2gK9yFRSIrbKidM8+c92LeJVMvMikdmHajk59YLAKxWNqRI5z6XZ4IiuPCAO0nK/Ysmg2RcqmwcG1mgc4YGAa1Ipq6kYIj01HTrCVzHIv1CopjbXuY/Mc0zvZ1T1dbjiEFOk3QFGaahp4RzBwXmMxpOi/PZNNFDRjHHDk8uHFj6hssqscw75Uy2HoLdt4f84sfByy4DAZUGPNYCY/zBSb6XQxkpDuCZW25+aDfnSRisBxNc4NYSK09K6GV0UiWwMmcNBiwafprsDi2UlOH1tOcTdNpvkPwyLV33333N6yjXkBhnk1z5Zp1QiCRtkYzJqKbGdGccZ0DrUxlEwUZzc7r1JV1fyz9stCeevDukrkxY4GeMLlzLNYr95sCnVXCYHIfXXdAkzRAy8iYYiR+Nu2jEKeGzk8mAp3P0ipmjqPq3Of0Y//jP/7jf/jggw/ewppdDhO+RQ8T/Fp95LsHq1A9Pzj3GBU5bMimwB9wl9Te/DA+i1YX1psvlBwQga6NHH0gGIw7YEY6c/bs2acZjYnJklbRlcTgk94VaWozLLyCAT2Fn2fXmhjy982JAHftED5+5sAy4CiRh5wJGlzImIPNwDiWBYYGFF6P+s+ZtDnf57JeNkp0tmATXg/tz0EcMz347mvCdGS9fOjZaL2Z9jOX85lKBitIgBuebDDGs3FZWcam+kSb+Xysx4ol9T/+x//4/6MFlJXcrl69egAU3m0QmsparbfGvhqG8O83gB7cybz706dPPwe/+0Oy7LH+B+bpHZL0oB9ZY5DO+IlA11DiLp2LKycMNPXvmNsL83sva6KnAyTPQQToPHjazzGQQ+hd00Vt857HRQo7fA9zYJl3zKpWmQRkJhYv+o5ZLIhpV0AzKw2qFEeBLgcImUZuZrTKWhkv6NA8WT97nAQjxK8YyFyKdSzojuA6uV7t04hfJli1jT5rugBo6oYQ3Yd0ui6mo8ECQKrXgjeR7yJcAvy40A66bbdis7GfNUNg7e3kBoSpy3jHR2jt0Euwi0D/QaArOydo5mMwl/+OJkxo64ycTSsVhgsBI5Z/8Ytf/G8SyRR8RskDSxIBaoeMs2AOMvNtsZG0ZtoRUmtevHjxOLMpMG8HC2Xey7Sd+T6f7yiLcDBHmQtpNvfHZmoW2ShXKdTXU1ih7bpqbtlgU6zX0ATPXPaf/exnvwdN7ncQ6Hugrb8EApqnWP2SZn2SDfGTKatdPvvMiPxvv/32xcuXLx8Gr/wraO/v3nzzzQ9ZGhdt866Vi59NW0SgL0ONOcFkKMLE2ALygadg5tkFH51lNVMOBmYRvq9x+s5J27gOOeeyGGQz+4vgGgp08BU8AnPVTezkaTZX8mIzOViIAoFCx8FXfUbzTxZdlHQm/Un3XOafMygJm5mTWMQzzuPnc+giA4HJXaat5WISTrfNG+S8dV9vNGHogx99mEQ8TPdjFU2u24xGZ045f4b5u4GBeBDsii9mKcGMnmORMP+zOh3maRU09n0MrCOnPYT6BzTDQ7aM5ZtuVgT6slFl3XT8KgzKwZvwf5wlqQG0gI7EhEg2CbizR0T7FS6oTGVAIMSq1IZ6TiS5d2khQIEOX1sfaSjhC34Orc9YoGMTUAHBtgOm506anqG5zmx0GljGDmADVAm6zp1g/NqNTXdGdKSJWYKYg1lEJ9+l+XadNfSinrjEGwKyHAKKOGcs0JkayPRMpr3lc+ME8zW5RFhsZQxtvAyrahMDJCFAd3OzB1N8N33aJB0ikyDdWkydw8eSKdtdtgNEFwBZ7q5cuULXQA8rwDF4k9YFvKtj+bSoFVKgZx6tki2CebiO6Qdvv/32+yTuwCRpAOmAI5mWjsFY5O6elXxefPHFLzdZznkekN7ct6Bfkiku5JNmLnQ2wXFkvoJrqJoVsWB+3AuSpO+BqmcjI0t2PGpgXLARFFiRaaAWz2fuN0zuE9DQ72kaeuGdryUySNRymRrIQkDpEsMs7RpcklEWdyHOeuX6J4q6MF+eAc604OC9qAG3SCs+bWw/BSo1eChpLIhUQaIbCFcKdzNT66i4UdDr5YdnEOeHH374DrV14kChrm1I8jITCinQ89LgQt2EFH9MOyB1KwZ/CxbL7Rh84/LnQ/APIhDuDM67zHxE7ECljKW6g894F1+osS2m52h5tvMsq8v8VRSQ2E7CmEy0By4+DN6ERrIb5udjSJd8uJEFOiOa8T62Mh8ZEc4dHM9Mo5uh2cXgGhsFMcgdmmtpttUrUKmY5lu2baFwpGbL2gHZCHRaP4C5nwFh+dTQl/ZHy/fm+suPQtaE92gSG+YRuGTu0nrFjSAZQVmlkOyCTFHmN9kW8ft6KnDMcML57Ge2cKW8ju81nlfNTCpGvdMyhPd9Jl8sc8Uu0NdNqyctLIAeg6/jAiMVEY3czIFYPshYEG7++Mc//iOCmu6yalbeZ4DccMMjQH8gfGtTnEPIrNgGLaIzm3xqXnvhwoUTzz///NfQAMZJP7wRwaNWRYa8M2fOPM8FOJs+YjH1Y8N+A66Om0wvxRiIdr4KkBTosFK6KNCzwZvWEOawU4jpJdCTtUvLWqC1ip/hpecwzREbwnZ+SM5EDhJafZg1QdO9VvDHiXfJBXN9Oc302fQ92TWQKc0o5foSC95wM09lEOfl/L4Wu0DPF35Z3YcLLQPkaLaBn+4gBtaOQbVTqGNHZYCJ1E1zHaPaJec8K4jlIg0BBmPSVE5Bxc0jhFbGPmFoFrWsO33t2rX9mI9zuPW9jQYwcLFiwW0htzesEYewyWYt+IwP4O1GAOtVBiTqZQLOuFFFfAELq9AaAi23Vqvsl1FrSZxDZjXOy2KIVSDnPzbNEQpTsvNhLliZNZFgo6MWT0plZlFgvnVzs8w4FUbQ0zyPc2mez9gytBQ0WAvqEJ3/CtIl56AU/gl/m8gI1CQni0BfBUEKdAzcKALerqPIyjcMZoBg304/Cycm/B/fkpKQu6sNoA3l0xqSz3vlOsdL4noKdFIF0weO9JsT8LVlLNChPRnpK0SKzKtaTvqGE+jUEmlqR3XEI9Ci6tnnTAZY850vkhUOG/ELLNGp1fzO5Dab7lyaqxmhTRN1pgKdmJOwB75tD/nYC6mhpxoozTzPWu/8rAhihmBXKhnS/E7zPP3wTI9kzAY1eNKDk5kwl4lACwEsascwF8chX5ihMpkrTawI9DVGhBGIiJIcefXVVz9mNScEVHRysBHNzoIuf6B2vgGEeS7zUq7NAwLkyiZZBvmgmRPNIDcyFWZ6a2gQ1YyWZ1lWaFSnGIS0UeYntXMIlZZvvvnmRUQMH2IwU6b4sHoWKTrp3mDFLPw8mek9Ntv5jFn46KOPmkheBIFODT0jCGBmj9JXTBpUbp5yFVoZPTzLk/E+0vytRM/zFqSY1TY122Ad2of88hdAHHMQ1rQ2kpAxMDXTg/Sx2JTWElea/Fk+F3M6mEssR8YLRqaN3gjnc1dJ9jemyFAzoD8Jvo8bNJEyTa0I+lgsGnGu7cj1+iIYiuyawEUOG0U/X2q6eaAZsJ5AU6Z34yJBbncsNof+9Kc//eS55577Fve4lel9iu18ChUWoqEg5wc+yLbVUklTtZ9pqWSDhHXtlGbFyHdXM5N2+X56nu9H3Kmhsl44NogtsJBkHCwGk/Y4gw9ZBKsYtPNsIOJGhFZZrvvMgGIQNAX7Z5999gYtRthodvO+mW52eA199DTv853nRhy/otUgq0MEehqwMUAOQI+DUerya6+99jHJOxjMQGGO3afknK/EcNMK5jSmU8pTEiQzzJog+1U2Aj0R8X7r1q29v/71r/+aiyg0i2FuSkmAlEv71uta+jtZr5pMYCif+Ussnlux+clKO6fZFxumS6Ropu9yvfpUKs9lACL5DUjUQk6ObOrNs84710tiXyr9Xt7OJSZ6JcAOm0kW0hmh5YHR+8CmAtaxGgjnjFxAfA7mspOuMsZqkYI4F4wKKdBLdpFPmIigFdzDovhvDOpIlBLMBXy59gkEls4P/lySwieXMaX2wtQ1WoNoeodFaBt9xtnkxEJLr8MC8TSjuJnnTv882ubOpX3rdS1TjRjsB23o9Y8//vh1xrJk0xbEKQRgar/HdFQGsyIrJZjNfXS8pujWSJqTQV16BLFDB7LFnWVh6eKgQC9VDX35mDN6HvStY6gA9xkttszPB7PoSVgxlPKqmRy43sHUOc7zTCvRLX9OIQV6Jn0synNJ6apVxlpk1OZG8U3qAHbRLUw69DHvt+TGES90gJG3LOZAKlhWk2JObKYP4yaAfj+kxrzCoCT6L5F6c6sIhdiqXaPJFybNnf/6r//6N0zJY5ZJplgkzsfGZhjkT5+DZvcWYxayvc9muY7YQ5A3IT3wWWQUHGGWTyZ9T5AkMY6DdQayLb2ayTMLea6W6riAVLcL5I2n2TxLgW5ngaVMa8Un62uxC/SiEgwa764Qx6z+1iTGrKjGrpAvei7PolDHiz2H8rvfamVR2yHQW7O9JxabrVxYmZrDlBws0ufySTWZbbvSuY7V1CBQ9jBq/9NPP32DEcbpXJdEm2JN7SisHvcQU/BNMaaqUTMjfS3G3oXNly+bfubzGggoE4tTaRSqO2HxyTg9kJXsoADNwOfcT8sT/h1MJyCOZn3GgbCCGgNFiz1wEab3YcZTwb3lzmYMmC6Hd7yC7HHZkPYsfWaxC/Rs8JFrShOBTWdiTzVMTPFhqiRThGjGo+8SC70zE/a4xL2hpZvgA+2F7/kXEBhOauq476hGwVm0mJOWE2lCnX/+859/ClP7m/DhdmPBy7gSHXGAIImCPe8uSaJocmdcQTqCpZCvETnSGfcAi8w9CLP7DNgje1gh27D0WRQwzPVntTAI9pZs2oEgsmnWwyANK+MV0s33p0BH3veWP/zhD3/B+hiIJD/FMdN427Npiq7XMGCOREW02mb5oEW6IvLhjhCBnuUIyGWrIpCtdl60AqaQ482FjwsEBNpd+Og+IakHzM4HSWiRaTtoeifDFVNjqAVS6/+bv/mb/6lFvxct3tDM9yFV6m183mHOLzDISpgTL2A5/9Zbb/35jTfe+Ih84sUmzNlGbtoowGh6/cu//Mt/1UowT2c63vk4n5YRbKAamf74wQcfvEVNPZv7QojPIpvgNC0imaSrcZ4iXqkDnOdvMLMIZuy2d95553204VE27dD7Gs4npJ1FsiXMYdEaZgJoG82cGAszXiD0BkfunxMC2S7Q2QrgnBorFydHICFwYGqceOmll76AxtaEKNhmRsLCPJfxWFGoQwM0gSd+B3NpWUCI5j34/JRSv9AEs06TyecYsqIXiTwQxb4NKXc/RQDcm9jU7MCGJCthzpxzBK+6WaoSxZO+YsqRVk0xn83Oy73IOYDx6cH4ksffTMEOoXqG5txCauocA3JtcDP15ZdfvgKzd3umHaSLB5tS5vuP0yrCbKBMtU9akyDUScnaQSwYnAfXyxlo+7cZkJzvsqOZ9nHp+Yw1AKNcOU3n2dwHm50gzfWkxc12U5B4biEFerbCJhuMNuM1GS/0RQZSoqBLqfcjb7DSPE4hxDrPrBR1+vRpO9nRsol6Z6NYXAjXN0NY/ox0lu++++5v6PuDdqjUlF4v3zoXRPr3ITwaGFENzexHLDLDKH8G9mUDKIUKo9qZMYCqiX+i2Rd9DGjc3tncMt1rspq/zF9mm7Fpa3nvvfd+AiFWz3KfMDmfxvgMacVjYnpaFxj0hk1eI+bZs0h5/BUDMrOp/od5ZCD7GTMJ6OJgoatMcadg44dUs+D+OExc6JKApeV9pB1eAT5k5wxQ8+dmQU9cVht4ciGgLVUMiOMmOd1JsvQ8muqZVqoFauYkJwsp0LPpq1xTmghktaiVZlf1a7W2CPqwWJzlYkH6SWiwzAXO6r3VIt/LWPyFaTa8HzYL34Bb4RPNxDujX29S35naGLTTbRTkECbPMxCOXNroc1bCnE+CVhtDMFYfCtV8ydQiVtzKVKgUGgsKdZi7y0DkUgnf9XOs/gVrxQ704QtyE0Aw6pY3zyA4RmjTMvL+++//FG6OPdlmFAD7EObT9/R/03dOCu0ssVRKmdLdAg24izzqrHUArf8c7v0duQRI8rKe40pWN8zXZrqI2L5s+glrQ5CppVpcS0mZ3HPafWQDllyTNgLrLYQZFKLsytfzBU0brQKeyAjh48ePn8fi/jG0WSuKr+zLhhY20WQs3gYIjQoI9SNaOcl6FqGAELnBhUVLz9Q10pp+Wgpt+kqhke4mjSZS7F6muR3mVWe2Vgia2bFARllfniRQjGon+14xmWjTmToYH3LWH8QY1cHl0oLAsFaU3LxJymny0OfLDM8iI4yr+O6777aTuAfZBG/huUchnMrTaefyc6BlLrKN3CjC+nMpX+2kYGekPfA4xpxtWpjIXkdOAVhy+hAbMc16CPl6Xjp9p/WIFi9gdpK4oV0ZMTvS+sEPLRhM66MrId3AwVTty2qnn05n83iObALyCGax3ooLOIUVczHJY56rL2kd+pl0Q8RNCqPWmTaV7UaF10HIjf3sZz/7PXHBwkEqznYI5oxZqZbiQnMhq0hRWDCaHvnZN+Gz/wyRyeexyD/A4hjms7nIaJ+MtYcEsxgDnVgSlvm65GSHlaCeWg1T0mBSPYpFeTvHHoLenK0w1zTzOBm8UOzi9E9/+tPfk92RDHzrMB9yfiQsF6z73gOh0UAqX/TpW2xQvoAb4SI2YpPslzavOD5pjw395NTISYgCK00totkP0GeOmIU3uHlg0ZBsMirYYZraaRJn3AIyCx7kG3taMLD57GZcCQsZ8VncPJDOt6enpw/zdpameM5XYpNvUzyx44fYYTPaAtfQUWKHefw83EauTAYd7TPAdz4HYT7AjTRdQrm2txQEeiYYbdZz11u7zhl3piRplcJeZxCMJtDZr+UMcms9azkWhcBm6TMSG1BYUBeZMuWHgPwOi9t9bFg82Vb2og+VfNgvv/xyOU17n3zyyRtYiHfnmrfKohL4uGDW3E4uaVaSYqoSNNwHXJD5YS4wCsawSEXaQiMxSIkFChpnFU381MBZtYrBbgi+6uHiTM0mG/KcZBOBCyQzA1g4iX5zsJMtrDVhivXvnD/Y/FAzLceGbiffCwixfRBcDxBbcQ3a6WWMzSNyDKAPafeTue7M8caGaj+sPQeZngYT+05y5VPQ54IH5/nrr7/+EXL+H6Sbd77K85Iqc6xXgA2NA3O2B7hUsYY5tVtaZWAVuEjfPQPxOG9x77wGfNKyxBx51vSAMD+OjfAJjMluYpopbtx40DWBjRqLKM3mKsz5fBHomY6CnJ8uAhlZVhiFTZMaTH8vYtHfowlyaqCJD5+7nLRm6TNSCf50Bfpa5yXrT6pnUvBFsSDH4EOcglBxk/4yF6YszQ8Zg/C7g/v+IREIxMh1LGxZ+5oTg8lFkrXFoeDUQCvcBU1rgsKcZCxcKBltDbPiLDcWXIi0gKTI8uhlWiSovWCBqyAPuFZfuvJ3v/tdI6wKnWjvdgpzCPJOLMbljAfIRSNPtB9WENLmjsCvepYChWWNsyX6SHeCF+o8CnbgaABmDfBz19PlwgAx4ggf8iNtbMY4NtRKlwRYcbNmZfwFrSMcD0aL//a3v22li4WaOSl1MS5tmEM5kZrg2TFs+obo26Z2zvTATCPbl+C51ruonEorAqu/YbNYi38uoj97Kdy1TSh/eAA3zhSDS2mOJz4MPKOPHxvrMC1QqeobYGNTRrz44VzmhxkiSONrIXYsyMJ6C7Bw9TIGJNO5oJnapxhnQHcaxyzTeyQ7XwR6PlAs3XtkJHT17Cb9ulx0oCXUY4HhC7pcO9fz8brdGwtbPTTfOqa05KpNs5HcyTMViIsRNgrz//RP//TvsQHqIXa5dIJCgx8KV2o/0Jjpo2zDBuspPouLIYhC3NB8RvAZxOI9ykWSC+PS52qRydVYWLch5agVi20N+l9LohJiQA2HQoaR7dlUpkrWR6ZIUTNH8NjXf/d3f/ePrFan+SMztijkgqGe1xIrCjC6SSBkXBDMByBQttOkTYHFccHccHOcSKLD8WF76B/HJqCDGystJbAHgqmKY4Hf2TgWuWrlfA42U0O0ijDAEhaER3nQzteEc+mc5XoBhaABufPPIhbgOAR3gGlgoFEegWXrLjemNG3T0sSqadzs8V0CDoHlGw/iAXwdrDJHHzmtVtw80ZqBed2D96KVREDktmcMwpoNXXYChTkLfjFQky4hUhHnyzUhAj3T0Sju87MR0GnthjPodtb34wtKwY4jJ99wBm3V/VQGr9Hnlg9hzsZqvtIgzK93+W/6pOmHBt/2iVyFegKMhPBglLkWae7CIlSDxa0NZvMtIKmZp0bB6FzNNfJ43nFxxDVOtK+WPnFoL1Z82H9dsMbCGGVAEbVyEMd8CDP0tXxEC+vS2DzdVDPFU7ArmiHdGRDcLawtwc0XBP0BTeOLUzuHcKrGPOE4OHCePVv/eLLmM0WNmwf4sU/96Ec/+hPxz4cvOBuouBlNzFn0mXOWm+kWCOBupkMy4h6b0HkKe2rqdIcRL24Glj6P7xE3PMSOmjlJf+iOwoahmUGK+H02zXviGrhMbmID9EcK83xyIxRaoGf6VmctHHJGXG6QCwIybhp63I1rRyLPPhdcH19LVimSbNDESvM3TYPwSW9hQCEX7HwL0IQ/FwubHQLEjn41LenbE31KaE5Lv/PS6SWYUiuHhcKHPOc7rG0OYfIehQkpU7WiGfl8ZFHfizjDAmJkmhnGxA7LSKU2NozjKEvMhYQFJl+dgVBkAOIQ2eCYUUD8aRnJhy84H21kf0lKhI1MKwLYWjV61Ti+Y3QN8RmJ7+XPS2zA8W3ERsGkfee8MaVrCNYUplN+jViPz+kuyUdfE/cotEDPZ9vlXoJAKSCQV0Ge6DAXTQjuBUb50uTKheFf/uVf/hY+wxfoD9UDmISA1uPemdyT7WDmAEzL92Bi/+/UdKh9kS63WIRJJv3Jx7kpxkbXjTWC8cZQROibX/3qV/9Lqy/vzjP+Obc/YW1K7AXxTRN5xmbyfIwR7wFz/xSzVThnWVKW1ox83Zv3EYGeTzTlXsqmV2B4AoGlAj1TC9WqUCZSlaCdkR40RK2Cfjn4vZ+BRtJFX/hGGwssgGHmHiN163um1yGo6Cz8t6PUSPMsTDYadHnrD8YgCi2zH3S6X4Jj/c/wA1/Jd8EbzuVEymPeGr6ON8IGNL5r166bxIw1BfDzbT02oMUu0EU4rOMklEfnBYG8CvFkLeLCALP7IAOSmIPNYDmk1RxHIM92+rKZz5yXnqzTTSissWGhdjPNiHvSf6Ku+ZcMKKK7YSOY2Mk4BisDq8CR7rQmG85+vYeH48DKdUxpJAMfxuED+s61dudtntM0jjnsQdoZsusGzFqdcCVgs9QOuobgmggzvfDNN9/8gBsg+s0ZmKfHBrSkX/RSG9wibK8eGyZdTMxFiF3RNElbGBYhBGaotTIPl3myLK6BVLPXkeK0o2gam0VDyP6FwKsJCnJqNwwooiVivYKvsujCmpcgWGsBPtVPGRPBojTMDljzogKfwCI+EEbXGYCoBXTd1EPL5KaGQu8f/uEf/hvogN9BwOfTzPOmL7vAXc75cQzAQynkG4jx+CM23J+yNgMj3PUQ5mxsoQV6pgIk0/NzHoASv0Hedsk54iBCPUcAs7lcI61ZwMLnY946zaAUfIjwPYTI5/1MX0KUc1aUntm0J5drqNkgNiBAjRzmyRs0s7OQDBnBoN2QDSyUy/2L7VpGXLOQDFOsyBrGqGzmVIPFrwVR1YVepx/DQ60cG6cI6VxhEbmEnOmzzDNnQKZepD3U0DlvwVr4JbM+aYlBvvdWci4wBxwR7BVaNkyxDaPSHtIP493zoQ/DEOZXEV/wHchjzmCjfR9z2q9nows9UTIVOJmerydWpXDvbPDK5pq1sBCBnhyhgmxQufuHUB9n+VVqBFhMdoAv/WdgtXqKjGBLcmgZwbvWWBbk75oP3IBNSZz1oek2gBAZhmn9c5aQJWEJc5vXs7KWnkAwjYp1w2GW/ZAbl2+++eYFUoqSwARCvZnkJSQ7yXf2Qqo+aW6OReb3M0aBbGYM5qJwZSS7nm4OTXv1Ym7eItsfrDIfA4cjYDB8/uuvv34ZeeHcmNaQahVWqaKZw6RyJS7AbBYBmw9hLTtHixJjDJhKSdO7nnNoPTT0TPvD1UYPgZNpO0rl/FwERr5w5n1k3J6cMfnCNu15mDDDgzhknlotNJ0Z0MZ+TmYwan8gyTgEQppeBNRlzHKVdiMyOJHc21gIvSAl6Yc2fgXR+5dpWmdMAKlNNX7uguOYQRfyciqj91mM59VXX/2U9KkYpwMoyvI0qtA9g3S05lwZ3dJtJHOjoV3eRBT716zExyAu0qlq1dMKsgvU5nAMQtvLQi/kaicucCHtZgEZBn+ScZD59awVkG7f9DiPbgKmTCJy/T749r+GJeMc5y83P9ycZkv5nGlbC6mh82XMVOCQZWTDv8SZDlqK84lTppM60/FIp6lsB8sl6nHvdJ4v5yxBQKs+NY9fzSPYapQmbGqC1Nwp3MnmhsA5ksa0IMe8EQIjr8QjyQaD2h9N6vAb+0kxi0VvkqZV0Jj2U7NhOg+/yexFwZJJ4ZESHnxlnWNwHL5YTGYcpvY5bmZofua44dgCt0kbx4rFSUh7mg8LSyLokGQ0JInhmFArhwvgMmMyWNOcVK5046zHWGjCcBaYzIJvYRDsb8Msm8o5ArdEr4ZFA+IOGlg/HdkdtaTK1duaQbpbFqMhrTM+4+SOpyuCTIXEDGM3Vej5WBCBzkAPskphl+3FhLCuwfGrCAKmLeB8NxakBBtVobEpmecB3wiwWsBnFhpZRYqJvKKACOkG+cm1ZN8SoBZxrwjG2ofJ7kZbKkusatryTUgmm8kVGxhqDZzzGhvVus8naBAeNIKf+1jwPmaRCZDR9JKTmtoONPfDYIJrocZDIo3EPGI/+G9u0tJhGUuYz7UOPy6Lm3jvNTKcILVxmpepkdOKwE0GBAcX7s14rJg/WpzAQ4DxEGPwZwovVF07AGrTkygMcoLlVUnpqpGg0M2SIEBJaZrn2Cz5JMoV0zrioZCkaZ18+BwPUvwyWE+vAK5sBlkrg9uHa/swFz/hZpS4XLly5SCtGaxDAMvTVlYkJIWrNneZAqfMXz5T+92aj186j0lAo+HA7xjXNWx6xhlPwE0P+dhhxbgFAT+z5o11PEF3gc5dH8kv/tN/+k//37//+7//75mYRkiYQb5d1jPWEYOSvjUnFsxi3/Ll4+QmZWGaHVrktQzUICkJN1xpXpfyNJqckMbyLVM0/vqv//p/si1rbN5yfWRRX8+FliZU7trJIV0IH1q6gFDbolZM3y3N2jRpsj45+auxGDaw5jT/TcpL/K6edK7Q3l3ky2ZRlcRimex5DPwht3iibCze4Wlo4dN8HucI/YlY+Kb44fvNFCUG8PF9T7f9m+08ChNEeo8RU76ziDT/GNYV0pp28JtjxLHiuOFTTx8zy9QuyeUuo6ZLwc0Px4FBW9T+MTfHuX7QpJ4YE3Kd081RTMJ8+ZhzbaF8oWuCpm0KVxaf4UaVH66HTAHknIZlo50pnHwnOa/x72bSJiebR1wXaRnCPec4Z4k5n8M69IxL4btMzPg3zl+moHFOs7bBes9L3QW6tohNoKP8yJFnBLQXbgi35WddDwYtae1Y97asKxAl8PBE9TY0lWM2jQ+1wDKN77uWZsyEgOeCSGHOwCz+PlFoJdnmnL/jwkZzOTcLXBy56CUEBRc+ChMuhhstUl3vYdcipBklPQxhZKR2zpK0WhGcOo4TBRmFOn9m4ZWlY0RrHDdO3EDRF85oem7mKJzot4cAKynriLb2MdCMn7kE/pindpjdq1gdjUKcRWm0TU8dz+G/mT1AfJIpHJyztKpxjtLVQIHOOc05TBdIQqDrHbGezXzSXaBn0yi5RhAQBAqPgBYdz8IVY1zgE6ZJjQ9cMVsmfl6tdVokeoIrmyZ3WoMS3+TSptk3E3dG4cEo8icymhom5wADxei7TTCrJdwjScZJwZ/dSrjB6GrT4hloQt4w48E8bwjhKQpk9pcbVeKSsFYkeNnXmsMa9/vSecufFfz4XYyHCPRiHBVpkyCwTggkIou1xzO4UY4iRUALoJMxWjY+iQyPIh02XZuVaVS0ro2RmwsCgoAgIAgIAoJAdgiIQM8ON7lKEBAEBAFBQBAoKgREoBfVcEhjBAFBQBAQBASB7BAQgZ4dbnKVICAICAKCgCBQVAiIQC+q4ZDGCAKCgCAgCAgC2SEgAj073OQqQUAQEAQEAUGgqBAQgV5UwyGNEQQEAUFAEBAEskNABHp2uMlVgoAgIAgIAoJAUSEgAr2ohkMaIwgIAiWOwIZhXCvxcdiUzReBvimHXTotCAgCgoAgsNEQEIG+0UZU+iMICAKCgCCwKREQgb4ph106LQgIAoKAILDREBCBvtFGVPojCAgCgoAgsCkREIG+KYddOi0ICAKCgCCw0RAQgb7RRlT6IwgIAoKAILApERCBvimHXTotCAgCgoAgsNEQEIG+0UZU+iMICAKCgCCwKREQgb4ph106LQgIAoKAILDREBCBvtFGVPojCAgCgoAgsCkREIG+KYddOi0ICAKCgCCw0RAQgb7RRlT6IwgIAoKAILApERCBvimHXTotCAgCgoAgsNEQEIG+0UZU+iMICAKCgCCwKREQgb4ph106LQgIAkWGQFmRtUeaU4IIiEAvwUGTJgsCgoAgIAgIAssREIEuc0IQEAQEgfVHYHH9myAtKHUERKCX+ghK+wUBQWAjICAm940wiuvcBxHo6zwA8nhBQBDYOAhEo1FzNr0JhULmWCxmyuZauUYQSCCQ1eQT+AQBQUAQEASeRMBsNkdeeOGFr/x+vxM/R9fAhxq5YmaPx+Om+vr6qV27dt0WTAWBXBAQM08u6Mm1goAgIAgsQSAYDJrD4bBV+1Wq9XXp7xWhbjQaF202W8hiscQEUEFAEBAEBAFBQBAQBAQBQUAQEAQEAUFAEBAEBAFBQBAQBAQBQUAQEAQEAUFAEBAEBAFBQBAQBASB3BCQoLjc8JOrBQFBQBDYMAiEI1HrvDdUMznrbbPZzMG6KueEy2HzWC2myIbp5AbuiKStbeDBla4JAoKAIJAuArF43LjgC7vu9k8e+ur8o1/W1bjGTu5v/6C3o+4m7uFO9z5y3vohIAI9DeyHxt3d7399+28nZhZacHocnwRNY7p0jcnOS/fapS1MWFSSWVb4O36MZfjva09t/93Rve3fWMwmSYNJY4zlFEFgsyKAPPiyYCjqHBh1t164PvTK+RtDr/UNzx62Wk2RuXlfw6tPbf/nBX/ogt1mDplNsp4U8zwRgZ7G6My4/S2fnX3wi/sD01s0gZ4QnmlcrZySSnin+n06+atLn/34PvzBBIne1VZ79/DutlP4pwj0dEdJzhMENhkC0Wjc5FkIVw5PuHuu3xs/+fXFhz+98XDieCAQraCg9/kijupK54Tdbl7oaa25B3i8mwyikuquCPT0hosC1o6Pg/IyvUsKehatBgka3zB+XtCeno0VoKANl4cJAoLA+iBAE7vPF654NDy9++sLj37y9cW+d6fnFpp8gUjF4qKhbBH/mZpbaPzi7IO/ikRjVtcLu/6fSCT6yGIxiz99fYZszaeKQF8ToscaNoV6MQpzNnApJz9ZqtBOkeXpDa2cJQhsPgSomY9Nejru9k0fOnWl7y1o50+PTs13RqJxWxyCXDmw4oUQJDc6Pd9++dbwy5Uum/vZw91/jMZid8X0XpxzRgR6OuNSZojDMR2GJTuGuV6sQv3JnsQNZfH4Itu6Fqd0OgjIOYKAILBBEAiFoza4Eeuv3R9/+syVgTdPfd/31vScr95kWlmrC2uIweePOO4PzOwpKzMaKpy2+QqXzQONfRzxObK2FNmcEIGexoBAmMcRIBK2mEyL4Wjxu6QXsbOOxOJWtNUGs1rEZDTSJC+HICAIbGIEIJzLoF1bBkfdWy/fHX3+6/MPfwahftwXCFUZkwjzpVD5gxFH38jsjs/PPfgVNgSOl05s/U0sFh/GJkDWliKaUyLQ0xgMCPRF5mGazEYD3oiiN2aXwWIWjcUtkUjMBouCL40uyimCgCCwwREIBMPlD4dm9ly6NfrSmasDbz4YnN436w5Um0xlSnrMakcMmrpnIVhxp2/yAArJxFxOm+fQztYvkbc+aLWYGbcjRxEgIAI9jUGAqX3RinKIZlNZDDPfnFSiM1cMx9qvRhoPXPOURYPq5krtJ4ePzBKORq3wh9GOVvxmhTX7LCcIAoJAtggg0M01ND635dSlgZ+cvtz/o2v3RveVYc2iMH98JAq6cllZJuG5vFGoT876KmOxsaOwvsP9uFj2jL37z9DUx0VTz3Zk8nudCPQ08KSGboGGDpM7zEuPyxgvuRIvhtmCEohmA18S3Y/FuCEaiaKOMl1YTwp1tXWqaQ0aumUxrgh0OQQBQWATIgBha4S/23b26uCrZ68NvnXp9sgrI5Pz7XDDrVQHEksJ17DHy9yT64vJWGbwBSPlCKI7YTYao9DWo0d2t32OZ4yIT339J5gI9DTGoMwIH7rZFDabjbFk4pyTnwEjRqNJ+db7WIwj4s0IYwGc5UwtSXJAoENDj8RhcqdHXQ5BQBDYjAiMzyx03APz27ff9/304s2R18emva3BYARrVXJuqjKT2WA0WRTFZDEWNcSioSdg4++jcDvOun3lN+5PHMeaGII7MlRmbPkGa86o2YSFSY51Q0AEehrQYxLDh24OmcwmZGeuUIqVX9FvXbBjDVobmv1j0UULXryEyb1gTZMHCQKCwPojgMA1q9cXrj57feB5sFz+A33nk9PeOi5gyYQ5BXVZmclgtjkNZqsT51gMkdCCIR6LaErDkwscNHPD5MxCzbmrgy/CHRmE6T7itLd/BouAW8zv6zf+ItDTwB7Ma3GrxRiCiSllRKfq0sZ/Fcm+vkoxWmCCyV2JcheTexoDLKcIAhsEAbK7LfjDlRDgvQx8u3Jr5MU7fVMHff5QpaqNJDlgVaTL0GwrN1id1YpA51pWBhci7fKqYKemvtyxvmjwB6OVoIp9OQIXH6hhfTu7Gy/B/D4l5vf1mVAi0NPAHfMdAt0UspiRi57kfHXvWkgVXX21kpr/1fbR5G6FD92OyJXSyJtPYxzkFEFAEEiNACulQZg7bvdNHb58e+SFU5f6ftI/Mrfd4w26oH7z/0kOCnObwWKHMHdUGcz4NppsWM5gOcfCp1wCF18EcTtqzM4Ph2J+j8UMIxPz9bDgP1NVbp/hMrh/e8t3oqmvz0wVgZ4G7qrJ3RQyIQ9dfSuWCW/+U/ngPwVR0DVxzrYk30coAh0aul009DQGWE4RBEoYAeaXQ4Cap+Z8zYNjc9s/PfvglxduDL0+NbvQHAzFbIgBSto7xvuYLBDmEOQ2CnNo6Mr6BuFNdYGCvswOXzoEOiNxomFq6nSRP7noWJDO6/YGG788/+CndPeVI6VtS0ftDbRpXszvhZ1YItDTwJvEMuAvDplRuSzpq6H9UpHlBbG2a7uGVBY0vHB4mayMbkWmif5RemlgKKcIAoKAPgiEYImbmvG2Xbo9+sJXFx7+9OHwzIHx6YU2WOhMKYJmlYXKAgFudlQYrPZKCHZ70oBeBslZHJWKgFfv5YNQX6mpg+PdMDsfa7hyZ/Qlm9UcRIpveFtXwzVcENCn13LXZAiIQE9jXiCIJGazmAIWkzEl1aESS14QYa6Z25XMkuSGd7x2ZmjodkS5O/ASikBPY4zlFEGgFBFAWdNKlHfuvHRr5OXvrgy8AV72V6JqdkvKFFoKabPZDn95lSKsTWaHJsxXmvsULd6KulSKMTBmCPsXDZG4H8L9yaUQioOiycNC0INnv1Vb6ZiwmM0hrEPXJfK9cDNLBHoaWMPkTupXP1I0ourEXia7NXO7YnFnXFxBBPuqDzEhSMURxs4d5jgR6GmMsZwiCJQSAshgMVMzv98/ve97CPPPzt7/JYRpdzy2CAd4cn85FYAykwn+8gqDzVmL4DeHwQiz+qrROASFBSzMVmUDsAhz/KIhboiFg0l96miTcXza2/7FhQd/icIu9soKmzsYjowjEj4ExaiwgUalNKB5aqsI9DSAhMk9hjx0pGYYkwbF/XCLYpmvZWWRSNyJ1BUnC7TQxyYvUxoDLacIAiWCgMcXqrk/OL3/24v9P4W//NX+kdmtgWDEkspfTi3DaIJQhq/cCjO72Vah8GYw8C29g6xy6vUMhgvGZwzxCPzpy3gwWKnNFwjbHgzM7IZFM+RyWueP7+v4eGdPI83vcuiMgAj0NAAGO1LMbrd6bBYz6ownU9HVXezyyZ3GrbM7RWFySnz47JW3CQajFUhVqYrG4xLlnh3KcpUgUHQIwIRtmvcG6m8+mDj27aW+H5+7NvQWUtQ6GPe2evCbXYlgt7mgmVtgYkeeecaZORD+1Op5xLT89DiIZ6i1Jw7aDSnUEW1veTA0szcSXbSRo2Z4Yt7TUOMcs1ktTzLVFB3Cpd0gEehpjB/ZkKorbJMuh2WKJVRxyTIhCbJVRaoWsvDQKk57vlCooDSHF5+c7ml0UU4RBASBIkcALjQryFxavr85/NLZa0NvXrw59NKcJ9BAOtakB7Vy5JLTrG5z1SimdiVyHQQyGQvzJSLbCPO7zVmj/Cbsc0O4Q0Yv09TJEe8PRJywIuypvGx9B8b+xacOdr0Pq2EfguZEqOs010SgpwEsgjoi1ZXOiXKndRrmpiQCXdmWomi6oSAh5WRzVf30yc1li/gjdshOvOwQ6FFr9i9vGuDIKYKAIFAQBIbH53sv3Bx69fSl/h/fHZg+DF91PbVhuARXPl8T5mp+OchibC5NmKdrYk/dJYXiGpq64k+ndu6fX0ERy6tRwtkAn7r51qPJw+Fo3AbiGb/CKBuP35eSzvpMGRHoaeAK1qNwrSLQ7bPkUoCAhJB88iVioEgZojwLkYiuPhmkD0rxtyTiWjV52d2eYF1ENPQ0RlhOEQSKFwFGsk/N+lpOXep/h2QxII45glKmLmUVSCLMETCj+MspxFWfOf3eXC9yF+YqShpNrMYop+StIzktFmUV1R/8f1ybaD2Y9QQqb/dNHqQ/nbUlnHbrAgLlZuxWS7B4US/NlolAT2PckH8Oge6YhIbuZi3gpJcoJqcCEcsgWFRxoSfPilea5wuEbG5voAZmOtZETyr30+i6nCIICALrhAAj2aHlWu4+mtz/1YVHP/v+9siLAyNzO7z+sCt5frmayGqCj5w55jSLM79cCX7TIaeW9yVNLN2NfHLI71a435Md/kDYAVfBc/Fo3ATimfndWxrPgSvjEUm7JGA3fxNMBHoaWMLnE8HLNU+Bjmj3aIClB5f5jApKFJfIP0c7lChV0jQuOyjI8RKVI+K0kr43/Fl2w2mMtZwiCBQDArFYzDTj9jfBXH3s/PWhV1H+9I3RKU9nIBC2Js+LheldqZRm07TySgS/gfFVEeZ6Zd/QR28xWGEJgCUdaWwxlfdd0dR/OJRAObgkoWC4bj2aOErODpBeWckoV+Gyu/HnJy8ohgEo0TaIQE9z4KClR//wxc2Fcpc14A+FayLhWJLXRGFX0HLR82XeStVA1Y/OnXEyBZzpauFw3Dm/EKxbCIQr8G/JA01zrOU0QWC9EIB/2YjAMcfQ+Hw7hPmJry8+evfWg8njEzOeBmzMWdd0RdPUSmkgi4G2bAHrG5nflAIryWiq890xJdnGAvIZFywCNASUGSIBj8Ym9+RGgjXYEahbc+H60HOVLtucy2Hz7tnadBbK0jjX13w3bTPeTwR6BqPuRDWh2gqH2+MNNIBW0ZJs48sgERiR9LBwLWupat5XX+YkGXP4HQon0I/esOALVdZVOaYz6KqcKggIAuuAAC1rE9MLnaev9P/424t9P2WU+PwC0k9Rgzzlgah1RrAr/nJnpZqSVhh2q8dNoqZuwbNV5x6KuQRJEUvz+5NCPRZbRD31iB00tS+HwrEKh83ic9otPpjfPeD5kFrqOc45EegZAGi3WRZqq52TY9PeLq8/grfmycmqpK4lfOkZ3DfrUxO56Elc5Hyv4H+zuZHWgqCaavGjZ42yXCgI6I4ABJoR7rGq248m9p+/OvQmSpK+fm9geveCL2xnJHtS+UwGN0SbUxu3aZHsSqW0dTgSVgILNHVWZ1PLrlKor7Sm89zpuYX6Gw8WTzTVlQ9y3Ty6u+1LNFsEeo5jJwI9AwAddgp014TdbgliTiIwJZnSjOmpSc8Mbp3VqQqVY0KoJ3GTYZGwuL3+Rq8/WJvVA+QiQUAQ0B0Blj2ddvsbHg5OHzh3feiNby4++tnIpKcdfmYGyCQX5vCNMyiN5nVWS7PA3q2SxazjwRQ6EzR1WAtUilgI9SCFO9yTyxZLEOTQp1579trA21zG6qqdE3AP9qEE69w69qDkHy0CPYMhRB7lQk2VY8yOymupLlMnsl5BKMueqvivVKGezI8OUhn7nDfY5PGFa9GmgjDMZwCnnCoICAJAACb1umv3Rp/79Mz9v7lyZ+ypmXlfPVx6KYurUDiaSRbjrFZ85hZo6WUgkCmKg/nvZgTKoW1Mk4tHI0hnQzzusmIulO+IFTAMjs93mE1DbyL9bvG1p7b9E/pwqij6UaKNKJJZUBroOWxWb10lBDoJEpI2WdXOC0YByzYwvzRpVhoS5uNx25wn2AyzXbUm8UsDaGmlILAJEIBAs0IT7zlzuf+5764OvHP59uizEzPeGqrkiuVtxf4dv2M5U1RKs7DsKczsStlTJZK9mA6VN5558LbyWkM4MG+Ihrwr1kYulYgZMACDjrNXB95m1PudRxP+9ubqB/y5mHpUKm0RgZ7BSDkgyGurnGMgRPAmq1CkVGErpA89YXJPVkaVQXEglZn1+Os9vmBVgWwGGaAppwoCmxeBYChiG5mc70E62ttnrgz86MaD8SPznmBlMkGuCHgGwLLsqUIWA80ceeYmC2lc9c6myXaMaH7XKGJJPIMAuUiEhs0n3eTctoAitmxgzE2h/qM4ovxfOrHlf4F45pYQz2SOvQj0DDBDUJyPAh156RDoCnH7k28ThLlKh1g48Ym9sFYgHa1Z8li+KNz9Tkx56+fm/fWKVV4OQUAQWHcE8F6a7zyaPHgGAoya6YPBmV1gdnRAmKUws7PsqfmH/HIKc/w7/Upp69NlMtaZylChDW4BWi0XfbOGaASUcssOBv2BItaAiP5tEOTvwgLqY9ot/OyXpJZ6ZmMnAj0DvBAU52uoLh+pcFnnLGZjOB6J25fLbqVMiyLYVa+2nukjqlVOCY1TdvDLJTZyWg1klQL1YsP0nK8ZWsEMNiVCMJPBmMupgkA+EUB9hbord0YOQDN/B2VPX+kbmdsOGldHIhZm6bMUVxrZ2GBWN5H5DcFmZkSRG81ctkskJIZeAqvdQGarRRDPcD2MRuhTf7KQFXuDKH/z4Nh853dXBn9MgwQUpwA2OoMg9BLze5qTUAR6mkDxNORLBhCZOVFV6ZhxOqwITo3ZY8m0cQp0Tl7sUFX/tl6HwiyjbhpYcQlsTEsPbioQ6W6GKa9hcNS9zdRuYmKoCHS9hkPuKwikQACb67JAMOpC2dPDn5y5/7cXbw6/ipKibXg/Uwa/8b2mJq74olEtzYQqZzQKUpNPdjzmkdF93VGfrloi1Zihtcx/ZUr0e7liwWSQXIpl0+APhs3X7o/tJ1Oey2bxHtnT/jH6ex2U22s9QuYeEBCBnuE0sJhMoYZa1yjyJ2fAl14RC68kVFc19EIRzFCeq4UX1Ndq2bwvM5g9/mBj3+jcnlrUI8YJkxl2WU4XBASBHBBgjvnsvL8JwW9vIy3tzRv3Jp5B8FuTGsme+sZ8n+PxiCEcBPMa6VSf8JevlG9KqVSa5hFhTk1e72MxHjXEwgHkm3uhddM/nkrmkvmKrsgYhHkEP6YuM01BHwxHTQ+GZrdFT937P6jTK8VcgpFxpAv79e5Tqd9fBHqGI4hCArGmGld/S2NlH8oZtoLtaAWTg/oi4mVlmcEM75/V6XwIed1pxlqmpfNPXl+oqW94du/2rvrL8E3BtUUDvRyCgCCgJwLwAZv8wUg5fMNdIIw5+fXFvp+RxnXO469jfMuaZG6QbvEYRFosgJiytQ1rrHVuYbEUCFr9jzKF3jUSXlCi2CP0ja8VO6SsOmksPThl3hdy3O2b2lFdYXvLZjEHDu9u+zSMWuoslCXrV+rRFYGe4cxHOcBIQ315f2tdxX1MrqO4fCU1E3ejce5KM7x5lqcrGjrLqSZ9XVAbfSFc82hkZhd8dXUFa1SWfZHLBIGNgAA3ziEQxkxMezu/PPfol5+dvfdXE7MLLd6FUHaq81rCknt6rAAmIyPfC5HGRrdiBJp5GG49ePJW0bqzGk/0FwFy5os3h04gU6cOpVfd4H9311Q6aWEs0MqaVcvX9SIR6BnCb7WaY9B2B1saqx6g8lrSKkHqu6dGuydKC2b4mIxOp0CHjwmETCtD2akFePyhiv6hua3ISa+DL88En1RMfFIZQSwnCwJpIxCDMJ+aXWgFdevBM5cH3rkK0hhWSguHlaqHqxzJt+TpPRiLDvzUal56ARjjsLDQCknLgZ4WgUAw5hie8PZ8ee7hr2JIw336UNd78K/Pmkym1Hb79ADbkGeJQM9iWGurHBONda4hl8O8YDYb65Hvvewu9KHTAkXaQ6aV6Wx4TxBRpHgOotthEotVMycdGkI1ShbOo8HJCxdngYdcIggIAkqJ0DKQxdihlddfuzv27PmbQ6+Bl/2VybmFZviFrfquAixlakI0vEOrf67niGB9QzAfi68sgqt9NZ94rq1gSpt3Iei6enf0mNVq8pGpc0d3w/e4r8QCJQFXBHoWM66qwuG5dGtktKbaOT05F2hfiAaT4ggPmBocpwha/V7nRHrcYxrYJOa52GLchNS1FmgKHd1WMx1yItCzGHu5RBBIhQCtcRDeLTfujT/1xy9u/ofrD8YPQisvh8aepjDP1pKslVJGQJzJQhpYfclmlEj1WAiBeiEl0E21gOu3viEWoWzG7au6dHPk6UUsZEhnY3CcCHQR6PlbjFwO63xbY9XDyVlfhy8QbFopQxP56GqsiN5KupKPzihYfpSX7MmD6aDTbl87aBa3tDRUDuOvC/lDQ+4kCGxuBFBYpPrmg8lt8Pm+DBrX1x8OTe/0gSwGm2xKuoQJj99LU1FWk4JL/6aEvaaSmmVIWTWhypoRaW1JmebyOjRw68FfHkNUewyR92uQaGVjFk/sapbubspYzAVCveLmw4ljNdWOqXPXBs07uxsuIYV4Lq/dK/GbiYae5QA67OaFzpbqO0Pj8ztGxuebkmZiKqkaCUI5/XawahdUga6mryXWjR86t7hYZpme9fcOT3q27dseO59lt+UyQUAQSIIATe3Ts97m0cn5rlm3v7GuunwMn1FNCCec40nySh/fbLkAVxkmysqiSI8tn3H7m/AMF8z6K4JwGRBrBA0shbqOinJimVFzyeE7V1LpFE3mybXNZDTGKly2ORDCzHOdXEJPu7T/y80RyQS5urBpD8CjTFaLKUYsBkZnd3W31tzB30SgL5mPItCzXJ7IYtTeVH23rmpyGFNuH6ToitBS1YdO4aq3MNc6oQj0FM9Cphp2uM1jk55epH84suy2XCYICAJJEKiucMwc3tN+ant3w/W/fC38XxgztuS0dGzpy19c5d8WBN6yaMtvP7v+H/qH53YFwAG/QivGe89gOBOqnOl9KDsTRUNHKh1N7ssCzunzLndYPCcPdHxydG/HF9Cir9kspiCNlFrb0sEiWTc0z2KZAWtv0IVnVJbbZ/Xub6ndXwR6liPmsFkWOlur76CO7yhmGv3RK3NFlnC7J/zcWT4urctUDR1PShYsi9doZj5QPzLh2To7H2gKBMNDDrtViBrSQlZOEgRWRwCaI9cAaot51RihlRvvDc7siUTi5dFYDOv1SnmocKZDoNPkrrfyQJY6kt0o5nbmu6/kvjbYzKbI1o76Gwd3tn7T3VLzyAKtWuZPYRDQN3qiMH1Yl6fYUECgFeQytVWuCbPZvJhMM1bS1kj0UoAa6YmAOOU7BSJeX9A+jrzYsSlPN2ow164LcPJQQUAQSAsBZKdYEMjaOj7t6SLTHLRzV7J0dG7kTahsxupmuh7KehZRguGUCPckuecgfYlDUQi0Nlb1t9SVj4ow13VEVtxcBHqWeIO9KF7psHrqq53jzfXlM/AVJd2FUqjHEaRWiApsqlBX/eipduoqc9XUfvBI92bZdblMEBAECoAAakU4h8bcO0fGPdui0ZhZjWV/8jBquef81jsgjuZ1auYKa92y4ipsFdc4EL94e9pq7tZWOyYtFrNk0hRgnix9hAj0HAA3mU3x+lrXyJbOujuVThtLqiY5mK8JWZ/kBcjh0akvVUzuoJxN4UuHqd15f2DmAAT6VubN6tIGuakgIAjkjABKijoGUINhaNy9LxyNla94pfH2UitXyGRW2cTn3JDEDaicUKCHoaFzPVu2etAYWVtpn+tqq7lfXW6fMZnKxNSeN/DTu5EI9PRwSnlWU61rcN/WplOp0idUs3vhaqSr5jcK9ORDGwhFyx8OzuxGZH6vxhonQj3HOSCXCwL5RgC+6jK8q67+8bldw5PuHmjrsKcve1VJDqdo6KB7BamMvoeafcd0tSiqpalUr0+2R9HQq5wT0NBvMGBNLeosRyEREIGeI9r1Na7RXVsaz8LUNJ5KK05UX1P96frPcXI5Mzc12YHAGoPbG6wemfL0QrDv9SyEanKEQC4XBASBPCJAYY4c9qqRsfntqA++Y9YdqI7FFpNyWRgtmoauO5kMaV7DKpkM2eGSWhwXF2urnOPQ0G9XuKweWBT0X+zyiPtGuJUI9BxHETvRmc7mmrvNdeUDleW2BZiZktxRzUdfXIzqPsMVPzrrISum95VtgZndgOAaJ+gpe+/0Tx2Z9wVFoOc4B+RyQSDfCMzM+1v6Rmd3T057QVwVdjIdbOmhvOdghmNkOwPimIuu64GI9qiWqqaY25cdZpPR4HLawiwt3VJfMeCw2xakXoSuI5L05jrPgsJ3qNBPtFkt0coK+3R3e83NrtbqQas5eSagYnZHMQP9CwVpNJCKH51muJVCnb8BOUP79btjT4MEo7nQmMnzBAFBIDUCsOgZkY3Sdbd/6hCyUWqSZq6UmQ1m0LyaIdBZB11vKspYFAI97Ec8EMlknmw7LZB2mzna0Vw11tpQ0Udzu8VsLEQNV5lGyxAQgZ6HKWE1l4W6Wmpv9bbXXUE1Nl+yW1JDL1xwHKNlWIGNQn1la/g+zsz7am/cHz8+7fa3SHBcHiaB3EIQyBMCKPZkGZ309t7vnz7g8QYrV2bILCIYzmyw2MoNZaiBrrcwpwRnmhoFeiy6MnCdnsRyp82zd0vTWVgr74AMR6Lb8zQXMr2NCPRMEUtyvsloina3Vd/a0lF/zY7CAaly0mmqKkT6GpsIcY6Xnhp68iFe8IUdA2PuDuS4doCHujYSiepPM5UHrOUWgsBGRgCR7bYZd6BlBGmlI5Pzbf5QeKXJDwLUCEugGQLdaNSZTAbaN4V4DIFwajEWKt4rVHQDtfJ921tOdbXW3Ib5PWlZ6Y08bsXSNxHoeRgJs9m02NZQ9agXZneUVp2Flp60KAHzOFlDWDG96xwcx6A4tVhL8uA4tgUBctaBEfeuu31ThwLBaHkeoJBbCAKCQA4IoFRo7a1HEycGxt07w5GYM9mtFGY4CHKLFaVSdaZ7ZTU10rz+/9v77u82riRdEjmDSCTAHESREiVKsmRZktN4bE/amZ0Nb8+Z/QPeX/b2nP3h7e5smHkeh7Fly7ayrEhJzBkMyDnjfXUboCiyKYEkmknVPjBICui+/fXtrltVX31VyKdkiXDEvUVb0yL0OBZO9Dbf8jZbZ+Ghc7naLubAbr7KBn036K37LpTjcijZ8Pd2uEY8DnNAlt4pROOkXDo4q3U68la7of1LPZLlSlpoPYG2jsbZpcjQ2GzgLEpkZB8eCg+Sd88IMALrEEiksk3PplbPzy+FB1GqtrkRC/U8R+6cas9hzaklk4L4gaaOBwWF2gu5zKboIj1D4Mw0oOvkSk+785kLJWsQ3GLvXMEr8rpds0F/HULb+HfqMIRV6k2wPOflQ+vUUpW0kMmB30lnwW0Mhsy5EJ7YuiadbkiE9nqQqzsbiac9pEa1vSPwpxkBRqAeCBCPhe4/kFW9ozOBc/7VhI9K1TaSWoXOBDxzDV5KK8NRaJ302kVnNdSfb240VSaDnuvtcD453u2+azRqtxDXqgdCvI9aEGCDXgtKNX7GatKFj3d57ng91nHSNJbPpZMMLHnpe5FPXy8Fu/kkaNGxGk66J+aDpybnQ0Pol86M9xqvNX+MEagnAnmkv1YjqdaphdAQvPM+8FpMRdyfL2fM8DvC7cRuV4EMp6x3XlWFg3dO2u3QcJdLExr1mlRPqxP8Idd96kBZT0x4X9tHgA369jHb8htmgy5OefS2ZtuE1WRIoXRjU+SdvGLJoFOnImW99DVtdxKd2EI5LpsTDSB8IxPLFyEH21dHOHhXjAAjUCMCeZDhJueCpyncHo5lXPDWNxlQKkNVqbTCO1dTZzUlo+2VUHs2HYV3TtrtGxulNlCpWsnjsKx2tzlG2jy2Ga1aDTeet/1EgA16HdEHGa7gbDItox5ztKe1adpk1KbkuG9S2J3IccoadDq1ahc2iDzIGnVa5SdSOZSw+S9DOe50JpM3Foslnhd1nBe8K0bgVQiUcL9BsdGJRfU7eF3BPWiWi+6RMVeRd05CMlR7rqBFp+cTEeFymThK1uB8bCDX0pPLbjVGJQfGPk4sd7V6swPDV35vEeAHd53xVqtU5fZm+9jF051fupvMATk5Y6kDG4y66MJGt4ayComUdyPxCdkUAI6ODmyayYVQP8hxw3PLkWNQprLVGRbeHSPACGyBAHVARInasedTK29NL4S7M+iBvvlebRSa7Vq9qWLMlYNT0swgmVdIvJIxl9ka8QyDd748CGa722Gax3iV906UO+Ujs2c26ApcynZv0+g7wx2fed22aZ1WU8Tdueko5J2LunTy1JW15zDm1LAFBn0LvWc0aWmAh2CbXgyffDS2dAla79wrXYF5wbtkBDYigHtPBe6KbxSqcHNL0cF4KqtD9ckGh5iqVYgMZ0CpmqmiL6EclpQOLOTSqD2nCDo9nDbIzuIvcFxKPo91bKjPex39LJbgnbNBV+6S1LxnNug1Q1X7BzHBV/u73Pd6252PWlyWFUx2eaMNY06hLaVz6RSao9I1lWjasvmSi+UGxKf8q/G+24/nPllajfUQ45aaRNR+1vxJRoAR2A4CxGzP5QsGtEc9/nDU/y4Y7m5a/G9c/9O9q1Yb4KGbRMmaJOmszEbRQxKSKWQTCLnDQ99wGHI+tFp1udllXu1udTzvbG16bjUbosqMhve6XQTYoG8XsRo/bzToYgM97juDPZ6foB4nKwdL5WuUn5Jy6cSWq3HnO/wYGXNJDlamaQuOvRJMtDx4vnQZnvpgDAIXkKAkGSreGAFGQAEEqH1xJJbxTMyFTo1MrpwPxdL2TYeBBVUjXaYxWKQ2qVuQW+s1vFKlTC2fTQpluI2eCDWJsZr00eHjrTePd3vumAzaRL2OzfvZPQJs0HePoewe0HWtcKKn+dYZyCFaLYaERrYLG6rR1xPkFG4fTMZcNHKQlYMtN2SyhUYw3l1js8Hh8bngqSy8B4Xg4d0yAm88Apls3kzlohO414LhlAve+suYCG0oeOxQg9MarShXw+24hfJjPcAUuXMw2gs5GHNot8tFDukx5mwyLr99quMLUoaDt85CMvUAv077YCGROgG5cTeQPyzjhh3v7/Lc6/I1TaTRAjEUTVs3LbAFQa7YgKp1Ieeo5CaR48ioqxHql0Ru1m+onae/G8ZmAuebnZaFVo9tGlGEGLdBVPKq8L7fRAQonYWcOSJi/veweH6rUCwZVRseDlSB0ghhKFKFIzEZYrcruRGfJ0+hdhh08WzYsHhA3hxNWLTxTl/T2Mk+zy08H2Y1GhXLvCp5Uba5b/bQtwnYdj5u0GvzyKFPnT7uveZrti0Ut6g7pxuJwu970riFjDoeEqKMTWbDg0U1MRs4/uDZ4vuroWR7LldkL307F50/ywi8BgEqC0U0zLSwHOv76eniz8Zng8dQh75JRIa0IzTIm2uICCciawpuFWZ7AaH2fBa67RtKaskBgPEudbW5ZoaOeW+DJ+RnY67g9djhrtmg7xC4Wr/mhL7xhaH2L3raHQ+oiYss451EG9baqyqbSKf8eVXfXba1KsYSS2atEJnph8jFW0vBeEet58qfYwQYgdcjAMKpDuVpJx6MLr4LQlxfIpnVUG5640ZkOOqoptGZQWhV9lFdRIlaHp45MduF6NUGQg9F78wmfeJkX8utc4NtVymP/voz5U/sNQLKzpK9PpsDeLwmmzE60OO5C2nER81o2qLXqckV3zRSUcZWZb0rfB5EjqPwO0y7bEqODH0smbHfh5cOXemzqUzOzGIzCl8U3v0bgYAQkUlmnY/G/O/efbLwaTKdtaPd6OZzB5NdjRA7eeeiEYuCBp0ihAV0VMulSUQmL0uahSpc0euyLILke/NYl/uBwaCVJfq+ERfxAJ8kG/Q9uDhmoy6GbkSPhwe9N0GQi4meCxs2CreXoZe8N2IzVMYGY45OSXKsWVpvRBPZpodQj0M5zRXk+vrSEL/YA6j4EIzAkUWA8ubJdN6KKhJ450vvPZtcOZVK5/Xk/b604dcXxlwvImpKbRQZLKLxCoXaC1kYdOGdvzweeh4g0hgaOtZ8o8tnHyFmO9WhKzUm3u/OEWCDvnPsav4mEeRQszly5UzXn5ud5nk13cCb4t1EjqN+6QWplE1htRmJIKfdsgyGcnpgvLeMTKxcuvNk4eehWMpT8wnzBxkBRkBm0d7QuBxOtFPkC8z2c4iCmcBZ2fA5qkOnULuxQWuwge+iVRTJcpGIcJQ3pzI16i+x0dtobNBp1aX2FvvEWyfavm5tsU/h0cXGXNGrsvOds0HfOXbb+iZuiMm3TrZ/3dHSNIaubHEq/5Dr3CIR5KhfurKbaMNIcrAi/C71Tl+/0Z8ozD69EBq4+XDmV4ursV5StWKxGWWvC+/96CKQzRWMc/7wwL2nCx/7V2OtclrsguMCI65F3lyL2nNFDTqJyBSzDflMTLRI3fhEIqeCym2RNoz0tLmenDzmveUGJ4jkrY/uVTrcZ8YGfY+uH0nAuptM/uHj3u9P9LaM4Pe8HBGmDDapYLxjtVxGOZuiajNClQpGnWRhZRhyJEEJGdim8dnAqftPF98bmwoMQ2fatEeQ8WEYgSODAIy5HvfR8MPRpSsgxA3EEznj5iAdtUdVC0OuRu6cflZsg0mmvHkeYfYi3stUd75hw+1PHdXSJ3o9dxFu/7HJalwBsVde3F2xgfKOt4OAwrUQ2xnK0f+sXqtJD/X7fogms+7lUKK9sBJrIzGJjcZUeOkEB7xkFVbIcsa2XmhRCRuWEGIRQQfcGOqnNo6on3fffTL/M5ThJc1mXQxhwhkQebj+tF4XgfdzZBEgeVdyZwOhhOfe08UPqRw0AkW4Iu7xl+9riddCBDit3irelep3Lvg6cBbImOdS8M5hzDc2R6WxGfTqBp/HtohQ+7cne5tv6rUqbo96wGcqG/Q9vEDUXjWVzj0AEcaO2tNz6XTehLIwx2bnGKEw0ngvUjgcq3REuJQy6iL0Dg9d9Ggntt6GHBodF4Q4/cOx5YsarTrf3+N5YLcaQlgARFlwZg8nDx/qcCJQLjdm80UD7vNOLIo/AiflLBQYdRvvZxFqhyIcsdq1KFVTa/SKna9YwKNMLZeBiAzao8rptUPpssFpM4XRk+IBDPo3XW2OMUQVWRVOsatSnx1zyL0+ONa8F5NRl+n02Z+9M9z5/9p89mnqdCa/SQpyRWKdKk2QQ/maWjRv2Xo6QAjDML8UG7z7eP6jWX/kGHdtqfmS8wffYAQKpZJmdGb1zLW707+dXYoMogRUtznVJi3YNTqL8M6lvLlSdxieK2C151JRIfNKxn1T7hx/RQSucKzL9RDPqc+8Hit1jWRjfgjmMRv0fbhIDrtx5XS/99pgt+eWx2mN4mZBFEy+Np1YqIp3ZKNcekUSlkpo5KMB5YZwLOV+9HwR5TarFwLRdAuY8MpScPfh2vAhGYF6IEChdsqbrwSTbcRqv35/5lehSMol9r3hVhcVJxrUnBvMDWqw26WacwV4ZxRqRwVNEUpwuQwMusibb144IDXY4HNbl4b6Wm5C5fJ7m9kQqQcmvA/lEWCDrjzGm45gMugy7S02lIG0f3PxVPu3dqs+SNKKmzfKdVE3NkkaVklPnUL7pBtNEpNb5e7iyaweQjOnKA+I/s1nE+mcbR/g40MyAocCgWg87YaAzJV74J+MTC4Px1N58+bFMrHaYcwRZteSzCtC7Uql10i8ivqck167KFOTIcIRsA6bIXBmwPcdXt+2eezTRoM2dSgA50E2cA59nyaBUa9NnIRQQ6FY0AejSW80nm0qFKkH+cuGnRx3EXanVTut5BXstkSMdyLW0jEbhbb8y+DQ7+AA2NDq8bLNYgiC9bqKFqsRDKmMnu9cm7pPc4kPe7AQoNLORCpLPJnT392d+rvRmeCFfLGEtPRGb7hChEPjFeqmptZQ2wRlQu2iz3kxAzW4KCRe0fFUpq8EPVugAJftbnM+v3yu68/In9/XMRHuYE2u14yGDfo+XS7SdcehZxZWYlcfoZQFvcjbl4IJX7FY3LBAJwU5qksHE5Usp9CkUSawQgduhIeOavOGxkrJ3PpUAD2P8sUyukRFOg1azQe97Y4nTVjNU6MGnAvn2PZpLvFhDxYCxWJZs7gS7Xk8vnQJ5Z7vLwfins3GnO5jIsLphVa7DvlzIsUptZVQb17IIdSepZrzzWR1us/VUI5EqH35RF/LHTRgueHBfc3EV6WuiDL7VcYyKDPWI7lXm1kfhODMX09BtAGKTKmtFOKIIEchMsqpKxl6JwU7QZCDipzcRuPL5vLq+ZVo77d3p35/ByQ5loU9klOTT2qHCIDFbiR1xVuP5n4RTaQdUknohg33EZWM6gz2Bj0U4Rq3uN92OIRNobU82OzZVAREuNymtsn0YYq+6fWaFIXa3x7q+MJuNoTZmNcF/T3dCXvoewr35oNZzfrkzEL4XjCSbEOHs77J+dDxZCqHRNrGe5IEZ6h2tRJ6p9i4MtE5Kn6Hhw7mbRnHoOjAhtg7KnEakumcdXRq9TxU78JOm3EF478DRakAazzv84Tiw+8bAqSsGIymvA+f+4cfjPo/wL18MpMr6jbJPFfU4DRaeOakBqdDzflGPfc6nQU5AaQCRzlzIsOJPucbNiLCWi36dC9C7cPHfd8d73Ldh6AM583rdA32cjds0PcS7S2O1dpsmwKj9IfZpeggDGXTVCbcIct6p0YKIp+OHdFDQcHQOzWEKJc1DaKRDIh56zcReofgDGprm6F89YHNbAyS6AzUpO7AG0nxyv4ATCoewp4iQLLI2WzBCDW409fuTf8WjVfOr4aTdjnOi9Bqp7y5ySb1OqcyNQVKU6XGK8ibp8KoN08ghy6fFdNqVMW2Ftv8Wyfbrp7oa77pcVoQahd6OLwdMgTYoB+AC6ZF84NwLD327ltdf4Sn27wSSjrS2byFGjdsdMKrKnLERCeDS8x0JTZSrVKBM0kKUi+05TcT9pAf9N54OPtrdJSLklHv7XA+xXi4taISF4X3eWARgFiUFfoM/Tfuz/7yq+tj/xRLZFyy1SKU0kKuXGu0wztvErLLihhzhPmLBXjm0GkXoXbRRW3zRq1bmyAgc26g9etPLvf/a6vHPsvG/MBOs9cOjA36ayHamw840ABhKRB/hFXy19BPdz2dXD4XjqatcqE4Kj8pNiKXTg8HwZJThgoBTxvPGnjq9NDBA0HOiYC2uwaNWzrvjMx9ZDRoEmaTNgbvfRId5Yrsqe/N3OGj7C8CWHwbZxcj3dfvT//6PnQa0HilGVUfmxsqYphrJWogwqlRey77oV2fDi3C8zDmcVGiVizIK7ZSpA3VKtHhfu8PZwfbvulpc44YdJr0rg/PO9g3BNig7xv0mw8Mo77yznDHZ6VySb0aSrRFYimrXKKcvGbRTEHYclJ4I89ZiYQ6wvoUegchH2KREiFvw0ZMXQho6B48X7qEZi6aztamcYfVGAI3IIKPciOHAzS/eCj1R4Dy5oFwwj06vfLWV9fH/3lqMdxPC2G5TajBQaNdB++ctNqVMeZUkUbeea4hm46gx/nWqXB453mv2zr3/oWe/4aAzHWU0iJdxqH2+s+SvdsjG/S9w/q1R9JD6z2dyc0P97deWw4kOrVa1W/RvrQ3nSlo5MQmygjJo8VCA5b6gjGrhFGn4xLrvaEsyVGSUd/YyEFq9lBWL6/G+/56ffyfkLpTXTrT+SW+QEadN0bgyCKQyeVNNx7Offrdnam/Q9lpZ65A9+rm0xU9E0jaFYx2jdYoBJyU2sgrz8GYl+CZSx0bX95o+a/XqosoTYO0a8fng90tt5120yobc6WuyN7tV7lZtXfncKSOZDToslBkG7t8puvPkFY1oCTs7/yr8dZcXq65GYwr/lwSbVAl+db6b5L4BR5H2DXEKYj9LtOvnYw6UgXu+8/9H4IxG/I4zQs4j8fIrcf5QVH/q8J73H8EAuGk9+nE6onbj+c+fTy2dBliMuaSYJG+vEnSrnp45lYYdGi1KxRqLyMtVswj1J5GqB3hdqEEt7HZEoZm1KkLLocleP5k69UrZ7r+BELcNLxzDrXv/5Ta9QjYoO8awvrvAOHqeCab/x65aF0omvFmMsUPV8Jxl5xyWxm59HJJqM00kHiFMqIzFHqXpgoZbtFcYkP5Cy0oqBXs0mrce29k8SMY8phOo872d7sf4WssOlP/acJ73CcESKcdrHb1rYdz5766MfaHB8/9P0M7ZLes/roQj9GBAIcSNVNTgxbsdmW2MvqbZ0CAC8OgxxoKIMTJkV6Ide9qsoTQS+I6NV45M9h6nZTtlBkT73WvEWCDvteI13g8MMZzy8H4/Z+9nf2/yUzOlnmWv5RIZi3IU7+8B/q10j+d7koKvYuWqwpswtMQnaAgR4smDxuNuqhww39LgVjH7Ufzn4Bgk8oXizp0mHoA/Xqua1XgmvAu9xYBMuZgsDsn5oOnbjya/eXtJ3OfBMMpNy1yN1tFWghrYcxtDXpzE9oUgwSHWFe9G69Q5UshnxayrtTfvAxVODljDqJqg9mkS1Jp2i+u9P9Lp9fxnNBj8ureziElj8YGXUl0d7nvFpd1aWk19p0/kOhCowcXGqKcTEB0hoQg1m+iZr1i1OlhoUIvYyU8dWHQxfOIatRBk6PFhUxIL5bMmsdmA0MajSoLxl7JbNTHkuk8wnpqrlHf5Zzgr+8fAuTJxpMZx9RC6MT3P838zb2RhZ9DFKqVUlJyLi6VlGpRZ65DmF2DtqgSx6W+5d2i1hzeeA5eOb2K+a3XzQadNt/d6pg6M+j7/vypjr8SCW7/0OQjK4EAG3QlUK3jPqkJypUznX9CPt2InF0L6l1b5XYvQuEw6vTAEKQc6pqmgKdezdWrRGSA2O+bc/sU1kPO3/BkYvk8xg3+jSp/8XTn18c6nE/wUEyzR1DHCcK72hMEqsIxo9OBs9cfotb8x9E/oP+CdytGO5WSEvmNwuxqlKgpscAWnBbhmceFeAyJyGy1QTym3OK2LH34du9/nBtsu0rcFrDc5Yg5e4InH0QZBNigK4Nr3fZqMuqyyVR2CnWiV5eDia47mvlPIRHbRiS5jWxaKb+N8rJCHuE9Cr8r4alTGJHcdMnbIFIehfw2bkLzPVvQk9gGynn+MZcr6kkKp6vNMQrPnolydZshvKO9QCAYSXmn58Mnvrkz8fd3n8x/jHRYK2RdcYfJbLgxtdRwBeVp1BZViaYrQmAKpDfhmaeiouGKnKwrjY4W4f3dnvHzJ9u+On+y48sOn22MjflezJq9PwYb9L3HfNtHNJv0KSjJPcjkev4NLVZ1KG37dDWS9KCr02ZDCq8Z63bosMN8wuiqUdJWf++AZGcrUQAcBZIzovZ140apgVgyY/vp6cLbJA6v06mzarW60OVrGsNnWU1u2zOBv7DXCICYqs1kC6aHo/4zP/4085sf7k79LTTaO1QkHCNryyWeCSnB0Ytaota/vzkW7qgzz1F5Gox5PhuXhYWeDuCxlOwWQ+j8UPuXH57v+ff+LtdDi0kf22sc+Xh7gwAb9L3BeddHsZh0UWppmM0VTZCE1d55Mv8RJGLdELaQ3Td1Z2usyL4rQpQj9i489RL1UCd5WCwi5Dx1epihi1zD1Fzo1F8Kz/Ww+6rCmQ4NyvFG9Do1h993PTN4B0ohgPtMHUSa69nU6lvX7k7+7Xf3pn4XiWWECpzsJsLshgYNcubUdEWLn+WocrsZLy2cy6QCByOeTQQFs32LIEGDBvdnl88xD8/8i3fPdP33YE/zHeTReSG9mwtwwL/LBv2AX6Dq8LQaNVnuIBqi/AB/uDFfLOnRR/0yysQ88No3eQFSc5ci2OjkqUN7RoTfRVeX+p0xlcmhPl0NJTnSl6IadbmwHx0XpDjT9GJk8Ns7k78rFAtasN6TXpd1DuH3JNep1++S8J7qgwAR4LBgbn0ytvzO17cm/gG9zd9bWk00097lhWNwH2h1MOZohwpGuwaeOYTaSYqpPgPCXiQCXFbos1Oonfqby91vohWqTlP2ui3+syckjfbududjlMOyZ163q3Ewd8QG/WBely1HBSO4GE1kPi8USjpEsUuZTP6jSDxt31TOJh4AFYnYClGOZFzrTZQTJLkGlLKJmYRgv2jXLh9+zyGnfv/ZwiUSzHHazKvnTrR+39Uqcuo5NuqHbCIe4eEizK7BPdYEsZh3yDO/env8tyhVs24t6YowO4w5laeJWnOjDYRRugfqZ8ypmqSEPHmB+ponQw15GPONZaMvFv+qBii/Bd860fbNu+e6//PCqfavj/Dl4lNbhwAb9EM4HVBukrx4uuNzhLKz6MemfjK2dBGEuRby1OUaqFAoXJSNV4hydW+7Sro2sOgqDXn/eZB1CoKct3Ejz0aNbjP+QKzvj18//t9Q1rJjQVD2ua2zSB0kEMqUzx8cwmvEQz58CJBXTuXkIJ32jIzDM7858b8ejvmvoAHRlsac2OxqPUrT9FRr7pAarsjwSXaDBnVKK8MzzyJfTrXmEptdTpGOqtwbG9COeXF4wPfDL98d+JfjPZ67uzk2f/dwIcAG/XBdLzFaGHJqerKKfsvX8ABSoSQle+fxws8DkYSzkIdN3BBVF+F3MrLVOliUtAmjLhc73CEeUjifNOWlHdAiQiLKvXjwVH+CJKwNNfWnzQZdDH9rvHi6/etun5NELiI7PDx/jRHYNQJUahmKppt/erb4wXd3Jn//6PnSu8uhuJPuE1kCHCa7Wqtv0MMj16IVKuXP69r5sJLCEqVpRH5DqL2QS8uH2XH2KA9tgHR08syA79oH53v/eLK3+ZbdZgztGhjewaFBgA36oblUmwfqcZiXcrnCH6FS1YiyMCNaN14ORVJO6qO+cRPGVHjO+ImMLoXfRa16/QCgfYn+zngvY8khzLlM6FEI0sD6j0wsvx2NZ5rz+YI+e6poQFjzgdGgTYAvwF3a6ndZeE81IICOgXrwUdrvPV346Lu7k7+7fn/2Y2qLKstQFwYe7BESjTFa8HKKmnNBJKnbRnyUigIcjHk2EUI6C9rs4q7avGlQUeJymIJYGD9771z3/1wa7vzcZNQm6jYc3tGhQIAN+qG4TFsPUqfTkETsNYi5lAqlkgahwvNoveqWzakLA0s14/RQgDHHf1RaVu+yNsrVi0WDYL/L16nTvyKUaVpYjfZ8/sPYP6+EEq14qBp7211PEH5f4PD7IZ+Yh2j4ZMznliJ9d9GD4KvrY/88MRcYwtzcUnSdFsIaeOaUL9fjRfKukgtfv9UxhdmJ9JZNkjY7epoXqR2CTJgdf8UCGH3N9eHT/b7rn17q/9cTvc03TCYWjjlEU7BuQ2WDXjco929HkIhdWA0nvk2kczboNedvP5z7MJ7KWaFutWFQ0gOBPGSqVVeV6SGBMLmIvm9RirOj06r0USeyHKrUKSogR5SjcSTTOcP4XOB4Npc35gsl7aUzXV+eG2z9AQ/ZJTB1IUrNGyOgHALoM2BeWIp23Xw4+6sf78/+GjnzC0nIK5PuudymQgRKLRTg7PDMbeJnWeLKjodMio8FlKVRC9QYeppHG8p53Kcyw6FgG1osl90Oc4By5tShEYqMn0OvnVXgdoz/4f4iG/TDff3WRm8zG4Lvnu36HzyIiolkzjE5FzoZjCYdcuF3yaqDKLcWDkcinkps1hTgdg8K1d/Sw088h4QsrTz7XYQuUVK3Ek52/PXGxD/CwNthzE1nB1uv4WE7B2EMrlXf/eXgPWxAgKRcUW2hgy57P/gnn1y9M/EPzyZXz5K6oawxr7Qn1qCnObVB1ZkcUqMiORbqDtEW/REQVi/kksiZR4RBp5aocsacUgHgzjS0emxLQ/0t13955fj/Gezx3LGadVENp6x2eAUO/9fYoB/+ayjOAN4s5Z2XZ/3hb8mowzj+Ac0j3o0m07ZCoaLvvu5cJV8dhlbQ36W8Ojkl9Sprk3LzUo/2Ms0y1MPTsWTlKXH4PMh82VzWev+Z/0Pk1d1gwNvOD7VdHexufohvc079iMzTg3IaaE9smluK9v14f+ZviM0+tRAehMQyWG3yGxlvypMTk516movOaXUkoBBxlZqsUB9zIsBRuF30M5fZKL5m0GqKDpsxeOVs15/fe6v7vwZ6m283WQ1BNuYHZYbtzzjYoO8P7ood1eu2zljQi5zC1/B8C4/Hly+hqYsbDzAs6jfH7cSDRBh16d+k8Duse73SgVTWQ3n6SvqvJErrNtfoSiVtjQ1g7jvBgr9EYyHJTSprQ6e5abvVGFYMNN7xchNQEgAAJM9JREFUG4UA1N6czyZXTt96NP/xDTRaeTq5MpzNF1SkrLZpE4qImgatXtJmp85pKmKz19MzF+1PyZjHRC9zCrcTIW7jTSgEonCfaLSacmdr0+zZgdZv3j/f/R9nBlq/R8+HBGs5vFHTWPZk2aAfsTmgw8odwhghsFw/g7jEMknGQuXqysxipBshRpUcWY4gKIpaV6z9ofpGzzUholEvD4QeiqJbjKRWJ+rUZRq60DjI+IMUp8VD9gJYxrZ4KuO4fKb7C7StvIEe8UlmwB+xCbuHp4OKED0EY1zoLXDp5sOZX9x4NPcLP5jt5VJZxpjTXKViEKi/VYw5EeAE16Rexlw0U4Ixz6YachmUpYn2p9RkhUz35hU13Ru4n9MIs8+9c6bzL7+4cvxf2pptU7gv0Ja4rhT7PbwqfKh6IsAGvZ5oHpB9VWRiF6Egl7KZdSGQ5ma+ujH2B/9K3IcHGnm9MrZaar9K4TzpgaIWnkn9jDrUtCrlPpQ3pyPIlbQRhESiA8HPODUfOone6u5kKt8EopKdQvD455UDAjMP45AhsBxKtF+/P/ObWzDkz6ZWzsOY+3IFkENlF65Y2FaMud7iBvnMiPQRkTzrVZqGhS002SlPnidjDqNegnjMVlKudF8a0c+80+uY+uTSsX89f6r9i74O52OjXpc+ZJeBh6sgAmzQFQR3v3fdZDVGMIYfUe8NYllj/s7j+U+eT68Ow0girw6ZmU1OAHVNQ1tGydyK/5OnTnrt9QnBSzl1sUccm8LvIocv85Ckh2w6U9DO+aNt+NavEYZ3wGM3Q5DmTrPLOm82auPsre/3DDv4xy9IMq4ufyDedfXWxM++/2n693QPIOxuoSoLOWNOXjjpKVCuXGdsggqcRczbuhjzSsUHdUvLZ0F+S0cg45qEMad8uUz3RHyeytJQU54c6G5+/Pap9q/eO9/znx0++zgarWzdAP3gXxoeoQIIsEFXANSDtsueNscISlsWbRZjwKDXpJ5MrFxAO1YnHnayQyXPuVTOCw+6jFC5SC0Kwy7n2W//bIlNr27UYUFBxpw8lQL9f3MkU0jKgukXjPsS6ewnqFXvGD7u+x6lbZ93tzme5vIFv1qlKnDN+vavwVH/Bsm4kvIbSSKPolvat/cmf/94bPld/N6OSgo9TbaNC1rxO7gkKsi3Uh9zQYATxrweJZ1S5KuMRSyR30jClQhwBfLKickuK+VKFSAqCMaYQ33trscfXuj593cgGAOezJxOo+aSzqM+iXdwfmzQdwDaYfsK5CDp5l+GeMaf7BZ90GTQxh+NL1+Zmg/7qBPkVmQ5IuaQNAw9iFSgqjfiw2V46/Xgy9ExhQAN9N8bqaELMeC3UMFCGVsDHs5WEPuGIc3pm/VHBqBl/yVC8F+jucs4zo1bQh62SanweEEK1U0vhAduP5n/5NbDuV8+n145h7njAr9EmE4ZeiitWoUxp/pyKkvTaE1CTXH3m3Q0MuQF4ZVLndK2CrGLz2IxjcqVog9ladRkBUz2/znZ13zL67LMazSiooU3RmATAvWYrQzrIUGgw9s0AwGaJPHOwIpFkWvDL4LRlAf5aZ08/41C8ETcgbcuAvEQ1VDhb5LLvmvDTqFNyfnRCFMOrTtKoFeC/S9ArS44wHrXLSxH2+CpNyfTWXssmXGeP9F+FV7XU5TwBKBxT0o5vL3BCJDqG7gjnvvP/QP3n85/cOPB7C/Rz/xsGvXlUhJpszEnc0v5cWKv60CAo25pWtSb18UzFxoMaFgETzwHj5z6mBcyMOZbeOXVS2e3GJJ0v0KP4bt3Tnf+hfgjIMTFkAKrVxL/DZ4lR/fU2aAf3Wsre2YehyWAnOJnVoshZDbqozcezvxmbDp4XIQDtyD8VEOFQh2GGruQYAwlwXdt0iWFOiE/SwsErCoQkBSGXe6pRVw9WlaUcgUtpQ3Qr7pjYSXe+85wx5cXT3X8NZPLr3Je8Q2b0JXTRWUEKjhKmkA45bvzeO7j6yhHezK+9A56mLeiJO3VzznRMc0sNVlBaRrVmNfHmCN1VVV9g1AMsdmLRQqxSxwVuU00I0azpb4O18h753o+Q535nzrRYthi0rIxfzOn9rbOmg36tuA6Gh/G6j+BHPpdCwy6Sa9JwrBTSPJkvMKAl+0uJUps6CFEXdsoBF8SLHipR/TugvCCdS9i/8QiRjaddifK2ijv+DLm1SOl0jndQq7YgRDqp+Foyru4EutGl6kfgpHUA5wfBDZU8gSBo3EJ+SzWIUDEN/9qrHNiPnjq8ejylcdj/svjc8HTwWjagVSNKIWU3UhPSaNv0BgsMORW4ZWLjmm7nM90LCK5FQvokpZJIrwOLXZiscNTl1jscgF/ioY1NDQ7zcHTmMcXT7X/Fd75t92tzjEQ4tD8nDdG4PUIsEF/PUZH8hMIUUcQnnxAJ2eDwpTZqPkNco4nYRxdmVxRn0fHNrnHIMhGUh0unj7Cc0eTdSEbK1qt7cawV3Lq9LijWnXsqlrWJhn1ly27+AzGgkY0HrD2r4DF3L0aSraFo+mWY12uB6hbn0VaIQ7SHPdYP5IzGHlmeOVIu7hGZwKdpLXw09PFD0bGly4hctOMELuOIk5bybgSf0MqS4OUq8GOd6P4fbfGnAhuJNRUgCGn8HoexrwM4y7pLmxVX64iFnvGaTcuD/V5b3xwoee/Tva13Gx2WvzoPshlaUd0/ipxWrt5AisxHt7nHiMAo65B21IXNK1PXn8w+xv0gf571Kt7o6mMWU3lO6+aIURsgzFXIwSv0lAr1koz9N2eQ0VwQwjQEFmO2Pavqf/VUC9ovTbR7rNPf3Ch948fnOv508ljzbc557jbi3Fwvw+hJO2tx3Offnd36m/vPpn/GPyKjmy+qIehF2vOreau6JamMzYYzGh7CoNOXroQjNnxglQqxyBpF2KuZ1GKloPqWxHqb8Ij30KIRvwZ/4PRznS3Oac/utj7b2Cxf9bd6nhuNetZk/3gTr0DOzI26Af20uztwKCfboUO/PGRiZUr90bmf/ZkcuXSUiDuzWbzsImvKtshzxqGnzyeagheLAR2ObWq9bpUF195VaMCcsiIoAH+B08nd6zD9Wygx3P7RF/LHSr3affaJ+D9rGjUag7D7+20qvvRCsWiGnnyVv9KrGdsLjD84Nnie5A3voKQuy+VLmhU4HZsOfMoVw7jraMQO2rMSQFO0mTfTVkaRJLQ2rSIunIh30peOZjsJWHMN8u3VgEhFjsaDxVam23+492eO+dOtF47CzZ7Z0vTJKpQElyKWfep80bscJdP3TcCozfmJFHXrU5l8pbbEKC5/Wj2V9QoZZEelJmcEOF4teIlybsSwY3y6tXObXUw7ESCIwEahDKrzV3kQvDVi1TtQmU2aKPeZvv8mePea2cGW7/v73TddzssS/DikzqtKsue++GZ1pArboQ3bgBvwooOgt7RqcBbaHN6+eGo/z2ovXUgwmSVWvRucU5CGVEtephr9FaQ3yjEbt5Fd8HKsWihCaNdRAlaPoN2p9BgJza7YLBvMRha50IzvmQw6FKtzVbSY//+7dPtXwz3+2447CYsOhsLPDcPz9w8aCNlg37QrsgBGE8klm5aWI31oFvbJz/8NP03957OX8xmi0Z6aMrLZL4YdLW+nDx2Cm0K731XHpC0byF2I4y6lI+U5GnlN6Fwh5mt02iK1Bsa2tezp497vz8/1P7NUF/LrWaXZQEhevbWD8Bcq2UIuUJBF4qkvfefLX5wd2ThIygfXgQJshMCMRaQ3lS02NwyIERzVqOFQAxIb9TDHMQ3FQz7zuekYGwKgRgy4NRQhQw6CcQIQy5aEstvdP/QOJssxjA88h8un+36fBgGvaPFPoGwe4rnZC2zgT/zKgSYFMfzYxMCTSDMwRt6qlU3ZqEFH/S5rdOj04Hzs0uRbrSYtBSKWz9AydAK5Td6eFH+sCSF48lD2k0pEH1X1Uj91Uk+VvLYJVKeiLW/dA5C8At/QrmSOhPJN6UzOSuiDI6lYLxzfDZwaqDbc396IfTY57HP6nVcu35Qb4EsyJlzS+FjV29NnnoOr3x8LnAO+v6nQYSEDkF+bW0pZ8ylygm0PEWIXa1DbTnC7GrosatEvnyHfgwmlRCHQQMVYcTzKENDaJ3C7ZLa2xYLTMxFGOuyp8kYam+xT6El8J3hAd+1QbQ89botCyZ46wf1GvC4DhcCO5zZh+skebQ7QyCfLzSmsjnLwnK879rdqb9HKP7T6cXwgJCNhYdSS58KoYstGMVa5CuJNFeVj93F1KMwJ8hy9KqSjl7lsdORRK07tGZddlPw1HHv9UvDHV+dP9l+1e20LOo1qoxWq8ly3nJn86Se30KPAU2+UNBDx98ciKRab6Ke/OajuU8ePF+8SD3MQXjTiPTPlgeVOvqJ/uV6k8RgN8IrV+nFHNg2i72qzyAiRGimgtC6yJND7Y36HoiRvCJaRGNBiifXZDNFTva23L2AcrSLQ+1f+pqtM1BwTLBXXs/Zw/vaxVOVwXtTEEil8/rVSKJ1bCZw7sefZn53B4xieLjtFOkUHdReM4uk7m6UX6cWqmDFi3D87hjxZMjpgUptX9d6rL86yS+eu6hPb7CZ9fEWt3W+p8356HS/98fTx1pu9Pe4H3Lnqv2f0Sg79EzMBU4/eO5//8nE0uV5f6wfWv4tkWTWTIIsr55r9O/IlYtSNITYicFOXjktJHeU9gHhDfOrAK+ciG7EYCeyWxFpH5IqftWKluZaCXMUaZ/8id7mJxdPt//1wqmOL3vbXU/sNkPQoFVnOFe+//PtqI2ADfpRu6IKnk8gnHTjIXuRmlw8m1w5D8LcMfytJZ7MIQwv171t3WCEUa94T8itizA8qcNVeqRv23Oq7FqE3qm8jXTnBXGv2v71FQqZmPVatbqE+vtoT2vT48Ge5nvHut2P2jz2KY/TPO9qMi3bzIaoglDyrtchgIiPJxhJekn5b3YxPEiiMOiq9zaiQb1YTBqpidAr9U5FXwBSL0SuHOVoZNAlY07h9e0vHAVHA954UYjDwIDn0hCHwSuflkLrr1k40jxvgniTy2Fa7mhpGgEp88ezJ3xXIRIzCtGjMPcu5+mvFAJs0JVC9ojuN5crqCEd60Quc+jHBzO/A3Hu5/DWuxMpMOEh9v6q0PcaJGuGvVLqRlKya67XzqYkGfWiKG+junUizdHRXi17LbRw8B+1pnTajKHB3pZ7ICtdPTfYeq3D1zSqhxeFyEKJVefqO5mpExrC5mqUbqkRyVY/nVp5+wEqKu49Xfh4ci44gEWiE33KtWKB9ppDS4tERH10JqH2JkLsUHuT+BrbmEsitC59ReTHSRiGwuvURKX0arnWytfEl1E2VzJBD+F4t/vpmRNt1y6d7vh/Pe3Op067aRXRrBIb8/rOJd7bywhsY8YzdIyAhABYx41o6GKDMlvr1EL4NDSzLz0aW7oysxDuR2MMO0hz6teF4SV52YrXXmHCS7XsRKDbQV1wJdcpseHJwyLPXfLsXmcWKLeKntNlu1UfdtnNS6gNHu/yOUaPdbof9ne7fuppdT7XatXUsJq3OiCQzRYM0/7I4PjM6rnRmdWzM4uRwYWV6ABkez1YGJpQPvk6J1jKk8MrJ0NOHjmVoWnU8MjBaCdj/opqdJkzKMP7pjrypPDGJaIbWOvw0MU8EnKtr96gv15EVCd2rMv9BJUUN9EZ7SYM+RMnoj0WNELSaTU8f14HIv/7rhFgg75rCN/sHYRiacfMQmjg6eTKO88nV96aWAgNoaSoB0I1TWhh+boqNwGeJBtLOfZ1jPh1IfpteVpkwCtCNOJdSNQS257U5l69iWHgf6hVzyL0vtrb4bw/0N18t7/L/cDjMC+4bKZlh90YQFvLNBPoap/3pLWezubN0XjWFYmnPBRah1zr2efwzJ/PrJ6JRjOOZCavqym6gzSNGkZbjTanlB8n4hu91GryymsMrxOPDU2ARKpGaBzkpZB6jnTX0/gbsdZrq2okaWG30xRAuma6u80xgnz5HZDfbrZ57VMIr4fYI699nvAnd48AG/TdY/jG7wH5cxHfhHpX548PZ3717e2pf7j/dOFiPJW11WTR1yO4Ls9O3jrJyu6M0CQpx1UFaah+vTaDIS0fxLgRbjcaNYkmqyEBAZCrb5/q+OZtsJQRPl2muuE3/sLXAADpraMLnnl+KXrs8cTy5Z9GFj5EHfk7q+GUi+rISY//NSnpl45CXjn1Ktejppzy5KJfuXiK1fook5Z1Qtmt0ps8T4IwND/W9NZrODHpIyWDXpt6/63uL96/0POnK2e6/wLCWwDLUgqtc3i9Zhj5g/VCoNa7oF7H4/0cYQRQ761Hb/I2hOFPgtR04fnU6nloxJ+aX462oqZ4i57rMoBUvXN4YyoKvwvPXRKokV61T1uJDS8x4iUJ2YrH/lp/XRoXheMRLm1wI3Ta7LLO+VyWCWpn2dXW9Kyt2T6BBhoLKIVb5pD8i+uIeWAKRlMti8uxPmgXHEfTn0FIs/YgpN6xGkm2EgkOksINpGdQy0ZGW3RFo/A6kd7gmaspT07h9VoMOeYAMdPJ86ZQehF15CV64W9F/E0y5hRWr2086EsOlTfbAlIyPw10ue/1IYLT7XM8a3FbFjFXcrWcE3+GEVACgdqfjEocnfd5JBFII3y6Gk60Qhf+nYfP/e+NgBkPj6wD+VE7vDITWp7WfN6SkEzFkFckZYVRF90wJFJbTR4aHurCoIsQK5HmpAd4rV67MO6NjWW8im3epuW+Tgdy666nna32UYiFTDaZjasmszZmNujjRoOG6otJBL82C1EzGgfvgyC3NVIf8ky2YEqks/ZkKm/DtW+f84f7J+fDQyhBGx6fC51AOZodWNf8vKnqFzSqUE9Okq1aGHMD8uQw6mTgX72oo1ak0sKNcuDCcAtDTkz1LMLqILohP16rASfUdTpNA3LhSZtFH25128YH+5rvnDnuuzZ0rOUmNVKBp545eFeHR/SmIVDzDfamAcPnuzsEIEqjyhVKOpQj+abwYAdp7r0nY8uXR2dXhyAta4Uh0OKxS4JytW2CREdblUj3QlZWUqKrZSpXytrWiHPrjXvNw0Atuxr1xaos3jPoKZ/yOE3LqC9+hFz7fZCi7pOUJ9rTroBol8WwqO8Xefq1nmltA9nHT5ERp2uHM2vE4kwH/X8rojB9KGW88BSLuEnwKJZWY17kxa2FfNGYQ9idOqDVvjWK/LgaLU2pR7kWRlx0RKvKCG95rSUKpFi0UUhd5MRJ0Q15cfwutf6V2v7WYswrVRB0/crQXV8+1ul6RFKtJ3s9N0B4G7GaDRGdVp3Fdd5aJq72k+ZPMgK7RqCWp+CuD8I7eHMRqLZnRSi+fXEl2je9EDkx4w8NzPqjJ/yBWGcoknKi+cY2AVrHjhcGXiLTCeb868h0lXI2QZZb8+Iq3lyVQLeN0YAUhfaXmrQTSmAuh9nvdphnW5zmOW+zDeF56wx042danJZ5EhNB7XvuMJPpSMWNlAOjsYyLvHBUOXSA4Na2Eoq3rgST7YFIsn0lGO8IJ0ByS+YMpF1e84brRp3PSJqVys6EQYdnTr+Lhj8VlcGN+6OOZiKdQj3HyRMvwXCTNCuF0sXfKKQufaYWI17dvxpd20CEDCC0PtXhdTzraROvEcgFT4IEt0j15Ny9r+aryx/cIwTYoO8R0HyYBuRMSyoYcM/kfPDkk9Hl9x9PLl/CzycQiietdWM6nTdtwwSsg5Q8YMlLF946ur5JJXEvapElp05mugviXMVTr3juovlGDXXs66+pELShI4A+jbr2NAx6sLfNOdLX4X7Q1+F8RIYBCnVhhGaTOnjuWp06o4eHDy8fofmD6b2j8YkOHrgeZWZGIrYhXWINhtO+xUC0F3nxIbyGZ/yRXizUXEiz6Ek2kBCuLVoiPijEhahLnxRaJ8Y6dNfxogYqKvztZSNMERZaiEnvdJ1I/ld43yQAQ+VmlZdolFJLfr1yEenaqcGXMOo1GaNRl8a1ivajbHHomPf68HHfdx0++7i7ybzC9zEjcJARYIN+kK/OERybaJiCfCt0uS0rgUTnrD8yMDKFUC3CtQjZDuHfjXhga1/ZDlMWl3Ua8aL87AWBToRqRXMXMvAbatyrgiIVhTmJGV/x+lDOtJONDAO04Uvod52gEjfJgzeutPuaxtHoZqbFZZv1eSyT9DO05P1k2GEEyxSexzsk98i4qLYTo97JMNe+gxy4SvTSKZdVQpocw0DJIaVLvMuBeBeiKQMz/vDA3HKkb2k10Y12pXbUihsyuaIVRl9PdeOkr17zVgmZq0nfn0rPBNkNvclJ2Q1/E9dJXL8X9hxXRXjc5HkTqU2qE6d3KjGrVDCQka8a/BoJbqKeXcTWy8UmqzHa1+56fuJYy+2TPc23YMRHEXFZNBtQR67TZBBe39mEqBkY/iAjsDsE2KDvDj/+9i4QgFHXQXXOtbAc7Z5ejAzBWx9aQHkTWrcOoATOl0BZU/EVnd1efehq+J0+JTHjJfWwivcuJGfJiZO8ePr3auc2kWGtGvVqGH4t91r7Ca8n3Bl12gL6XUcReo86bAY/jMcCGnYskaHHzyGUxgXoZcfvFM5Fx7sAFgSKM6aT6awF9eHOaDLtjMWznsq7E39zEBs9FEt5g+FkJ8LpbWCuO2OJLBlx0Z5Wwq1GPKrliKJJD9jpVEeuodC6AZwE6oJGgjDU/JEIbVV9fqoVJwIjkRlhyImNvhZaJ8+cZFhrE35ZP0q6vjR+aoyCaxBvcVkWW1zW6Q6vfQzaAw8hKvS0tcU2ZTcbQliQKX4NakSQP8YIvBaBWm/H1+6IP8AI7AYB5GfV8VTG9njMf+knyIBS7+vFlXgPQrlGyIAaKPRLmt7VdtM1G5JNgxIENSkcT2I2pPW9VhJXId5VPMOqty504oXqXIVQtc1wPA1BLBJEFEB6p53Rb3qtpghjEoDU7DgMyng7vUCq64T0LIxNAC1siS1fhNdfwLiL+LkAGb4iMgtFLfq9vw5z4KYuQbmvWC5pwFXQ4GcN+AMqlIxpyctGRzPfAjzvBZSYYRHVM78S7UV3vZ6VYMwJD1xbwHeQTq5wE7YRTq8MTMJZSoVIym5UdlYRgxFENxhxgecLVnpVpa3qgZMXTprqIg9ezctvo/a8mj4h4SIouiF6okpTIx4w1iPdrY6nQ33e26f6W37saXc9hXGffx2m/O+MwEFFgA36Qb0yb+C4svm8OpHMNcELdEQTafdiINE7C8Y0ee9z/sixhZVYayKVNcEgkma8mqK82yk7kyDdEJonsvZa+VvV0EuGnRrHSCHoikVeM8pkfKR+7NtSRZG5phRe1ulUDQadNm3QaxLwylPwClMQronBcw+CVDcPzz2I0qgIXmEwq0PI7wbxClG5lA3ePIxUnkL1ImReGS68aEMG9eARgWXGDUxd8WQGSm1ZN7B1gcvQvBpOtsaT2aZ0rmDN5fLIkxeMuVzRLN5FGH0n+EoY0zAofE5hdI3wxNGXHO9i8QTYiJQIF1swz4nMRmptZXjctHiisHmVjf6iPS4p/W0Pb4kgKZUb0iEdVmMMC6U5KLo9Bkv9YV+H66GrCSF1I8oNTboYNNiTXH72Bj54jtAps0E/QhfzqJ0K5GPtECTp9q/GexcDsS6E5nuRd28PRFMdIUmgxImwvAHefSX0u40QsAxYEplLyt3CHL0Ukl/7OCWbhWmRyFmS/ayE68WHtpFLruy06kFKjrtYNZBXWzIZNJkmuzltM+mSMDpRs1EfgeEJI6cbMRl1EQicRKwmvVQ6hRc1PCHvG+NqBBfBgOiGGZ3wCCMHCG3OVCrnjKdybhh2K4y8KRLPWGDAwTwTx5MWMdsNpVeBqRDcKJa99h+Y6Y1Q+lMRe128ayq2mrAjBjo10iFjToZdioKID7z0VKrtEVXFrbr4QpOUBuCUR/lgBDK+izDcs61uhNV9DoqAjKEMbbytxT7FJWdH7anxZp9PbXfLm40Rn/0+I0CkrVKxpI5CShbqY92j04ELY9Or5yfmQ6dh8DtA0jKDQQ9GdsmIdyJ3vYjM7mqGr2NlrWEg5dulErmqRa4a9Bpat24Xy2r0oLJwwK8UZi/SGgIjKFMongh4IN5lYcwbKXWRz1N4vdiIsLoGBo6IbjRSSlCLpYpk9NYG/9IyZHtwVRYvAg5aCEl97gUBkQ6L64BQv6TCJsrLKjw/Aev2Fz7roVsfNaHrgHLABg2IhOiMlwUmeZNRn/a6LQu9qBc/0dtyCw1TrvuarTNYBEVZzW27k5A/f1gQ2N79e1jOisd5JBFAlzdVOlOA15l1JPBCZ7dmfyDeSc1gwJYfhMzoieXVuA+CJmbk23Xr89bCkO3OhqzDVFjZTUVR2y1128lFesmQVTxqMqZqDSw8IgZS0EBaWKwRzyt3uZI3+1qpWjXKIWIV1RA5/VQNP+zkrF/+TjWULt7xT0hRZFAzHoIM77zPY53wemyTXo91xuuyzDmsplWrWRe0WYxhLHqS7JHvHn/ew8FFQMl7/OCeNY/syCAA1Tn7SijROrcUHZhbipBmeG8wmvYhT+xBi1cKMduQdzci5GymXu6kH16JKq9TnlMADjnnXoHDVHcpRekVPMAe73otDSGiCVIqQjDTodKHKoAEOAQJq0UfA4dgBaI+fjLeXrdtEnrqZMynmh3mJbvVGNnjYfPhGIF9ReAIPQL2FUc++D4iAAIXSYsSI1tL9e3BcMq3HEp0VPLvPfDg+1BP3YESLHcKHj68dy1C80aE8tWUfyelOqFqJqXDtyFHUttJVwMDfLNtjVc18iBIbLDcVMuvRg5eehdh9Cx54jDkcWqO0+ltGkNVwHNUBzz3op4fOutR1Iqn8d2CRkpDsBxrbdOTP3WEEOBnzBG6mHwqEgLova0nQlgKymbUohOvJqjRUYjegzKtVkiWUl11VwBGHz87iRyGML0RjOsX0nIM5r4goNOp8zDOaZDZElS3D2b6Ct7n8fsiQurT6HrntxDb3wSWv0kftZhBEDTo4sid75kQz74AwwdlBGpAgA16DSDxR44GAqjJ1gSjyRbSH18OJLpWgomOFXjuaOnpIxEVajICb9+UR0ORLDUVkVTQdPQz/qYG6Y7ka6ss9Bee/Lq7SP6GevkDcp+pBAcqQL/820FBf33+XhrTZlLC+s9I/1qNfJAimxQyF7XgGk1ZD/lbSK0mqFQM7xG8xy1g7UN4J+Cym1dcDuMi3v1gqPvRotZPJXzch/6gzAYex0FEgA36QbwqPCbFEEA5lxbheQq1U9idftbAm7eE4ilPNJppjqWgmgbFNDDn3VF49FHUbuNnF6mpxcGyJ81yfE+NEjEVwvRqENHwXoJUbYOW2ORV8tcaIW+dTZPIatIf1krUtiTrVY3lWmm5YpjI7XitfI3+cS0N8YLZ/4IEJ6UoqhKqJGELknsO7xDBwQvld/Q3NDspECEN3nQOJLUoDHecOtJBWnUOGulzbodp3uOwzNms+hDKzRLwuPNQcssh1F5E6B1hdFVer9dk9xQEPhgjcMgQYIN+yC4YD1cZBLK5vBbKaCZ0hzNmc0UDfqefTRBZITKdMZMt4ue8EV68hQw7sexFjTcWAGDde+DFW5Gb10ulc8jRozMZDL8mXyxq1n4uFFVUVoYXlNpQXgblu4JoDENyp1udV63sOrnPyfytht0J4wx3GgaVXiiNU5U1msYCvSOfDek4KNep1fReoO5xcLqzyF/DWGsTJr0uihr5sFm8tFETauXxd/xNG4cxT0IZL6NHzTxC6xmI6STxbzF43XEzXvheDF46G21lpjjv9Q1AgA36G3CR+RTrhwDy7I2xZM4Gr90BD94ZSWQ8sXjGIwx/vmSCkTagFzykakuQqi1pc0Uy8uhaJnUu0+LvWvyMd7zovVhUg5TXSGIwlRh21TV/XZHdFoF+8bX11L6X68XkDfqLknrhbBMpTVUiBTp4ygUy4JV3+hkveMzwtsmL1qrFZ/LURQ4GHMI3a/ntMPLbULZDnhuG2gSPHJ99rVRt/a4U74kRePMQYIP+5l1zPuNdIoC8uhpNYyDeIvTRoZVOIfcydSxTk/wqXqRuSgI30GOVhF2ogxmF6aXSbArTrw/Pk/7sLgdV569LjWsqHeCkkLq0UqC/kSyN+DcKp+NEGlV4byirG1UFKLSJUDsJ3mBRIPTnK+I3bMzrfI14d4wAI8AIMAKMACPACDACjAAjwAgwAowAI8AIMAKMACPACDACjAAjwAgwAowAI8AIMAKMACPACDACjAAjwAgwAowAI8AIMAKMACPACDACjAAjwAgwAowAI8AIMAKMACPACDACjAAjwAgwAowAI8AIMAKMACPACDACjAAjwAgwAowAI8AIMAKMACPACDACjAAjwAgwAowAI8AIMAKMACPACDACjAAjwAgwAowAI8AIMAKMACPACDACjAAjwAgwAowAI8AIMAKMACPACDACjAAjwAgwAowAI8AIMAKMACPACDACjAAjwAgwAowAI8AIMAKMACPACDACjAAjwAgwAowAI8AIMAKMACPACDACjAAjwAgwAowAI8AIMAKMACPACDACjAAjwAgwAowAI8AIHD4E/j8RM/NvdMnFTwAAAABJRU5ErkJggg==;" parent="1" vertex="1">
          <mxGeometry x="9" y="810" width="30" height="30" as="geometry" />
        </mxCell>
        <UserObject label="&lt;span style=&quot;font-family: Helvetica; font-size: 12px; font-variant-ligatures: normal; font-variant-caps: normal; font-weight: 700; letter-spacing: normal; orphans: 2; text-align: center; text-indent: 0px; text-transform: none; widows: 2; word-spacing: 0px; -webkit-text-stroke-width: 0px; white-space: nowrap; text-decoration-thickness: initial; text-decoration-style: initial; text-decoration-color: initial; float: none; display: inline !important;&quot;&gt;&lt;font color=&quot;#007fff&quot;&gt;nsde@dtu.dk&lt;/font&gt;&lt;/span&gt;" link="mailto: nsde@dtu.dk" id="R5m0K3MdsQXHiXzFZC0X-31">
          <mxCell style="text;whiteSpace=wrap;html=1;fontColor=blue;labelBackgroundColor=none;" parent="1" vertex="1">
            <mxGeometry x="216" y="807" width="110" height="40" as="geometry" />
          </mxCell>
        </UserObject>
        <UserObject label="&lt;b&gt;&lt;font color=&quot;#007fff&quot;&gt;Machine Learning Operations&lt;/font&gt;&lt;/b&gt;" link="https://skaftenicki.github.io/dtu_mlops/" id="R5m0K3MdsQXHiXzFZC0X-33">
          <mxCell style="text;html=1;align=center;verticalAlign=middle;resizable=0;points=[];autosize=1;strokeColor=none;fillColor=none;" parent="1" vertex="1">
            <mxGeometry x="163" y="819" width="190" height="30" as="geometry" />
          </mxCell>
        </UserObject>
        <mxCell id="R5m0K3MdsQXHiXzFZC0X-34" value="&lt;span style=&quot;font-size: 12px;&quot;&gt;From DTU course&lt;/span&gt;" style="text;strokeColor=none;fillColor=none;html=1;fontSize=24;fontStyle=1;verticalAlign=middle;align=center;fontColor=#000000;" parent="1" vertex="1">
          <mxGeometry x="3" y="820" width="231" height="20" as="geometry" />
        </mxCell>
        <mxCell id="R5m0K3MdsQXHiXzFZC0X-35" value="&lt;span style=&quot;font-size: 12px;&quot;&gt;License: Apache 2.0&lt;/span&gt;" style="text;strokeColor=none;fillColor=none;html=1;fontSize=24;fontStyle=1;verticalAlign=middle;align=center;fontColor=#000000;" parent="1" vertex="1">
          <mxGeometry x="969" y="819" width="120" height="20" as="geometry" />
        </mxCell>
        <mxCell id="R5m0K3MdsQXHiXzFZC0X-43" value="" style="rounded=0;whiteSpace=wrap;html=1;movable=1;resizable=1;rotatable=1;deletable=1;editable=1;locked=0;connectable=1;shadow=1;strokeColor=#007FFF;strokeWidth=3;" parent="1" vertex="1">
          <mxGeometry x="10" y="90" width="216" height="235" as="geometry" />
        </mxCell>
        <mxCell id="R5m0K3MdsQXHiXzFZC0X-50" value="" style="rounded=0;whiteSpace=wrap;html=1;movable=1;resizable=1;rotatable=1;deletable=1;editable=1;locked=0;connectable=1;shadow=1;strokeColor=#007FFF;strokeWidth=3;" parent="1" vertex="1">
          <mxGeometry x="226" y="90" width="216" height="358" as="geometry" />
        </mxCell>
        <mxCell id="R5m0K3MdsQXHiXzFZC0X-52" value="" style="rounded=0;whiteSpace=wrap;html=1;movable=1;resizable=1;rotatable=1;deletable=1;editable=1;locked=0;connectable=1;shadow=1;strokeColor=#007FFF;strokeWidth=3;labelBackgroundColor=none;" parent="1" vertex="1">
          <mxGeometry x="658" y="90" width="216" height="359" as="geometry" />
        </mxCell>
        <mxCell id="R5m0K3MdsQXHiXzFZC0X-53" value="" style="rounded=0;whiteSpace=wrap;html=1;movable=1;resizable=1;rotatable=1;deletable=1;editable=1;locked=0;connectable=1;shadow=1;strokeColor=#007FFF;strokeWidth=3;" parent="1" vertex="1">
          <mxGeometry x="874" y="90" width="216" height="358" as="geometry" />
        </mxCell>
        <mxCell id="R5m0K3MdsQXHiXzFZC0X-54" value="Operations" style="text;strokeColor=none;fillColor=none;html=1;fontSize=24;fontStyle=1;verticalAlign=middle;align=center;" parent="1" vertex="1">
          <mxGeometry x="717" y="55" width="100" height="40" as="geometry" />
        </mxCell>
        <mxCell id="R5m0K3MdsQXHiXzFZC0X-55" value="Model" style="text;strokeColor=none;fillColor=none;html=1;fontSize=24;fontStyle=1;verticalAlign=middle;align=center;" parent="1" vertex="1">
          <mxGeometry x="500" y="55" width="100" height="40" as="geometry" />
        </mxCell>
        <mxCell id="R5m0K3MdsQXHiXzFZC0X-56" value="Data" style="text;strokeColor=none;fillColor=none;html=1;fontSize=24;fontStyle=1;verticalAlign=middle;align=center;" parent="1" vertex="1">
          <mxGeometry x="284" y="55" width="100" height="40" as="geometry" />
        </mxCell>
        <mxCell id="R5m0K3MdsQXHiXzFZC0X-57" value="Monitoring" style="text;strokeColor=none;fillColor=none;html=1;fontSize=24;fontStyle=1;verticalAlign=middle;align=center;" parent="1" vertex="1">
          <mxGeometry x="932" y="56" width="100" height="40" as="geometry" />
        </mxCell>
        <mxCell id="R5m0K3MdsQXHiXzFZC0X-58" value="Problem" style="text;strokeColor=none;fillColor=none;html=1;fontSize=24;fontStyle=1;verticalAlign=middle;align=center;" parent="1" vertex="1">
          <mxGeometry x="68" y="55" width="100" height="40" as="geometry" />
        </mxCell>
        <mxCell id="R5m0K3MdsQXHiXzFZC0X-59" value="" style="rounded=0;whiteSpace=wrap;html=1;movable=1;resizable=1;rotatable=1;deletable=1;editable=1;locked=0;connectable=1;shadow=1;strokeColor=#007FFF;strokeWidth=3;" parent="1" vertex="1">
          <mxGeometry x="874" y="447" width="216" height="358" as="geometry" />
        </mxCell>
        <mxCell id="R5m0K3MdsQXHiXzFZC0X-60" value="" style="rounded=0;whiteSpace=wrap;html=1;movable=1;resizable=1;rotatable=1;deletable=1;editable=1;locked=0;connectable=1;shadow=1;strokeColor=#007FFF;strokeWidth=3;" parent="1" vertex="1">
          <mxGeometry x="10" y="325" width="216" height="235" as="geometry" />
        </mxCell>
        <mxCell id="R5m0K3MdsQXHiXzFZC0X-61" value="" style="rounded=0;whiteSpace=wrap;html=1;movable=1;resizable=1;rotatable=1;deletable=1;editable=1;locked=0;connectable=1;shadow=1;strokeColor=#007FFF;strokeWidth=3;" parent="1" vertex="1">
          <mxGeometry x="226" y="447" width="216" height="358" as="geometry" />
        </mxCell>
        <mxCell id="R5m0K3MdsQXHiXzFZC0X-63" value="" style="rounded=0;whiteSpace=wrap;html=1;movable=1;resizable=1;rotatable=1;deletable=1;editable=1;locked=0;connectable=1;shadow=1;strokeColor=#007FFF;strokeWidth=3;" parent="1" vertex="1">
          <mxGeometry x="658" y="447" width="216" height="358" as="geometry" />
        </mxCell>
        <mxCell id="R5m0K3MdsQXHiXzFZC0X-64" value="&lt;font style=&quot;font-size: 18px;&quot;&gt;Modelling&lt;/font&gt;" style="text;html=1;align=left;verticalAlign=middle;whiteSpace=wrap;rounded=0;" parent="1" vertex="1">
          <mxGeometry x="445" y="90" width="60" height="30" as="geometry" />
        </mxCell>
        <mxCell id="R5m0K3MdsQXHiXzFZC0X-65" value="&lt;font style=&quot;font-size: 18px;&quot;&gt;Metrics &amp;amp; Evaluation&lt;/font&gt;" style="text;html=1;align=left;verticalAlign=middle;whiteSpace=wrap;rounded=0;" parent="1" vertex="1">
          <mxGeometry x="445" y="325" width="175" height="30" as="geometry" />
        </mxCell>
        <mxCell id="R5m0K3MdsQXHiXzFZC0X-67" value="&lt;span style=&quot;font-size: 18px;&quot;&gt;Inference&lt;/span&gt;" style="text;html=1;align=left;verticalAlign=middle;whiteSpace=wrap;rounded=0;" parent="1" vertex="1">
          <mxGeometry x="661" y="90" width="60" height="30" as="geometry" />
        </mxCell>
        <mxCell id="R5m0K3MdsQXHiXzFZC0X-69" value="&lt;span style=&quot;font-size: 18px;&quot;&gt;Background&lt;/span&gt;" style="text;html=1;align=left;verticalAlign=middle;whiteSpace=wrap;rounded=0;" parent="1" vertex="1">
          <mxGeometry x="13" y="90" width="60" height="30" as="geometry" />
        </mxCell>
        <mxCell id="R5m0K3MdsQXHiXzFZC0X-70" value="&lt;span style=&quot;font-size: 18px;&quot;&gt;Value proposition&lt;/span&gt;" style="text;html=1;align=left;verticalAlign=middle;whiteSpace=wrap;rounded=0;" parent="1" vertex="1">
          <mxGeometry x="13" y="325" width="142" height="30" as="geometry" />
        </mxCell>
        <mxCell id="R5m0K3MdsQXHiXzFZC0X-71" value="&lt;span style=&quot;font-size: 18px;&quot;&gt;Data verification and governance&lt;/span&gt;" style="text;html=1;align=left;verticalAlign=middle;whiteSpace=wrap;rounded=0;" parent="1" vertex="1">
          <mxGeometry x="229" y="460" width="146" height="30" as="geometry" />
        </mxCell>
        <mxCell id="R5m0K3MdsQXHiXzFZC0X-72" value="&lt;span style=&quot;font-size: 18px;&quot;&gt;Data collection&lt;/span&gt;" style="text;html=1;align=left;verticalAlign=middle;whiteSpace=wrap;rounded=0;" parent="1" vertex="1">
          <mxGeometry x="229" y="90" width="138" height="30" as="geometry" />
        </mxCell>
        <mxCell id="R5m0K3MdsQXHiXzFZC0X-73" value="&lt;span style=&quot;font-size: 18px;&quot;&gt;Feedback&lt;/span&gt;" style="text;html=1;align=left;verticalAlign=middle;whiteSpace=wrap;rounded=0;" parent="1" vertex="1">
          <mxGeometry x="879" y="90" width="60" height="30" as="geometry" />
        </mxCell>
        <mxCell id="R5m0K3MdsQXHiXzFZC0X-75" value="&lt;span style=&quot;font-size: 18px;&quot;&gt;Lifetime&lt;/span&gt;" style="text;html=1;align=left;verticalAlign=middle;whiteSpace=wrap;rounded=0;" parent="1" vertex="1">
          <mxGeometry x="880" y="443" width="60" height="30" as="geometry" />
        </mxCell>
        <mxCell id="R5m0K3MdsQXHiXzFZC0X-76" value="&lt;span style=&quot;font-size: 18px;&quot;&gt;Decision&lt;/span&gt;" style="text;html=1;align=left;verticalAlign=middle;whiteSpace=wrap;rounded=0;" parent="1" vertex="1">
          <mxGeometry x="661" y="443" width="60" height="30" as="geometry" />
        </mxCell>
        <mxCell id="R5m0K3MdsQXHiXzFZC0X-77" value="&lt;span style=&quot;font-size: 18px;&quot;&gt;Model governanace&lt;/span&gt;" style="text;html=1;align=left;verticalAlign=middle;whiteSpace=wrap;rounded=0;" parent="1" vertex="1">
          <mxGeometry x="444" y="560" width="170" height="30" as="geometry" />
        </mxCell>
        <mxCell id="R5m0K3MdsQXHiXzFZC0X-78" value="" style="rounded=0;whiteSpace=wrap;html=1;movable=1;resizable=1;rotatable=1;deletable=1;editable=1;locked=0;connectable=1;shadow=1;strokeColor=#007FFF;strokeWidth=3;" parent="1" vertex="1">
          <mxGeometry x="10" y="560" width="216" height="245" as="geometry" />
        </mxCell>
        <mxCell id="R5m0K3MdsQXHiXzFZC0X-68" value="&lt;font style=&quot;font-size: 18px;&quot;&gt;Objectives&lt;/font&gt;" style="text;html=1;align=left;verticalAlign=middle;whiteSpace=wrap;rounded=0;" parent="1" vertex="1">
          <mxGeometry x="13" y="560" width="60" height="30" as="geometry" />
        </mxCell>
        <mxCell id="Jo6vO53GGim_JeBMiUSH-5" value="" style="shape=image;verticalLabelPosition=bottom;labelBackgroundColor=default;verticalAlign=top;aspect=fixed;imageAspect=0;image=data:image/png,iVBORw0KGgoAAAANSUhEUgAAAGQAAABkCAYAAABw4pVUAAANAUlEQVR4Ae2dB+x9NRXHv6Li3gO34kDjRnEPDCo4EcWN0ThxJWri3pioRCPugQtcqHEBzrglatwzLtyKAffe837+acnx/Nve9q3fe+/2JL/c++7taXvPaU/Pan9Sh06BToFOgU6BToFOgU6BToFOgXNIupWkZ0k6UdK3Jf1G0j/CH/ffCu8oc5AkcDoskAJnCIR9i6S/Svpv4x84bw51UFeHOShwR0lfbmRAiWFfGuq7wxz9mSzqZSV9YIGM8Ex6v6S9J0vdxg+/q6TfF5hxsqSXDOvH3SXtK+n8ks4c/i4Qnt1D0kslfbdQz+8k3aWxb5MrfkSGgP+U9HpJ15uBIteX9AZJ1OFnCr+fNkOdk0B5YYZg7xkIerkFUOAKkt6XaYO2OxgKpGbGnyTdx5RZ1O19Jf05wZg+UwKFWTO8KDlV0jUrOWBx/1OJw9pzWqLdO1fib20xtCm/gMMMxEstzMIQ6qYNzxQW+klrX161RUzVzozIsFkZAv61EuKLdWaSgNFnicl9y5pxHkl3cnUgsg6VdM4Git7f1UE/Dm7A34qiuDC8BY42VQP4pp4r6e8JQkYG/1bSIyXVukr8TP1iA25Nn9e+DE6/SDyu2Ag1qi3M+KTDtfX4+1dXUuKKkv7l6j2wEncriuEotMTD6KuB5zs86viBpA9JYob9KPEekVQDb3K4x9UgbUMZ5Lv32tZY4LhILB4a0e0dQRBRD5TEWhIZfoqkM7lyqZ83NDjg/kXS2VMFt+0Z8YxILK74pmrAL+BPLyC91bVx40LZ+Apmft/hTUJsETiyDMFRWAOPcHglN/phruyDahqQ9HKH98xKvI0uRqTPMgTPbA3g8rB4EH3R4Bl5wqIbWMf6CLtawtYagnhtLR6L+bUX/IEYirYNwsFbD79yH00MowaQ8d9xuBDvM4Pa/CRJLMo1i3eprQu5+n9ZKrwt77xBt2fDh91I0t8c0eyI/qOk90p6WAhcNVS9q+hZXN20tfUwD0Mgzg1CtollROoe5jxR0h4NFJ0kQ2YVWZauiCZc5W+X5OvzzMHgq4VJiiy/qBObmAeYASgG+K7QilIirVaTQ0mwDP3mPB3bFNxZ1d7a72OUv8oR9iOVyPdyeMdX4m10MW8Ykh1SA7hK4uj9+AgCGtn3THkCUTXwCoNDW5MwDL2nl1SdGrCiDifiGHzMEBcf2BjAxB8aHBhyyzGkbXiPCx3HXRztXDH6xoBUHotTIhZOwV+b8jVrASq1rZ9EiEk4FyE8ubb24yH2GOC7sji/kHTrBNL5JL3DlX1Oopx/hLvd1j8Z9zuE8GKLANVYYsMZg1VuicY9o/91kpD/RP6Iy9syZMRfzFPf/b5SIkBVmoEOffN/Iq9JfLaEq0kuuHRCzts6/D3GYQ1hP+j68oWphXAZUl4EQUw8umNAoOpoF6zyjOA3DL7aWGUhoOXxb1eBt5VFyEK3xGAhrTUUcUqSZGejg9RFxLA2t2q/hIJRm2yxlQyBcNa+gKDYDGPriSWGZ4h9V7rfR9LP3YAgW+UyJaQpvGNLgJ0lkSnEJmpgFoYwMzwzaJecrg4DQ0h09kzBVqnNGGkhIiLN20G0/dSWSqZQNrcdAVWWvKl5AdXWa1NxEPTtCBnqpmYKRCOJDTc6UUFU5lqgLBY4Rp5PhIvM6DNjhJrEOfxCH4nHlVg62SEkJLDOoG0RdeSPe1zovMNQ9L4pWw8LeF8zRpgRX6N95XY7WaLOeo9qO3ltKhK75UoWOonPsxLe42GBT9boayF8qSzrABmErAMp7cgT3f/G2GT9qXGhlPrR3yUogDsc5hA4IpqHYxE3O4kT/HHPM95RBiZMxoWeoNeuDI/rhDScYwf3+GdDLhVGGLHuf4ezSX4athXgpSUWjqHWkh2SanveZ/i9yFIhcYIEOfJ8iTp+dPCbPU7SeedtYJX4V5f0vMGQg9BeZNT+Zm8h4d1LrrDjDAI0sq9X9JtBxWBbWyCHiaSAT1V8TC1TKEdsBJl/0SV/OfldX23sO1sbzhq2zMHIN4bs/SgyfxISLPCTrQwuEeRzyhfUQvixstgJy3CdIHqwYxCfY31IvSczsmQngcNxUfdeNkeweJGvuSMqYudZWFk/HjrYEtcdjsRg6zNhVc4jOdtAjL0GjYkRRBz9wZKOSezLiHVxhXjz5uxG2nA+CqLR1h/vseTJZnn0sG7cNPT7KsHAjGVartDJJoMT8WSdImRA3OcWgS6xb1VXZCzW7KczHxE7yGjD53RIsJirKjeFUG0J67I1LdZpryTAwdBZgUHhYy+xfrzFKBepPY70y6ctRbya67OHQXzVsL76PfHgkw1D2xcZ+zBG8kNGTtOhQsTKUYMsvfxYhQ3vHyCJ0Kv/YPYltmpiMPHxib3osW5U5P0zfbuUJBLsYll7hYloX8xwnJbMYGaA38Pi4/u2DntPwkYyusne7yckTjiwyNx/TRK7kpZ1fB7iDGb7dtltxaitARyROe2JkfnkwmxG/ufWCWYaoz4FMNH3ufY3fjcmwi5gyhyZOObCVsaowL90QERa8pX1JzVTEF+lPC7WKxyLuUUbsZib0aSh+hSiSAMGyD0L34xj0+8ujrjxCtHfNqj2r8m4hB5F/ahvdndrRI5XVLrXFkZFoY9zv8LSzvWNgweYzSy8EUiqTslqvoXnfGsO2NGbwyWOgnaZAxI2crgMqhcnRBIznRkf6cwVMSjkl30Y7/8wuB1IMBvLacp1clHPcZXQl9iv1BWLOnegADP7lQWN5lyJ5OzYBn6whxfEJLPRZ1RGXAbyiyRduEAIRD79izgY1rttBca+YIvYOrkKSHr4nOl4/ICxKx/7gqB+om5j1Fm4SYivpOphq1wpUnnbIcPlZ5k+4aHOrTO2fTwctm1iPbsiap8PiWtsBTt9YbGYa3DPFEcF/4QbVfaDau4Z9VjUX8msMxh1TynYPig+iPBUW+ASgaxR0dEYfUiZNWgjAZuBBZAFGtGQIs4sz3AqWmPOEwdbKeevg8HX8AiZ3wwu1hXfR38yRQZ9vR+zBnDUEx+ImMkpAf7jU7/xVWFXeDh3WIesvI/4WOTPKKjQvi4kUGrdYfvEVgLigi1u+MHQYrAbbNwkEjJ3Zeu1XWtunjnUBnzsnNKM8gRmBqUcmrhzLu4LT+U3DMPewM5B7CFqPHM4xoNDctjdlZsVuEXweNcAbbK2pMQr6jKLe4dAAeQ5sRzLFHZ1+YNo4ntmW83pRZHAENtn+se6vhEcrbFsvwYKoDlFIuWueIM5yc6KsxIBmRVoa6lZQRucEdZyFGGpra17B2FyjOA56wq+sVpgVuSyZVgvSicZ1bax9HKch4VKSYfZOv3YQISWozdm7SSx9BRD8Idxil1togReX5yWuVlB5gw+r40Au0nTEofkCPxWhEtxpTO6GK0Eudi80wpxUUc7IsRwUoYZuGMIVNUC7vPcrMD7wYDbKMj51CxzVnGPVoW6XBtaGJsVnG6HVrdxQEYhhtkqiJ5rAxd7y6zAX0U2ZKo+BtjG/zsM/DtMfTysjKxc/DtFgHmeMStIXsjFSfzoZlbggE2dq0I/yD0oeXl9fRv1m+AZCQEYa7jRPzyMPPR3TgHCUdjKCNRXtkpzMgRJ16xLV26gCLMCZ2yqXfpEIkWHFVAAZYAMxtysYIbtdOxoNzIwTe8XLF+cfXwA6UOtyQm7VbzDD8hYJI8gNSvQDkuRyB3pOloEDCAekOr0jwfx8piBUXhmNwnwzGKd53ZfYS8tO8OyiV6MfJKl/f8ASTGFZ8hYZk2tStnUmQUXJj2IQ55T38J3kEa7VoBGQqZfqsNjzzjtE8asY3QSq5wMnFzWyrvXzVXO4lZS+RhVuKYhOKprzo0A0wilHl4Z8lzFaLxN6FNqQGFtr51dQYDF/9+P2HmMKuwHGGaB5ALOaU8lvkVcXN0kp5H9txOAfwnva+yPv5KNf8Gd6FipzdQxGLHj76pY3EiZYVdTKvkt1kNM+24r1soY9bmcKrJK1jbOzQiOhItXpjHZ3C2ARkZAqLRfkDAnGz4JHi0L0I7emfgmvg3LncySdUqF2o0OZJDb0Y33dZ5pjBGFE6+0xrAljkyPRQJMJikaaz0OLHvlPMdFt7nI/v9fXbgYiEOz+2hRwKFk/Gui0r4TXOQtTr9c30i487lQkRnYGsQ+ehQvUI+N/BxMljPCIBzporMwBvUaxSKXIoSIbImT5xi+lc9JnsZbmsr2iKOZ1B7c9WMuGd6TgE2KZsS1V9Yx1HO8tx1GKMDJcnhjLQH9PfIeIw7m4BXGNcNswPcEoe1Zvx6XrMfUrqmRbvXXiBKsY0/QWX+j4qIxLlODmwTXblaIf9cwB6XhZeuuym4iJ0kThbC5LWeeOcQvsLRXund8Ewk7b5/xGGNFY/2zORP3C4Yq9gVaE0xga/bGpN3MS5CO3ynQKdAp0CnQKdAp0CnQKZCjwP8ARJxfFWFXWbsAAAAASUVORK5CYII=;" parent="1" vertex="1">
          <mxGeometry x="168" y="330" width="50" height="50" as="geometry" />
        </mxCell>
        <mxCell id="Jo6vO53GGim_JeBMiUSH-6" value="" style="shape=image;verticalLabelPosition=bottom;labelBackgroundColor=default;verticalAlign=top;aspect=fixed;imageAspect=0;image=data:image/png,iVBORw0KGgoAAAANSUhEUgAAAGQAAABkCAYAAABw4pVUAAAGLklEQVR4Ae2dR6guNRTH/zZ8VuxdkLewLmwooiA2RAUXKoi4UHAhWJ4iiAtFsWBHEN3YUVcW1IWKdSH27kaxN1TsimLv308mkBeS+WbuzeRNOYHLzDeTOSf5nZnUk1zJghEwAkbACBgBI2AEjIARMAJGwAgYASNgBIyAETACRsAIGAEjYASMgBEwAkbACBgBI2AEjEAnBNaXdKSkqyQ9JOl1SR9Wf5xzjXtHSCKuhY4I7C/pXkm/S/q34d9vku6RtF9HaZqk2F0lPd3QAHWGelLSLpMkmCnTq0i6QNJfGYzhDPXnLG3nS0K2hRYE1pb0cENDfFvVI9QfnDv4dUfqmbVapGfSUTHGczVgv5N0o6TDJa0ZIcU17t0k6fsaOc9KQpeFGgKrSnokAfEXSZe3bDnRyrpC0q8JmXwpVnzVGOTiBLh3JG1f89y8WztIejch+8J5D0/1/p6S/o5Ao3W0QQYoyEBWWLfQaNg9g/xRiVhJ0osRWG+3LKLmQaEIQ2ZoFOosCx6BwyKQfpK0nRcn1ylFH7JDoxySS8EY5FC5hoC6LNsviuh7cAwgc+Rh80jn76vZeNQ6OYQnZKwrCR3+S0CncZNE/EldPi4AA6SrCxC4JqL32AJ6e6/ihgiYAwqk+sCI3usK6O29inDgkBFaOohdh9UiI8c0iycfPgneVOY2SoWPAt0fl1LcZz0/BFCeKZhYxrP8ip2xr8mHHwMoTxUkgi7fILwckw+fBVDeK0jk/UA3xefkw/MBlJ8lrVyACjrCUWCKsMmHWwODUITsVYDK3hG9txTQ23sVJ0bAXFog1cyT+PUH5ycU0Nt7FdtI+ieAQ/Nz9Q5Tjmx0+AYhDVt3qHNQosPWDqDO6DAHZwbGQN8THeobnOhjIoC+kcTAY+6wRcIZ4ujcioYsj3nttyJGoQW2JGPGkPVCRM8bhVp2GbPSvaiDI6AoSu7OVJ9QbyDLrzfcOQONFiIEcN1xkPwj/YPNIvGbXqLoS7kWXd9UyBTjrTHzqXolYZQvJZ0iiVHapoG4p0Ymo5yxX5q5FqHTQg2BTSXh9uOghUfcec6VtHONDO4RJ+X6g0ycHWyGsAaifwujvFpjFGekryW9JumB6o9zrrn7qePLktBhoQUBXEIZykhBXej1mxMuqC2SNu2ouAjVFT1NDUMxeOi0UebLPZXz8ZKohJsawMXjGRwpSkwL58vxgCThPHd61adgCYI/wcU51+hvnCZp2wHly5JqBIyAETACRsAIGAEjYAQqAltJYph+2WxInnn32yXd5Q2dcH5bdY84xOUZC5kIMMd9ctWv+GIBnULXOfy8MtxJNm/e3jKsBaRTxwCgA5rziDMDvXe+oBxrF9vncCBPbCnp2ojzWk5jhLJwlGOdCLotVASYk7hMEuvQQ2ClfrOhDTOHk65vGOw7p8UXwQ4Oj0q6RNJR1VLmpd4qXVbyssqWayxzJg5xeYZnmxiXL+bsKQ5E7pRYBh1CY/0GuzewI9Biw27Vrg7hmpBQJ7/xTNlxsQqH8Dxv8VmSWCUVA8E1Ng+4Y/Zm43tL/NwBmftIujOxUYFLF18LDnVdpCF3nhYkj41e2EzMZTg80vq5P9PX0DSBfAX0Zeq2gCJNrNodVWD+mvnu0AjuN/PnK3JzMZwiUt4upJF7G4/FIrRcYl6JZPSPWSbZUKyNa09XXEjDeVWa3IviH98cQ/OYJm1sbxEySuVKRdu3wJf6QeJrxiiD/VLYiSFVTHG9C0fqXMbFSzI1UkDxNbiNz2iZpPxoHx9IJckWgFTofrHlzu8bmnM2XoMu8f6RTlof6oumXxKdV5zw/Dy4czqQgwh7JCpGvEHWG0QOlk8kDnvhwlSMwmY1JdZCLp+alr9wXI45tX068GFv6hR2mHBfhzvSYMm5fqUl7vnR2ePKJdYd6XT1/k2an7X/nbtju2rTbO9loIkbGxK5spepXViiYnUjee5lU/igyNeBP+2Y1l/QIIl55ZP33oUNZytn/Y1kGCTct3epXHyCGGbx527Yv3GjxYvtRgJbvT5WLR9jZe1YA/+pgSY8mz6P8aUbq90sX0bACBgBI2AEjIARMAJGwAgYASNgBIyAETACRsAIGAEjME0C/wFwqydcpf0q0QAAAABJRU5ErkJggg==;" parent="1" vertex="1">
          <mxGeometry x="168" y="100" width="50" height="50" as="geometry" />
        </mxCell>
        <mxCell id="Jo6vO53GGim_JeBMiUSH-7" value="" style="shape=image;verticalLabelPosition=bottom;labelBackgroundColor=default;verticalAlign=top;aspect=fixed;imageAspect=0;image=data:image/png,iVBORw0KGgoAAAANSUhEUgAAAGQAAABkCAYAAABw4pVUAAAT1ElEQVR4Ae3dBbQ9XVUA8G2LrYCtWAh2dyciBiZiYNeyuxvBVgxUxO5WFEVYIHYLdnd3d8D9fczm29/5zzkzc+/c9/5vrbfXeuvMnTmxT+0+50Vcw94j8NSHCj85Iv4yIn48Ip5p7wau61s/AneLiN+JiMeVv3ddX/w6514j8BwR8XVlEuqEvPNejVzXszwCTx4RHxQR/9SZDBNzj+VqrnPsMQKvEhGPmZmI/2jevfIejV3X0R8BTPrLI+L/moH//4j4moh44+b9C/Wruv5y6gi8bET8fjPgyNKvRcRrTpW/UfP9Wso6ddQ75V8wIv66Gex/O+Ql4j5VKfNOJc9/R8STlG/XjzuNwJNGxC+WgbYrfiAi7jRT/weXfH8x8z1fvUJEvFdEPEu+uErp7SLiDgfR8gUi4qUj4uUi4s7T76e/gI68Qxlkk/HFg5V/35L3Vzq4vWJE/NeU70c7eW6K1892oMdvc8AEGfiWaVUiCwZh9EfsRMe/NyI+barjeXbskd2Q7f96RDxFp26r/ZdL3kfM5HuyZrf9+UyeS3v1lBHxJodt+4UR8asRQVLJju+R/nZEfNnUhraOBYOW+HxIpxKT0ZK1z5vJS2/JuqQfO5Pnwl/Zsl8UEX/TIFcR3fv5Hw40/6sj4tWO6O0nTngyi9x+pvzcZPxURDxdk/c5GyXSbjtloTTVb/tpq75dRDx2xST8XkT8YER8/sFI9z4R8aYR8boT73jhiXcQQTFG39730LH7TSRrTixtJ5dC9+4bB+OZI4Jm3sLcZPz0AfdnbDNOZDhxQQ1eZybP2V/pBAPbbw0m4g8i4isOee59IDHPvgNGBIC3jogHRsQfLrRrYuYGeg0aWybjDRs8vn5NA3vnefWI+KUGkVwhSMiDJhJyTlld3cwX6PnfdnBBOuzALbBlMpjk8bPadwLMhYEV+pUdJv27EfEeEQHJiwbis91aJaEcJOk3RcQaMXpuMvCMOTKlj59UJkM7SOyFwetNzpnaUc9W4dsfxFK85LKBoke8Jtm1eH7WAnJbJ4MtqxocfzYitH92MNCfMmN0+5eI+PCB7H52xAYNwPn9DyZ05DMn5jMG+bdOBn3l0aXu/50Ek0ET+3xiQHtkaTg7910R8dz7NHHWWtBzGra/p+20ZDJ+oekjMvUMnfxI3zc3+elbZwfespZx26LvfWLLJpLllCL1JRHxbZMo/GMR4Y8W7B0zBmWN+EvOPwfMTYZFx3io7ySmj5jI4D2nif3jZjKQxzX86ST80cdW7ifevtQRtbKYvtXka2j90rnj1qTw+drDQL3FToJDbzLW4JJ5/uowaazFZwWGvmpS0LiVS4HaAgyFzBt/36yo7Mwp6T9PTiNK5DEwNxnwxAvW4vWog471XMc0vqUMmtuu4odEBLFyLbzGQT942IqO/V1EoNXIE+XxAYfQmi+YdtK3T99aP8XcYGGuW3SNuclI0VY/Xz4i3m3CxaDbBdqlgf9ZRMBNFMrZJSpMrGVu37hB233+g6TxfYOJoECxc71lRGxRnp71YJZBvz83Iug6c5PinbZfZGHVjCZjVBTZvVD9itZrJ9TOMk33zNEVeSLmRx+Y35w5nfkcc36lWuDEZ2TKbpqLCPnPCZc5nejYyTgR3eOKf1gzGbZwT0ysLZDE5sRipoxPOHN0nx1ND0L66kLy/BMHi0L1m1ypyWAPIuZlp4h1TCRL8KozmruIDYa/rQLAUluj79pCzv6n9EFfuFn17UpNxtM04q2JMdBLIEisJVF4BH/IZYG2f6OZFHrTbzbvkoFfFp7Ddu/fIPuRw9xP+HivZkdZjTTXsytHK3AjJRFEcre36U09GSSSdMhD/EcGDv4cC+JeLaMcXnEsMM1Y2dy9Jtrfm0/v1pDNuXYJKJxaV2oydKQyY6TqxeZ6V97x4v1r6Sh+sdWMYgUbdJGAf1Tqagcvf8tjxSvTuk0Lard5xDNaH/hNvTNgz5SenZauMU23HjrW1LUgzokO8o9NuxWHpWfaOdvXyFRxJSfDINbdQRMdrT4kQBhOHTAhOWuAaEr7rlJcrac+23FrolPUZXLbUM4rJU3VwRPdXQeCUjcCXsCa//tX8Br1MWcwNdSy+SzW6nMmDVxwQ2rBFDq+9xeffOdsYQIjslxN/3QyYWjrXJNxx0mptSjPBt9dOsiB07P7QwBjrf7qP1mpo4hJag11VjZrLaPjVsD4v3PGSWZXcZ61Jp89eMbzFRLLbX0WMOOVfCyRHka/uiqF5I/ASmIqqWU8MzYKET0V7nqIRmfwa+uvv/eYDHgKbcp6La6z+GRqdB16zSDYA2b4qv1+Ry9jeU9jzk5IKWba3BNMujrZrWpbnn9+RyuBCai7nJlmd/i50gkrbQRCebLDdI+5iPBavkaHK8fGhF+dA/AMfCjxk+61Myq+VfjhQdwViIu1A+8yqB1jrSvwwYO8PrHmVlKINx3jXVxo5pbPFynaCrarY4Zq7AbOLGTlBm/EzKv1F+Mc0X8xrNWGpO48dbSEPFO62Ca+a6uRs4nD6uMnm1or3ew1GdwKAhN+aHJI9fAkWteFtmvclWMAOSE/2cNgel+DGx6+kJfYnPVKl+xhBpnmPQpBzfpMtAA4ZfaaDN2pp6EE142AKT/x+Z5Rxi3fdMgNBFmxsJgeMKFkPuk79jJOBsXqj8Cj5pxDWQXvH5tZrX/N8w/vbA7htaztjvjjp5e8/O7trs2+bUopXxUBppMeVEkMHxk5qippU//oSAAcBF9XPDzz/HG/8qPQwFkFqu7T5vf7VAbOh1IlqJFNrg2mHkmmvTG94f2bNQPRi1VV0LbMQUDTR1AlHau4BwagBiWrnwYuBHXuHAUa/7YdH/rSZCj7Bo3HcA6vSoooyz3Aa3M8pHbXySDYKysdHVjUUCVBDrT0wJnArFOKL/RApGPN6/do56kHzzhGAxcVoi2hriOpKA/ryOuA0QiMWeJPCDkZqP5Z4WjViwbJfFL+jx7USdb5tEe1+R1dqHUKnhjxGeV7kzGSDLPdyiuR1B7wela8Rv4XBzgz71f1Ktzy3iRkhW4r6AFxNfNJ2XN6UEN+nIrqQT1Yafct+dtPmQw4CEXNPoysC6IzM5905Lqmh2XeuQOfvb5339fjZiMJS4BYNvzvC8FgNdS0t43xquph/Jguhk/4cOpkqOVTSx/4cHpgl1bld3TdkjHLcXH84mSoJuyPGtRWpSbeuh5gxBTGRLLHP8ThZh7paMftMRnwrWfPKXWjCMMaeDdaLMYs+8HifTJkOKRK329QWz0RRILqAatxIih9rU7GKkLzjfTATppj4HM843kXyJ4DlxW30dnGerDHGfoeGLOsk0h+MtSQndHFW59dGv6ZQatk8URQKh52DmpUC0tsD6zOWh/Rdm4yDAwrNSGi51fh+691jXZlXQRw7YExyzqR8pOhniTiAexBjdYQKNADZzwSQWnPqisiJfMxg/SgkpneZChbgxd6fAtzzjalo4NFjjln3rnLABLf6jXl2z8ZaoACM3kPePoSQVHwPUBiMp+0Jx7XjohYGcUKY6ofOtBPHHGuZ/p6TLi91wpv6kENohuRLAeHsr9Lelyvrdu8r6dTR3FUH1Aaxnd6wJ5jpSSSPSsoUpZ5pDToY6E1YfTIpGiYbJNZZgQ1CsZFBj2oSiRB4GRwrWkiiU/0wEmnzIdWj6JR8ITMyw41ByaOVJL5BEgcCzU6nwTYk57oWdneiOyKEct8UkceelA9oU7bngxViWNa6IFoj4rk6ISSiJDMO5LNqwwvP7vaVmjFZ7pGD+qBo95CUZYDLfGXEgZ6IMAi846UzV75G94LuckKR/Z/5o9qBb3PDTXd+oLukXVKe04sTp5qvUVGehLSrbXf+oQ0VfLINNLGZGXuF21wcg1HD1h4E3/Ka8/0o3wVj+2Wk4G7NhvHGHvbXUMu58q8o/AXg1KZ7MgCwKeSdUqJ4ZjyCA/fWA6qyK6saJAeVLGdeDqyarNJJU4jEb/V6Ed6XA+vG963zHV0oybXZiLKPDIC7tbMaxeMeI5w1cybqdt7KI+cYsqyAHv+wJkj2cqMSJUFUg+Yji6Bwduq6ceJrB60vqSRzatXxw3vnQOppo6eyKgg5pYDJh0FYTvgWfOOJDiDQLRcEy5a6/QMd2XV0YOWV40GTuBdbWPE16rojpwby12gir6j1UNDrmRidCUFxKpLFpkYBUPL7yKAynjrwMw9c2z19JwcGLyjGgpH1mdlKIHZFqW53j6adWbq4prMu2so0GeWisXFjqAeeiG2jvwXyGEVBIiFc17A2h4F8T0nU3mN6siOY7LM3Hby0p1XmLE2syxcRtKhwa/n8Ef+DTuyOqd2Yeg5EAyAibR0FDfVXhrMtDECNLjW7fzHiLzUuuzIl5hujqZlw2vtaSxt1BUMh6UdbSFUXF+/ItM8kwbX5m2KLv+00qpNiyjcAzuihukQ+0YSkVXa3pcuYGFUptf22vfqrrqQgYPDSHw1BtXkLv9o4biKMCeEQXNE2tbifZt89RYb23ZEDpCLREY6CgfSCN5R3afKaG/Jd34bBFf+IJF9a4Of/tSj0HNVtZGI7tbqgbGp/fFvK3aH1h5090EL6HwN20FLR3K9qtDuugtNCr/KFkVwgNItn2jUNVJSG4IUXmahIB9OVVDVMdrBzj2qO/9GpG2h6f5n27OSoiX/cLVtQexL+1U/8ctLNkxTOYwWeRkFpD2xgs4Dx5QA8Cq+q9vOGInmWZ2zKTm40qWjFfXYg7P7o8nLNo5KqxcPYkvXXhAhsyN0iDVxSUhHNWhmeRIVZZLcv4aUyaM9ZerRiKyPyL3m3AbSVPUf9Y1AwF+2IR25vUf1rPpGo62naVlRR4A3VFsSkrSka6gPDaYo0k1q5/KZaCvGWEQH8zZfCJ8+bdxBIWGpVbfIclJ60sct8MDsEwmu9pfJ3ZUgI6iRMmxvS6R6VNeqb0TD7KCVM9JqVeje3cwvpayJ010DgtUwxLkVXutc82yHfcMG0gfHGuChryNGrj9tKBT97exgxut14MKERhIXhFoRkz9ky8rhh3eErnov10yCPDR7Qc8jd2w7aCajGkrVw0U9AoJMLYMajALoRnVt/la9g5DFW0ZA+24vJiPHj6I6evUxdbCaciYJ4uNPYRHAPA2ISEELgBdvDcNu2zEZ1WSuf8jQEmN2bE3e/BtFPrZtnvzbaqgB0GjlUmQ3+Z+pOhGWIgkG+GYBoncV1+EoEHxJiMAXKX/ZNwrk7org0iCJYapipMFeskMJGqiR4zqAaY7Ci5bw2Os7v0/10cCN+LpkoTXw1SVtTC7lQn0D0fopmAuWQAf5x3M1ZUqcPPvFkDPI0VHq+fvEhwS5NBmqY+bJMtILuYd3ph+3vLIjqh2KJEKqWgJCAAmkyvc6Q0QWGb9mIJbaWPouUEFbldTAwQonSo/sVFl3682kwV8E7tn+bIoHVB8IHWFtyA6Nt0psudLcKCoice4fpcwiseElyceAz91a6t3IJFSb4Wep5n981OUENwVwHFW/hpXei31qEWYn8l9u2t1ickwucsIMs0VMbttQ1okrUR9zyqZdwbQyCoyrdfIa1p0F91EoUC17Yc8C3nKFSxnjtvyLUSaHOZNJ1mnCCQ4cPfwSlDCKo0FEOpnOidFWKWXVUW6hPDR6E5v1tKmQ0CXltg6i0Nd6Ukx9ZzWP1Ma3Ptf4XoiSoNaSgGzrtSeP39yOaQfz2N/qFm/Wi7xPXNp07r7IJYWxreNCf2OErQcQnRWSsxWsfkHRVd85dgKyHKsC/nGXrchMu7I14ZCwrgQw3uUgZIpPHCuBmBwRHGxRBnWOD2Q7mdIpGBkZG2n2a4yac4NLoZ37v+hMOWsksbk6L+UdGl4ZvYHicBJyeioYCP4RziuXnTHJEyyEFrHQMuEv2dfW4MA/wzSTkywlAOwS8LYGgb3z1CDn7BQSxmK8ZI7YG5ct9dkVlN4q1ib+TCtXFnrX9OmcKHTxszfTtoeLSwdq1H1ORE0vw6Jw8iJAs2snSDVzK04AmeDrJWvqyQgNKhApI+63ms8TdzgzCVWpbxQjPGjmcj/Vs3XoLm8j+u7YWXa2pk4kMeOvdV7t0TuXHWizxgpUnOCaPK8GR7iK8MpBvXORZJRgJ5is1sydA2FF4j1W4TkcPCwDtHYGzlaMTRwEU7NT1V1b+7NrWGgOzLnTegZvbkXRrjm68JIciDa1s0ymeFr8xg7b4meQl6SkLLJjICvpaduzSOA050aY2/HnHsPd6kd2asd7lwNokHjKV+1/VbUDNPfbJHFs8Qzy5DHb8x768+ydb1a5vHN11HfwFIHCXjaKQ6YL1XK09isD7SVfa6USZ09Em7Qu1DoQez2L6KfALnk666BXqXF0Nr2WuSmeabE5cFbzMUDxY3KhnQtUqDsu616b2ilIqLp4BrcEPFTc61WHYgSuDNQjX0jIHiCqnUXY2UUrO/+xpEvTRFH6Y6o3aHgWfwrGzOJM0dsD6kK7Uoy9HgXm8K/SSg4MPuNQ/VaLa5Y/R8p0L3qk9x/b+FNyV47uDjsHbifViUkn4lKSSwX3XiWfYO9yw9xlA1NO+jnEVLUhROxk1TZ3pXgIf7WTVnVSHIVzxSpnThvw5pDPZYMdW6UyYaMC7ODshG4NTeXw6h3lvux+dNsXkl9XVJ2c+uxC4j0ss11ENnyoYbIVx/Z5dEB1Q3MXn5VGXH3Pbcdoy6f4yvfuEV5HCe1JdBYYxn6lwZ1TOkns5DRyJuOhkyJ2M1l66yCT5hxeRVrhLHX2cW3gRq3r5OfHA1L4ZWd3WYdSAAAAAElFTkSuQmCC;" parent="1" vertex="1">
          <mxGeometry x="168" y="570" width="50" height="50" as="geometry" />
        </mxCell>
        <mxCell id="Jo6vO53GGim_JeBMiUSH-8" value="" style="shape=image;verticalLabelPosition=bottom;labelBackgroundColor=default;verticalAlign=top;aspect=fixed;imageAspect=0;image=data:image/png,iVBORw0KGgoAAAANSUhEUgAAAGQAAABkCAYAAABw4pVUAAAHeklEQVR4Ae2dR8g9NRTFj71hQ8GCvYsrG1YQFRVBF6L+XYm9rER3iuBKEXtbCK7svetKVNzZG7rUhYgduyKKbX68Gb98MXnJm5LXbuDxpiT33pw7k8nk3GSk2UtrS9pN0rGSzpJ0laS7JD0l6RVJ70v6VNJ39e83Sf/UP7ab4+QhL2WerGUgC5nHSNpV0lqzV/3pWrSRpCMkXSbpPklvSfrVAbgBeqh/dKHz3toGbMGmpUkb1FfntZLelPRHQfBznYpNb0jCxqMlrb9o3tlE0hmSHpf0yww6IOUobMb2NZI2nmfncPvf37IJ+kHS65IelXRT9Vy4pAaE58r+knaWtGX9c5sYtpvju9R5KQOYyEAWMpH9Y4uLgyaOpvXweXHMupLOrh+mqSuvOf95/cC+XNIJknYqWFl0oRPddBqwpbEr9U+HgbpS55lL61Q9n/MkfZxRoW8lPVLn5yqetYRN59d3EramHEOdz5UEBjORDqybgHGGUzF6MidLWm8mrM4zgi74kVUzeJukLxLOeW/aTdmGku6o3hP+jhjK8RclnTqrt3WeT/7LxYV0mqSXxtT5L0m3Vz00epNF056S3ok44k9JD0jar6hFZZVRN+pIXUMtA9jsUcokmqhvIoY8K2mvUobMgJ69JT0XweJrSQcMbeOhkuiS+lcFwxQnDa18huXzbAQDHxewArNB0vaSPgsofaZ6lmw1iMb5Erp53TPznfKlpB37rgpdOoYTfGU32wDdKqgZrLwlgBMvor12iy8OKLlulSm24yJwfQCvi9wMXbYZv+EB5d4dNFP00S2FEQAbOjguZl/1NZJ8uif4J0nbhe2wow4C2wTGy3gn65wY5nA9ze1oKQ+BGzzsHsorNj7Xh57Qg8dnt7MOAod42H3gnGu96Q9Tb9pa0vIV3MxzCM195+Q2V2yjxFIeAlt4DgG/zsl3iDVZ+ZD6TdYgDrGHer5D/If6IA75uQqpYRjF0ngEtg10ewdxCEIZ4bQXw7hDwCY2ChwvlXkGB4R+1nTFAQwNnTQYxktlnmkEhf5hDO1OWQGSwcUbIxdwg99K7pZbjaDY/wuSGCZY9rT1mGbKxa4zTq4wtv0XRY5BzkDSLGuKEVQhrDpj5DsEWhLSxT/OPg+yfTprnB8B+0p6PoIFUSoE9fk4da5dSODuY4IciLx4cAmCHKgjdfXxYf/tOoIf8P3zgzgEoYS63DomJIYwIEJmGL6fp1isGGAEXROS+nKizjCGbhhQMYc0hh8k6bXAleAawpyNeQyUg3ZtAuUgmNw6+duE/oRifv18DW6t/3MEYjjhlDmhpDjnsSpg4gLntm5t3AAFmSx0YR3x/n3CCWBDnc8Z0/3PwW+iakwisAm2JqzSLxfb5+H3tKQrqpDUEyURW1tiZhM60IVOdGNDrLMSsp065gRb+2UnAj+Uua3Aw6ppY/e0nBPCeBkzm56oozgureeYHFf1amgimY7WTDtg/kmT2G6Oc6WT9/i6LDJ45iET2ejw65bap8zdkqhbbvJl5paL5usqkCAJYmKZl9EGBF9/6X1shsaGD3fnokQB80749nqnJ9/tUyA9laOqXtc1dUfg9xZXqW9P3/vY9GoVIH51bWvXHqJv3+Qe8Er0LtCRTwQ9tz/NCc0b8w5L3kXoQie6sQFb3C6rY2rrzd7x611gomo8bJmyxp10pqQrq7GyO+u2n3eAd6tezSfO9Gd31i7bzbRo8pCXMswRRAaykIlsdJRIvePnCzROPd+NxqnnY1Ukp3HqRWDOV2Kcej5Wg+c0Tn1wiPMVGKeej1WRnMapF4E5rcQ49TRGxXIYp14M6rQi49TTGBXJYZx6EZjTSlg4wDj1NE6D5jBOfVB484Qbp56H06C5jFM3Tn2yC8wffs8tbZz6CKm2+EVx7irQOPXVwRRRoHNPdHWIq8c4dReNltt9OsQ3wTh1H5GM/SEdElJvnHoIFeeY7xDj1B1wEpvGqScAKn3aOPXSiCf0GaeeAKjkaePUS6Kd0GWcegKg0qeNUy+NeESfceoRYKZx2Dj1aaAe0WmcegSY0oeNUy+NeESfceoRYEoeNk69JNoRXcapR4Apedg4dePUJ7ve/OH33NLGqY+QaotfFOeuAo1TN0594hUa3Itu5uep+6ui9ckYLjqnzld3XGfzCaTOqfRi/IvEqfuMYS+L8T/sedmWh82/xn3GkIj5zomFY9zbjuUobGXrNKwhxvCUdLF0DlbA8VdTs5Wtx+MWYgx7++QRqvmglXuXsG1NV9wpIcaQVep6S4zp8Ok33yks+MhD2NIIAbBgkTQfJ9akBMNeEx8CC31Y0la2HsEcYwxZNnCHXj3hCBv36VVb2fr/d8agn15t/MLK1v53DZtb1Fa2XnFKkY8TN07h09Ss3tw4wv23la1H2LD6d9HEUnh8zD223PYyrmwNFlP5wL3reb6vHuqBuXfNMqxszXKCoZWtXayKbdOlW9aVrT+qV7buvVvbh/dsZes+UBxIhjGGAwHbVeyyM4Zd8Ru0/DLOwh0U0L6FLzpj2DdeU5G3SIzhVAA0pYbA4iLwL+PJpuz8FoNjAAAAAElFTkSuQmCC;" parent="1" vertex="1">
          <mxGeometry x="387" y="457" width="50" height="50" as="geometry" />
        </mxCell>
        <mxCell id="Jo6vO53GGim_JeBMiUSH-9" value="" style="shape=image;verticalLabelPosition=bottom;labelBackgroundColor=default;verticalAlign=top;aspect=fixed;imageAspect=0;image=data:image/png,iVBORw0KGgoAAAANSUhEUgAAAGQAAABkCAYAAABw4pVUAAAKoElEQVR4Ae2dd+gFRxHHv9bYE41dUSMKig0L9obYGyYRyz82sFfE3iuKiII1dsUuCUgSC3ZsUbH3hr333tt98JYMX+Zde/d+v/fe7cDj9u623Xd2Z3dnZ+dJlSoCFYGKQEWgIlARqAhUBCoCFYGKQEXgMBG4iKQHSHqXpK9J+lP7I/zO9t3FD7OCSyn7YpJeI+lfkv7b8/unpJc1P5hXqQeBc0m6h6S3SfpG27p/J+kLkl7etPJrJulvJelXPUzImPR7SbdO8quPJJ29AfTJkn4zANjXSoJx0F0k0eIzwIc8o0fdv82rXloEriLpWyNB/aikm0n6e5KO3vRQSZeXdM72d4X22ReT+DCl9pSWGce1YmlIa/Y4/zFw/yLpPpLO2NHUeXc/SX+ztIjFC3ekW8Sr4yX924ABdIB9oaTrSDpS0nkl3bCdOTlTyj1pbjQCtRsnTDlhRPq9jPqjhBnvkXSJFV9L6z4xSQNT7rsiTddjxo7CUK6MRczWFksZQ97bTF8vuQIRGHKSgQiQn+sRUyuy05kk+Ziy6AEekZWtG/4q6UWSrifpKEnnk4SIeXfCDBjCQnAqMfjHXnLq1Iz2Jd2xkv5ooESAhoQvtwYYzL5iGazoF09XbheBEZgxYdYwU+ncxpA/TM1o39KdrRFfTxiw4mbd4QvBskicgkllSA9qLOTuJuktQTn4Z0lflvTsdhb0dWvVLACnUhVZU5EL6d5hDHlQeDc2+DDL65SxGdT4/1eLxDGGqWvX6nwVZkx7v2QMWfS0dxVQfc9Zp/g4MgVIpsuRseR50b7C6/scgVcbmKhObpJHTZ9mqpOXpDEX9vCszWoZBeMbJH1S0lclvV/SiyXdthnImX1lhHrFVfUw5YGSzpAlaJ8hpugZrlz8raQLdaTb+1dHtPsQ37eWHkUI4V9LelKrZHRQWOm7xpc0zMge3Oi9rtiq3pkWM5tiAPcxg/hoC9jkWiTR4pkV/bCHEc4Y9F7XTxBDlZ4xxdOvuocZ5LE4ghEPkZQpFFeB5c8ZdO+UIHfHtid5/L57xNQtk/z2+hFqDUTFTzp6BLL/Be2uHYMt27IMsL9M0qB4vHaCWDFyyHYQnTEwlvwXNWacQ9LDm32KnyagFoBYgT+vY6cO2f/MZBPrm5KYDGSEiQ8NAK3tt9vdSJSXTBZ4hnha1NQW1ccjmgH75x2MwFbquSNa6F2TceLOGTfqs9MRoDU/qplS/qKDEbTU5zTi4oKnJxscwuaq9Cyubx2ccmER0ZY+ZoW8LwDCiGc1a4sLrIHNdY0hWKlUCgicp1FfPL5HXc7eAmPA0SHd1KCryZkIVGpaOgs6xggWbKUH+BWLwKe3W69zgublzJn3TuaFWQ4zHAem3DOvf2prtrOJDyzllOsmytiZPB+ZaFgLMOiUMAPFIGGTVMor102WtbV5o6jDgKyAEK/0iCeu0DNt4oNi2YQXSSzcHAjusUSfY7AeA6rXY0zavYh7r4QZTGHvcEhft2iGXDqxl0JEXX1DzEA0Yg6KqgWVx02TchbNkNdb7/hHs3F0gwSkOR6xJYsJaQQcpjjF94QXQ8ckJp6sxuem0itYQDrYGeAeZ+76bG1+aGnjx3+3Q7s69SOyXhHLrAwJyLpRM2uQuaivV0SmeJnxXcYwj783924ZiO3tHNTVKzKx5WUuliEODqeY1qG+XlHOhPQB7u+xINl7Yl8jfvi6WtW+XsFUF4ZBsVzCTm72c1jrIa/XRu8va8AwoE+l2zfbuN7bCuilV8S8Pa4fL3ul1Q37rb0nrDAKaFw/scYXZ/vpgB57Rcz+NCvbJxMcn451I4zt1V4TRmnxozHZnEouYt7XcX6QMthniWV/r9lX8XHiQxYHFxl7TThtiaBMOd1aAKJ3xbz6Dudz/BkDiJiGI2+RsFaM7xnjDlrJGeuz0fCZG28H6KviB191jRLdIBojiD5CixzL/4AloI5ufuqizZLs7i0H7yMYMAcAppKLoNcNyOhKVgfqw7NIj7Y4TDxctMX4OxvGVioy5E1rfgnW6zG/Tw/M74OWjl4TCdGGkV3M20VbjL+zYd8vx0BtHfIpNPJ+SEvmeEIEG/A5qx7pFRbHRVuMu5Pha9gHYiNLS1yHMPd0xwAwqY9gGjOsyBQff1DnxPeEXbT1lbPV759vH/j2mWrrwPbNtEqxMCACzkDu41mfaCt57dz1LIlRdGb2P+XDECUR2KFnARFRfePEENE2pc6HngbD5QgavqPW8Y4QP+hVljcmpUPJp8D0iEiZaGNmt/P0YQMNxy9z0TMs7zEztyFTYBdtqF92mrLBkfN4cxFn/WLvg/ljqG+cQAEZ86d37zShC4ofNPf0kbEo5o8/xDGUjRNRVcIBnZg/+rOdpfMnuqO5z9zhmi8C9p2RaGXjxMntKSiY4W42xvbAkdXZbPSnGFgRuE2FOTc4lji1O7Q+OMHcWaK1Dv3QueJxYH8s0UtQu/TV4VPNeRSm8DtLh8GQH0xEi2NweHpYxZTP7IPrcBwRHyRTYMY6YxSqGOyNcaKMa3H2Tj7eOiLY6Z4xpJFyXtxbIxpVP13ruinfhh2qKhlSp8XGwfeUy2xaItYhbMNGRrGDF8nPkmzCBDWWt4jw3Q10fIlwChby8yIcYYvkPqjGrMxjPjXcIoAOy7dI3xjQ4a8kYg9xrTAOYuL7r4S0NTgBgccZoExTLxXyYY89Au4LPY5LR+88+BVZ5fMqZFuDGQJMLd1YDc8LkbBsjIAThgmRfOZ2tfiyhocj8FJr/Uwt/WStKwvpLe7HCjEWe9E9h1dh1phYTmZeiDCKuMWsJW0gM3zfIl4ikPi3ioTRdeYyyX2vM9DHfNiNPGii13Y5N0ASYHe8tYTroggiR8rcBRLiK8YpYbcedGO2w7DB5bh2qd+qK/Uqht5bxZhVi8BYSQZ2nIdlH+ebQpexeIi+g6S+3hG/YR3LzI18E4tA9ECxkh9JSmI9EePEMEeloyNjwjyLcdySPSli9KPbDHQZiOiCSfQGP1y6daILP+sROGZN1zJo+Ku6OLMivt/3qVA24fVzqCNNnPwXYtzwmSRM2grRxSIQhV9kyJtLzcPV99w/2/wnlFuT9KlQMP+cm2K9V4VL74hlI6Y8/laILp/CsgjkSHQkFIpeeTxIuwrlaTFR66w4ptuECiXmn4V/3DpjtqqlogtvqYdOvr/gi0BU2m5eWv49wPVdfSoUnBvPTc6EoflnY8lWMMQHXvfWyTokfjTrlPJfHa5C8aNvmKHGtMjtuSnmT3goba3I8sEtMoQVui8Co7N6PMvFhSSDfPyzX7cGOQiG3DwxN3UmbfWg/jFrxVhwMIbgeAbRFFsgbvvcmyh72DEOi0sYAWM9PWXNTbHsEmbNg2V8xpxMVNFQtmbFzj8JlA/puz42QdP/cq4rj034V2fQ7ipzyLutmF0VbBm0+VPGvoqzEnc1CnmgVv/8gPTsPm5iz/t2yZZy37fE91uz/igM4Yrc72IKzIhjS0xLmHdd6WFGHFs8/br3HFFAPCGmEFcR8K7wVokqB4HWzzEB5DznCjHHxLLj3it6RpYeYzZO3WIJwjECwojErGd5+rnuI3N+1sEcZoQwsVJFoCJQEagIVAQqAhWBikBFoCJQEdgLBP4H5MRkofv+DTMAAAAASUVORK5CYII=;" parent="1" vertex="1">
          <mxGeometry x="387" y="100" width="50" height="50" as="geometry" />
        </mxCell>
        <mxCell id="Jo6vO53GGim_JeBMiUSH-10" value="" style="shape=image;verticalLabelPosition=bottom;labelBackgroundColor=default;verticalAlign=top;aspect=fixed;imageAspect=0;image=data:image/png,iVBORw0KGgoAAAANSUhEUgAAAGQAAABkCAYAAABw4pVUAAAMnElEQVR4Ae2dBRA1NxHH/7hT3KHF3Qe3obTAFGfwwWGGwXUGG9xbWqDFi7tLizuDuwwOAwzu7v5+8NKmIbvJXXLv3et3O/Mmd7nLJtnNJZvdzT5pgYUCCwUWCiwUWCiwUGChwEKBhQILBRYKLBQ4k6TbSHqUpGdLeomkgyTdR9LVJB1vIdH0FIDIN5f0SUn/kvRv5/cLSS+QdL7pm7Vn1nApSV92GGAx5++SniPp1BOQ7aSSrifp3pIOlPQ4SfeUdHVJx5+gvtmgpJN/HcGMmEnflHSRTj06r6RXSvqj06ZfSjpM0uk71TkbNA90Oh0TvOb695Ku1Nizhw0cHL+RdKvGOmdT/NYdmREY9rOVAHCuET08znrqC3iGpKx39x1R56yKQLTfFhjyT0mfXi3cr5D0fElvlcRiXiLWF0fM8UhvJbzec9p6zVlReGBjXu8Q4M/rRRTRNwUksetI+pxTHsLdLS3o3J9b0l8K+DxmhGc/knQSp57ZPrqoI9bSqctUtPyEkp7rEJGp62QVeHjlWQ4eiP11SUeuv9AfFt4dMhAqmzf9a083OvUHSYi/tcC8/2oDF4S8SQWiE0j6nYEDIeG6CY7jrqbNe0j6h1GGKXbn4DtGZx4+oienkfQrAx9rTwmQysKUk6Z3cAqz90nf5x5GTbEncpoy7hHy+g0lWV8H+5BTjUOtJxvE+XEFvjsbZf9UEAzOb5SDKZevqHcrrzAd3FLSR5w1I4yy9ze0cF+DOEg+tMGDBxllERo8QLhA+Ajtj1N297MC5vY7SmKBjhvqXb+woQfndOo5RwEv+4dcu75VKIdaBYbnys5K/EWEfK/R0FzjQx4jdSwwHQY8aXrhAtKbGWUh9lmcstcwylH/xZ1yG33EAmktsCmh4nvma/RHY6GFIRA9bkt8/TKjQUyDaKTjd8M1EltpmjTQ9s1ms+Yp40KD0/QbHXa4LQyBCh82iEtbXyrpEusN38klXXVlj2G9S/sR7t/cl6zjsLF3sBa40FBSFsrHrEbXAevP+nTjqvu/Uq0MYb8St7PlGgFjq4DM/e1ChxhRV5ywla0MQQgZs+6ljHvXhH2sRv1yhxkYjzahBW1lCLvvdzj9SAmfu/95QQioJmjLi+ikLNEPZmxKHm9lyEMamfEDSRdrIWSvsm9wOnL3XpVU4GlhCIs0gyc36mvyoMHZK9o4+SsQwfo63jd57cesYCxDKMfotgiPlhdBJHW4+Ola03zlYzZju3e3dTpy6QFNC44ET5T0Gklvk/QESSgNa2EMQ7BbfMDpA6ZZNrkAgguSJBu+M67zZpdYau/PV7Z077W/FSru3AjFaeEUlbjOZuAAb26nDnE/4ZSh3E0r657Na+h6coR8ZKGFiJh3kWQxIsZZuw5dwWgLuJCe+PL4HSHpa867oe5nFPowu8cQ1VoIvZGFhtQTkwNBQopavQa86TPgqk0/K+nENZXO6R1Mo1YHPTecFznlcvg85sb0eONAvLm6yPuJpH1ixLtyfSKHAPjd5gB1vEWIXD5TDF9iCVC/1KhtcnXEeZgKejnaldo8yXN2pnGHwvXtM7UhMSG1hHdy6fckvWr1ziNWyr79MjisLOb7HL4hee9c+WSd2apgF/IZucjouU7nFnW8AXPvkodLJlZF1pehgHeKtZZZ9YV89hYfXO0zbjC00jm+z1cQOpamj880GBE2fY977CCXzLxfk4Udw9vUhfqY+nBI4Pc0SY9ee9h7xqea+sM77FGuspLebrG2kmKGQNSumW4Djqb0tJKs6YpRlxr48Z8KxElTdEhjAFXFFxy8cT25fciYOuMyEBuVPdrdvxntYAo+ZBNTIW75cYfj62fGrV5fo0nNOZdhWTtl5v1SFkID3iRxvd51b4awe//QgPrZb02m8cZi9mujMWy4UIPk4E6ZMg/IvejkYeJl0U/1Sh4zeNaTIUyviMalOnPPGawMzq6Ax16uMvKuXajpWpKwUeO8duPCu0g8HIphw4eQ8CmnXqs9Ib8XQ1hzxjIjtOWhhX4PfoxUEpDHaS/3Sebmgx03zbjO2uteDOHrrK3Teg+JcIirrMsgpitrAfNcLl2kyUMOvlid8fJxxLOe92AIQoTlyxvqReJDv1dy9Hhd0ufRt4hzofI4ZU7vtakaOgoZcQ+WdAajbbSTqZKzKC0/TANxn+NrvOJx1AuAVMlBJEt5ig0pd8wilK9O72c0ioOavYBDOXFnvWsknSBie/YQD0frMwQZGJADjnRb+NkIN4M1St7ejPloBKjRS1PDR9duREeX+t/BS6vzU+YjPVrAemiZKNg6NAO+t7nOocHtCagyvrRmDCI2oxC7NbK8dSZ9W19IScuAliBHsxY/5qNojciaQ96bIUdVOOBij2QI4S1yDMEit23YFkPGTllP6kEwohjkGIJOaduwLYZ4i7pnxeyyqFsaXvYme22ZIx5DphZ7Oaodn4tH6oIZk4u9lzO+EL4aAsbUAG40aHjx9f2YJPRZY+wgaV0eQza1MUSBilSFSSE3k4S816aNH3vPmQeL65w5twDx70bOufLDrYID8qdmCE1BBxeIOjZlI8vRhm7A55lrDLv1nI6Gg5ElxSD7jlZj0SYY0kO5ONb+YzLQi02CsYavIQBrDufOcwxM81odlTfBEPrFvmOILSbuJ7b/7up37B2es0KwcVgHKeMGhmv8ZC31Q2BuKd0UQ2gHeitL6x36FKfEc7lXqQMtzzkBFVcYXzNHYruuNSLxBfU4sbpJhgTaYdNhD2bF+fqu9N/z85P7AmPUH3OwMzAObSf6L9xEcw7VOOER0OxQSaj1aw5QegyJnRzAiZMD+wD8gXsAwQ7wgkfSxPeM43oX7IF4CI6hTm+BGW9aRWpjobcABn01+QLZeFo6rIDHY0ioO035itEYE11i54HF+y0J4dIOx/dIUjVRciz/Lb5IT5E3hiFx+94j6ay7zhV257VBK29X2VlLOwrxWPwtorUyBPxIT63SXmU3p3sNx+TSCdyca5DVImL0xiM3veYwTw56MIS6dtbZOiYKo9byTERERgioBdYQy6gTmJPz++3FEOrYyeMIKYHRSwWCxelT0xcr7pkKWfxjPPE1jtEpeAyJD+wQZeErDu5Qz84d2IkJgjeKZXbNjea4rHWNqGt5ByI2484ag8eQnHIRAeHjBcbUnk2J2zGLazoXRlaalkIjeR1ACWdtMFNiDWUI9Y459Emb8BiJVUReH7byDM/vlBHhnq+nBQj3GnDFaeokMIYhtItyngd9OBYd1801zubPWweiaenfJGXRgqYNDvctIZdorOUW9OKkJ2MZAprWwAGsdy0zQdKV9luC0lsejSUf3lLtnFcPzI3T1PWohSG0oTW0BsapWe1hEBVjgoVrAtq3ALv7gCtO8XCMoZUhvYLPWBvXuK0bubYcIIgWHaIhjGkIC2iqyGShTzXErQxhke4RngkVzCzgQsZIZlQzvbQYZi67tjrCCFTaOBCk0MqQngHMiMU4C/BMtU/p0EKPqa0M8bznESBwziCYAKYBVO3e1zSLEH/Qm01gPM+n1zgJtIrBFl9bGOJJiRjbcoAgY8VKwRGkxoaTw9s9j7MPKSPiezSqmDN7xVoMHWhhiBcmFrwW7ESYWEbb9wtMgUGoP5jicKJmFBJZ6N3rU633X4VnIlLEEGhhiGX/R8npwc4EUibsn+cIEX8x1jV2kSHgHdhB4PBgjwg1jjrFOstuMSHNh7G1gA07LR/uS04GXjB+by24gFNnOEhU2/6NvIc6wYr+HIjlpcQ8qYXcsWtwo0HwpDPwe39Xwd/lWWD9mQya7yE2IAv/JPmsBfhqjflaUEfUSGX4BltKSDQIJeAr8P7Q5foJAhiMYGKZHFgbZw9EbOBwJsenLZV67mthLfGcsdlhYwTLlSUPp4kaKEUUwiLK4U5MyCXPxbvWVDind5DE2G2jOMTRmv2JpwInwmnOyIQ93/tjMZz2zlPZcY4T9PhTMPqxk38KltKpdD6dr+ozKzdOds38MBlbU0b4WoaaYVkvQtkxKaL8/mnHdvWeqQfb9xhC5Mqw/nibuhydaIN1bC9XR5zHgOF/EI9VwF6i5HESE8G6JpLCkLjBKRGxjVj+urk6OSlMrKxjJSAq838iuY7X5PEvoD3+LgKTAdFTveMU1EVAtN5qoNkxFjcgK0izxxQCCsQhLnp0jAWakCLh77sfu/4PQ2J2edJfj7pnh4PwTBwCYrG0GMHczeYTUzFrwAIboADHBji5ddAqpi5BCvhxRgWVR68jBRvoxlLFQoGFAgsFFgosFFgosFBgocBCgYUCCwXmTYH/AAZft6zQIkSWAAAAAElFTkSuQmCC;" parent="1" vertex="1">
          <mxGeometry x="603" y="100" width="50" height="50" as="geometry" />
        </mxCell>
        <mxCell id="Jo6vO53GGim_JeBMiUSH-12" value="" style="shape=image;verticalLabelPosition=bottom;labelBackgroundColor=default;verticalAlign=top;aspect=fixed;imageAspect=0;image=data:image/png,iVBORw0KGgoAAAANSUhEUgAAAGQAAABkCAYAAABw4pVUAAAIdUlEQVR4Ae2dVwg8NRDGP3svWBG7iGLDBnawiyh2VBArWLHii6Ai6oOK5cFeQV8UsWBHRcSGYAPBgljAB0UFe+/lfniBsGzK3Sa7uftn4Mju7V4yM18ySSaTnFSpaqBqoGqgaqBqoGqgaqBqYH40sLWk2yQ9KulMSYsXJtpCko6T9ICkuyTt3IG/pSVdKOkxSddKWrtDXll+inA/S/rX+iB4SXS1xRt8/i3pjCkYXF3S2428vikJlOVGNe/jBoMGGFpNCbTqGADDl0n/mRAUwHjHISstpQi62cEgQh9cBIfSth4eY0HxgYGsmOrBaU9JCGRqnJ3+JWmtwTn8n4FlJH3n4BOeQ6CEwCCP84eW1WeqYPCmoRlslH+sp/L4QIkBgz5lqUZ5vd/6TBV9CoCVRidHgMII0dBqLR044Nmf9yStYX4wVLqHRzCa/z5DMRZRbiwoMwNGyFTRckonhruuvs+Yr08bLcFuFVwz2sKcJaFtJB06miCtN0Vu9A1N5sx9qaaqTcwQKEamtjQZGIuOZ6qmkD/HM842htu+C5kqRl2zRNOAAhiYsyR0lqN2XxWR+7KeCSAAz4KpahNzElCSggEzDzsAQaEhUPowVUtI2kTSjpI2krRImwYzfMccwlgNV0qfkqxlGBlw/rkK9IGS21RtOgLgHkk/Nvj7StItmf1EKJma79MLz0KTR6PjidLNJP0WKLzZUnKbqnNH/Rizep9CcFweOZGkcS/HgmF4ywLKIaNp/h8BBdig5DRV5wX4MIowNTQlKDEzcLt8cz0oKDlN1XYOD6wRvC2lpaTwj00LhuFpMFCaaxyGIdKuo6qnJmgddrldfWQxYNCnXBAxeWSElpT2j+hTbGWY664TwJVHAjMHMvlNktLRM5+ahugzmotLzbJt39RJEaAwlUhKMX2KzTTNtesEcG8PGCdKYiBxqeedDafQQEwH3jbPCM1TBjNfBpSupgpdHu1Q9ueWopd0vAMfu1jvxV4+7cmPPAHD5ZsKgcJycJc1+lYZYsxXV1NlCj7eoRzyt8lUgma6m/1SxPUGjvJMvraZcmUX8hITOJGcfOYrhakyDPcNyOYeQHwtw/BrUl9LyRbU4QKl6+jGCEXaNyAMAt5vAeVdj5my+bWvXaAcY7+U+hrz9eVYAOzjfZKw6amob0DgeytJH1igPNnBN4XyzRo9XgYm0sR9ZSUcffiYXB1dl8KHAAR+aSlbTLkO1JSXwAmiWVZpPpjF+6EAmUVd9cJzBaQXNccXUgGJ11Uvb1ZAelFzfCEVkHhd9fJmBaQXNccXUgGJ11Uvb1ZAelFzfCFdAWEls1JCDXQFBC8tu5bwRT0zCna+dcTbxZLwyO4liWAOZtKVIjWQAhDjOvelFbTCAPGBZZ6xKPbcyHl6xbhlRYowX6/11UKM0idJH5G05nypOyxNyYAA3teStg+LMT9vlA4IoPywIJmwroAQ8UgeF40PK3hiHN7zrbUANYmZcr37lqTF5qcduCXpCogvyIGVTYIaiEw5XBLgsYecVc83RkPjzyYE7QS3GPPzJCcgMVoi7ovVUPZCssnzNQ9IgDj3FAuIqzazdyQlNXeW2SaMmIK5WKb1KSwWkGtaai61OUdAwfotZRlgdvIJMw/PYgFhMz4bdn4fR8o/K2mdjApwBZcThVM84S/C/hKx99K4w8S3RHgNvqWjJBFU3UaxgJjfMtJZ3txkShf2bBwqdt89TBOT9IqneZtmTkrMEjNf9oLYNCkg9m9zXa/gkSl53G4KIdjb/qqHaRuItuvHJW08ZqREQNiz38Y3322ZQoEp88D8/Oph2CVI83u20nGQ2NmOvJrB1illCOVFZGOTX3O/bujHfT4/JbBpxTA9ScpQsu39IQHZ3cETfA5+0o8BnHNNXCOPNoV2/W5IQDhqpI3/740ySkh9J7HBPDX99dGBl5eNXRSYotsdkeZtwja/GxKQcxyAEKBdDK0U2EJN62nb3sbEbV9JLzuEbAJh7ocE5HoHr+y8KooucTBqlOgCBSEAhgHBJ4E8TF5DAsL8yfBhpzcUhcZYqaEjOXygIA/n3ALsLw6hjQI+HFB4V6VJvss2hYzU9K6gwAduj3s9o7b7UzA7RR4cRmAqRTNlx3CRlAoUhGOtAre2LTzLprjEh6DDGrwYvhi0rDgEQ7FlpgQFNwwLSNhoVv5SHJkRK0fzPRawDAh2yobQ4ikGFPqKttFXicIhj6v/uKNEhtt4igWlWC+pJdQOjtZBS0l5+pBVZJ7LGFDwf+2Xp/hkuWIybTNlrmnlLPXOFMWAwoFpBxUqFTuMXUPxBwvlOchWDCisi5wWzKn/F650tA5ayRH9s5OuREBhldA0d1eKz4t3SyDW0H9y8IzHYObjsVD0jQ4BbYDwDQ05xKUyEGXyvIfX00uoMSl4ABTXmN4GhW0CHNE0VGtxORLh8YuS1j9SgeI7fMwGhpAe1iH6Mg+cA3ydp2XAG5t+5pJO9URx2KBwzR4NViZzEhEwhBE1y7bvXxidZIcHYW7pQOvUHFtw1zV/upKLXgyAwVmOxf3bWg5lEPjsi521wWFBKwdxfLldTvOauZIvgDsHT4PmyX8aXh5xAmquBapdPYAABoe2LZBE7NPdngOUcwFC7W+2CnM/K07QrBWm77gsHyBZBZ2VzPuOXKyABGpGBSSgoL4fV0D61nigvApIQEF9P66A9K3xQHkVkICC+n5cAelb44HyKiABBfX9uALSt8YD5bn+P+SjwO+mfUykpHGV2Cn/8lNJEvsVbcWYa/74Mgex8b9t19abOQqb1Tz5vw0DBCleVzYI5SL2NtrlAdABuQqbxXwJNCDU/6Hx4QDse89JrN+zAEaE/Z05/qIoJ/M176qBqoGqgaqBqoGqgaqBqoGmBv4D2iKP+N0wWfsAAAAASUVORK5CYII=;" parent="1" vertex="1">
          <mxGeometry x="817" y="457" width="50" height="50" as="geometry" />
        </mxCell>
        <mxCell id="Jo6vO53GGim_JeBMiUSH-13" value="" style="shape=image;verticalLabelPosition=bottom;labelBackgroundColor=default;verticalAlign=top;aspect=fixed;imageAspect=0;image=data:image/png,iVBORw0KGgoAAAANSUhEUgAAAGQAAABkCAYAAABw4pVUAAAHR0lEQVR4Ae2dx6slRRTGPxVzHjC7UVFBMP0NZkFFnYUYRlHGgGLAgBlFEMWlbsSVIoMbFQMqjqMuzNmNcWHCDOaI8f3gXTh80/d29+2+t4tbdeDx6nalU9+pXKdOSYUKAgWBgkBBoCCQHgLHSnpG0s/Lf+skHZUem3lwdIOk/8b8XZ8HBOmU8vgxgogCOjwddhebkxWSvmggkLWLDUM6pVtjwvhL0ipJB9j3H9NheXE5WWmg00XdtFzcrczvl8WFIY2S7STpGwP9TUmbLLO3r/l9lAbbi8vFgwb4H8vd1KjEJ5v/0yOP8r9/BE4zsOmqrrJs7rAwN5t/+dkTArtJ+t7AfnFp7NjI0v/Qwhxj/uVnDwhsIOkxA/p3SftZ2j7DojvbxsKUnz0gcI4Jg67qoop0WZnHReGjFWHKp44I7CHpJwOafasNK9J928KdXRGmfOqAAKADfqz1CAchOXl39bckpsiFekTgYhMGglk9Jv3bLOzjY8KVz1MiwALvNwP5SUkM8E60pM8s7CkeqPyeHgGmskxpY1f1nSSmvlV0mIXlXGTLqoDl23QIXGkAI5hTJyR1l4W/e0LY4tUSgf0lsX6IreOBmjTes/CcIBbqAYGNJb1h4LKRuGNN2j9YnL1qwhfvhgjcaMDSSk5sEPf9inixhTV1s1XP2HV+2D1ukP1iBmFW9acBe2/DonIW0hT0puFel7RLw/wXMtgjBurnkrZvWNLNJT1v8ZsCPynca5LoRrOjPSX9Y4Ce0BIFgLtwSf3nZUkc204Cuo3feS35WIjg1xiAzw1UKtY53lJfGIiXQbN9wgRy5oDc7G68sHeWHfm2x94DI+Bd2sDszD9737NikB6SXCCHDMnMEHk7AEPwEPP82LqtbyXtEAMsujs1gRwtCcW7yBeL1mwoFhx3CnStCQTdr2woRYFw2hj5ykolNRY8lRbCtknkizOWbCgWPBWBuAbLq9lIw2piCgI5ThJKErGiXFoEMhwCfu/kU0lDr43mikasiUO3EJQovrTWUQQy1+qwfmbsNHuXddn6wRb3S0otZITyddZKOBvJhlIUyM4mkDLtHbg6+joERYo64hbXBZJeksT5vFe0Pn+TPto2XGA6Q9J2dcy18Xdlau4JDk1tt052rdCY6VMAdWlxdwZ9ts36AM61RlCcHpLabi7SMlx9qQ7AWflzhE3l6ER+b/DqTql1j9x2+51ualYAT5Mu0/ROQqEPjBl/JWnIbivygrvugIoxI8Z5uCsgDeoUussHSqLyglfMHzc8bdogncogqPv4/cH7xmi6VybQ80cvXF3yzMBinHFK4XXpTOtP5QWvyAPuK6ZNkHhVCtZksnWXRKeIO42SgwMxRbado7DD4EKhkk89+2J2wIDkhft6adXMjOfgOXRjCIN7iZGHOjWgQy08cYciKq93X6d3YYaBiAEpAjK0+9wJBUIJnPP2yCMTgiHJp+v3d2UGofggGQs8T/crNaqkrhzOOTxT5iHpIKsgLB47E7MDBiQf6OcpDA6k6pSt37LCDz1dB3i6rYhTr4p+DEj0gVzYeXfZfF/MrG83syWUtummmihZ+70U9r9SIMclBZ7mwoNPd4tA5gL7+EzYko+1kS37FCjyhDsb4tAqFp5DrbbXKGYBVuQpK4Fwzu7TdI5/q+7SzwL4cWkWgYSWws2voSlbgVweBAEIdFmoEA1N2QqEi6Gx8KySU6DIE+5sqEx7ExO1Xy4t65CBBeRbJ1xeTYGy7bJS3FykQmQrkBS337MWCIVP6YAKfrawFvIrH3OjlLqIfUwgn+QmDMrrin7zVnKImJ9lAsHecXbkJ5yY5xhKKOgAxBbrptizEA72tSIIXdysbTg6xpBOk0OyCDA7zTFvDPpUmdSNcRbSjSqpb6NEYKZ1c3rZ9OYWum1sbMa8HlpItBsWivN3P7CK4EzrHj1UU8cGxt5iHhiDY4DPmuhisK9FzfZ9rghWGze6BHWEGURPMyvLE3UAdfHHgGcEF82bScTi1F8cQhO/7fgzKY+s/TBxGwXyTg0aaOTE8JjYxdRuoZ4QuMcAvnNCuhiXjsLAjY50oZ4Q4IqBjz2YUa8i1jmYX48CqXpxqCpu+dYQAX9ji2msP+lEUihR+ItD7FllP6tqiHPjYLz+EGv8rWNiVr04xEKyUI8IsI5xYwVVg3ObF4d6ZC+/pLzWVxlMa/PiUH4I9lxiN5VbpUl/iXVpdG/jXhzqmb28ktu2wu69PwnY5sWhvNCbQWlRrouD+QeWR9WLQ6zgh9riN/YW7+ctJpDbrYicaUSB4WaKXGhGCDxrgJ8U8sGqhb84hKGFQjNEgHPv2AJGptY5Z2G2Ff3YSCzvM85QGCTNKjuCPnphruqhmpUz5qUkX6EkQTe1qsK69pqC1nwQeMpaSGwtIzeGOVfMh52Sy5E1Avk3kXsnWUnKDTePWgb/U7lMmpVAKOwRktYujyko361LwDJEdkIoBS4IFAQKAgWBegT+Bw4Tx/ki6YcRAAAAAElFTkSuQmCC;" parent="1" vertex="1">
          <mxGeometry x="1037" y="100" width="50" height="50" as="geometry" />
        </mxCell>
        <mxCell id="Jo6vO53GGim_JeBMiUSH-14" value="" style="shape=image;verticalLabelPosition=bottom;labelBackgroundColor=default;verticalAlign=top;aspect=fixed;imageAspect=0;image=data:image/png,iVBORw0KGgoAAAANSUhEUgAAAGQAAABkCAYAAABw4pVUAAAHcklEQVR4Ae2bWehHQxTHv9bsO4WyPtj3IoREPNjlRfZkS/KiRCjLA9n3RGTfd2UL2ZfIEim7iGTJEtm5H/1G4/5n5s7cO7/f9XBO/br3d5cz53xn5sw5Z86VjAwBQ8AQMAQMAUPAEDAEDAFDwBAwBAwBQ8AQMAQMAUPAEDAEDAFDwBAwBAwBQ8AQMAQMAUPAEDAEDAFDwBAwBAwBQ8AQMAQMAUPAEDAEDAFDwBAYFYFVJR0o6RxJt0l6dPK7VdLpknaTtOioEuY3voCkHSWdLOkGSQ9NdEGvCyQdJWkjSfPms5zNkwB8ZAP2K5L+yvj93Chyt6Rdm06abzYiZreCPHtLukXStxm6oO8Xki6UtGF2K1N6kJFxRPP7PFPwUGe9K+kwSQtOScZctktJOk7SRwN0+VPSfY1lWDe30ZrPrSLpiQHCtzuHjtmzpoCZvBaWdELBbGjLHfr/q6Qzmt/8mTIMfmyLgbMipIS79tiMpv48zWw4WNKnFQeV08Edn5G0wmC0OxhsLemHKSqBMr9LumiKiz8m5akp6+A65R1Jq3Vg2vv2+pK+y1TkPUnXT4A9U9KNPewzPLbpLe3cF/GaTm1M1C+ZOjhQv5R0p6TzJj88ruck/ZbJB3NcfaYsKYnedkKGjnhPlzYdseZcLP69sqWkmyRhZ0M82tf+mICArR9C6zRe3cuZbSLD95KulLRVwq1dVtJBkl7P4Iv5qrqmIFwbLP8/yq5egNhKki4vGGVvSVqvgL//6CGSfuqQ3+nylaRTGjd2aZ9BxzneJh3Du45P6EgcVoVYN3DpQo1w7WZJC/VsiZF7f4K33+aPkgA3l5hVV2fyxvxcXNgRbTnWkPRmoj1MJfoOpscTjRCJY5uH0h4FHs+1GQv+4gUm6smKnh2mPdUp9wwFavNEZ7BYIUAtgtcVHbPRzRjsdspEEjm7Z2NHIux9m4UeF7gmMVNwBELtYmk2GNIYdj7EmGt7DWGceHcnSZ8l2nXyYLN3iPDpWmiJd1aMvFvjMvk8J2f7SB6sF7FYxXoaP36atJykexNKOSWx/UcHBHk48i7Pn5TwnAKsel0Cu9ciMpBq6jUrN40wBIz9e4lZ/hJg4067Dogdz22BTJaWANN//pPKcU2XNnhefvv+ea9EJOlln4k7J4YgGTcrYh37OCKLk4njHZL8eIVOeVDSS831s5ogdZlZCTxphzglFjySHS+m2ML4bDGn4S9gwmJmyO8UIuhprg2lmiCPL587P7+UEc8z4hwD/0jcMQYR6V4SkcmXD9O08RgCBtokK+HL5s5vDzzbeSk2ItkNHJMOT5gCpzAJ0N3HFHLSNlg5mfwju4/F9EiE2dgdgiI7ZyQ6WdSPL9a67guYJr8j3HmvDiHD6Rj4RzK3/wdiPxvz5MsWOsfMVU3sFSjPVnBIpl4m6/+0qMcwYAF/IaK0DwTmF8dg1vR8RLZei3rM7cWVm7ULSXtnTwopmO64tI4WaXJRd0UU9zsF1xkXelaEzLFtBmoRiglPxVfIPyc1MCvaNmCaWB/8TiEyjtlrX24yrqHIfhq6pAJDzG0xoSQJOF8hd05agPvTJEpy2JtoR9xOBsxQm47J8MB4n7TM8u2XK/4nNcKmlJPVP4Jpr9QJ8rG37TPzz6c5S1bOqGp5NQIgM6drswg9SGCSyJwG7ZPADSejN5FziW1OoTSp5prEyDkgkdT0BwT5qxgh1xsJUBwfdCPlX3MbgbTSB4m2N4sJnXud4i+nQPvIZkwtZTZJTPN2u2wZL9ahAPcptGi/G/pPOVCNQJKCP1L7oTa4FjKzHWrMvU3ZTMxboBE6ZchMwRu5LLFWtJW7qpVEnCvxf68cWrCnznZy321WtrFJK7Xldf8p2Kjm5VGJ5xiHjpgvvIqShZ644DRJ33Twdu2xp9533WKX7u3MdnDrGSAUYuQSlTZdtc3wrEZEujGvwQHGEbtNRSCp5xDRYdRaXSMJgP13U+cvNqNvrRDDgmvEKwS7jNRUW+4eVoHkIKVLMaIj2FXt2rNhMCwRY9L3OsVeXbVZThlcVaJUFKLAjBiBDf6vM8FwfFCUHb6aqY/tGsfh/UI5KMJmPaLojy3Y65pNOgr5nJypI1X0fc1gZ1/x/Udup6SEzLlHMffQWRFTiAUf9zMW4+TIl/MMWefUDIvJV3SdmfJ05ujIEbr9DCkOXN/ewVOBNkTMqTKntmwl/z9sas4Gu7i5umBCWJBL62RTCmHO+Eajb9Fdruyh56igoawpJV/JvQdGyPf9o9fak7UhFjzmKIE9P1YSxW1jEjEEHw8N6Riif6orZzG7k1hRGc9il/s1Fa4uCz4ViyWuclKISjfJoe0yySB3eU9uwLEFwE7mGLM7qTYjA5+f9DLeFR9IsvNI9Qdl/CdK2r6y15QUaOBNvp+kczDP/kesBIBUsuzXVMmTdzMyBAwBQ8AQMAQMAUPAEDAEDAFDwBAwBAwBQ8AQMAQMAUPAEDAEDAFDwBAwBAwBQ8AQMAQMAUPAEDAEDAFDwBAwBAwBQ8AQMAQMAUPAEDAEDAFDYCwE/gbWCgB72FfIiQAAAABJRU5ErkJggg==;" parent="1" vertex="1">
          <mxGeometry x="1037" y="457" width="50" height="50" as="geometry" />
        </mxCell>
        <mxCell id="Jo6vO53GGim_JeBMiUSH-15" value="" style="shape=image;verticalLabelPosition=bottom;labelBackgroundColor=default;verticalAlign=top;aspect=fixed;imageAspect=0;image=data:image/png,iVBORw0KGgoAAAANSUhEUgAAAGQAAABkCAYAAABw4pVUAAAIP0lEQVR4Ae2dN8g1RRSGX3POiIqhELUQtFAxo2JhISoWBsRfEMHCxoAomBqtFMyoiGJhI1qojYUgiKGxsDAWhsIEKphz9r5wX/75zj9zN0za3bsDH2d278yZc85zZ3cn7P2AOc0RmCMwR2COwByBOQJzBOYIDCsC/wGYwt/fADYNK7T9rJkCDPkwCShyZipy9FCmAsL1Y9RQXEeYH1uy9ut4tFDkgORUgNCfUUIRCMmxA/nLPDXy+OIxOSUQkmOynbbKbskLAFgoo+opckRy7EBo/6ihCITkFICMGopASE4FyGihCITklICMEopASE4NyOigCITkFIGMCopASE4VyGigCITklIGMAopASE4dyOChCITkOgAZNBSBkFwXIIOFIhCS6wRkkFAEQnLsQORHrKw2IWkNn4FsnkHmrHHxNAPZDMDGgsfFkzWiuAGRDVr7Ux9Hmte9unWgu4Zp1agej+oGDIxn9XhUN2AGsjECM5CBxWMGMgPZGIGBHVX/glY3oCeQIwA8DuBTAL8A+BDAPQAO6KlP1arHo7oBikQHed4SgrWdx18DOKmDLlvU6rSfZz+ubkBHD9kz2COs3e7xjwBO6ahXxV09zBdP1Q3o6PETDTDkT18oqi/Z0bz44mpYMl5jXg2fGSDXANgZwB3mPP3pA0VxkMzrjUe7Gpb0FBnUqV9N4HdyrLvFfEafukJRHCQd9WWyaliyTKv9W/nIBP12oyoWiuIgadTnP1TDkvlbjGuBj7ayVZIQ3BQDRTolXb1F8mpYskijEY3sD+CrjFAUB8kIU/tVVcOS/bSUrXW1BwjtT9FTFAfJsp55HCtuQMcGTwPws8duBTAWyvdGd0fz4ovLEcl4jfk0nLp8apKtIXmbMeEGE2TWI9TTTTkeHgvgW6e8p0jeU9apvK311x7qGQ8HILXtKSd7TDoBgHqK5+O8p8YAJNQzbl6GhnNXPzjfavmUoqfkjb5Hu4yX9BSpeirUM3gZchO/6RwEyg/J2J7itlEkL8MlizTaspGmnmHV5Ogpto3sxwIhmb3Blg10hSG1o4ciEJJyrKYkjJ88lx/dM5psGzUUgZBscjb353wU9Y0z7D2jyY7YewqhVkkCIVnFiGWjqWDIhxgonJ7hNE3xJBCSxQ1YNpgahvyIgXK3lJSUAiFZsm21lQuG9LeFwql8xYGSGyeKJ9cA5lOnpt0huWHInzZQdjFAuBhWPOUE0rQ7hMuvKW7gbYN2rQm4fOfy766L0f515vNP2ipOWU5GSabS3WZ3iNp0Zdenqbb2nhGA77Zt84+1VZ6ynDUile62u0Pc9ocEgz33sFTB6KLHDQjzqVKX3SFs96FUDRs9oZ7xYGDlkbYQxrlGT7HDXED67A7hjTdlCsG4ftkIxxn3AvgYwB8A+CXi9tQqPUOO5wLSd3dIKihNMOT/4GQuIDG7Q2KhhGDcNLjoewzKBSR2d0hfKCEY9PM1AHt5YjCoU7mA0ElO0KVeNFoVvFUw5Od7AA5epaT2ZzJUMrU9/KaXgBKC8bkZ7NFPnjsqtaOp9AmEZCq9rp7c6xOh9RPeM3Zb9NQXPVD4JTnLNXIoeYGQzGVXrp6yqmfsuXRmBwDPeKD8DuDCXA731SsQkn31tKmXuqeEeoZ8eQXAjkvDtlq8tnCXB8q/ixeAcs0QtInJFmVkvOQWBRKfSAWlCYb8eX7x7sg2jg+c0PzHA+Z+AFs75aplZbhkCUNiL1+ctfXNEvOewUdb+SLJYLvpMgB/eso9CWA7t2CNvIyWLGVDTE+Rra7UoG8PAG95gn2jcezMwOa6lxZv8+5uyhY9dJ1ivmRKBUUwZPuBALiW4frGe8XlKrCUfPT1PRa/DYA6qiTX6NJA6HDM5Yv2PhCIGoP9nYHCy5R91D0UwAemHPVywvHwgO6sp2sDiYWyancIl4f5aOv6yPHHMSai+wJ4w5RjHb7zfrwpm/3QNZb5Wimmp6zaHcJxhn2q+hIAe4abuJ7+ggcKHx7Odgvmzg8FCP1sC6Xr7hDfG1e8TLFnuGlbAL6VTv724hVuwZz5IQGhn22g9Nkdcqfn28/LFHW5iQNI3zvvfCi41S2YKz80IPQzBCVmdwgDzXGG9ZeXKfYMm65a/pc3W/4RM9C09aKPbYPRChMpCEGx9vK47e4QDvp8E428TBGYTecDsEvRbO85AO4PFth6UcfWwShliSu3gdJ1dwhnf9/09BT2Pl/ij9h84yn/+uKRe29fhdhzQwZC307MsDtkv+U4w/rOy5QvHekZaLLu+4uHgEN8FWLOWaNidOWqm2N3CAd9HGe4/vPnxXmZ8iWO3DmCd8sz/wWAo30V+p6zDfTVM8Z6x3leDPoNAGeSfYnbTX33IL5cZGcAfPVbnVtnIAwQB332P4PylejQt357AE95egr3dV3SKuINhdYdCMPDQR/HGW4sODkZmmDkusl9pjzrckZgU0O8Gz92jWB+XRMHfTYWvGdwOj+UuNJoQfIxOWrnozViHY75S6YHeaLMQZ/1/2UAXJMPJfYIXq7ceo+GCrc57ypap/w7nk1zXOrloM/G4emG5d0rTR2usfROtvF1On7V2QShAHIEzkGfjQPvGaHEGQD7YBAq23jeNrxux8965qY4Auegz8bCLgMruLzPcAyj8lX+M4+MmarkCNwu7/IG7nuK4hKyYFC+O9Wg1PaLYxH9TJMCzhs47xm8THEzBH9dwu5gsT/MWduPSbXPnZF2GZhweFlyL1MCxh8/22dSERigMxd5loEFwJUcGJ4zQPsnadKlADjP5QJw8+wZM4zC6DkC56CPM7yEwcsWb+C8Z2y4TP0PUYRkRmuv718AAAAASUVORK5CYII=;" parent="1" vertex="1">
          <mxGeometry x="600" y="570" width="50" height="50" as="geometry" />
        </mxCell>
        <mxCell id="Jo6vO53GGim_JeBMiUSH-16" value="" style="shape=image;verticalLabelPosition=bottom;labelBackgroundColor=default;verticalAlign=top;aspect=fixed;imageAspect=0;image=data:image/png,iVBORw0KGgoAAAANSUhEUgAAAGQAAABkCAYAAABw4pVUAAAOZUlEQVR4Ae1dCbAdRRV9CXHfY37e63PnJ9+IW3CPW1nuVe4KqKgIaKm4lEpFIy5YLoCiQqloKMsVsUrC4gIIqEhpIiQCKia4QUTQCCQQFoFAJGhC4jvxzqt+9/fMn5k/897M+/lVv17PTPftu8x037739u1Wa8/fHg7s4UA/ByYmJh7aarVm9d/dc1U2B2Z3Op0JAC8B8D4R+YqI/AjArwFcBeAWAP8FsIv/Y2NjDywbgRkNzzn3OOfcm0XkywBWA7gzZnaW31arNWdGM3C6xAMYF5G3isjJAK7PwvSUOndPF58Z2b7T6SwGcBSAy1OYu3sIyvl884xkaBGix8fHHykiH3fO/SknkymYm7tzyMUAVojIZ51z73fOHSwinzCw1hfBbSa1mQXgxc65nwLYaZiX9AXcBuAnFF6n03n5+Pg4khjmnDvEwFyZVHdG35+YmLgvgLdn/BqoIa0UkQ9GUfSEVqs1Oyvz2MYXiIh8L2vbGVFv7733vo+ILANwo8+oQPk/AM4C8EZdOxTiD4DjfNgczgoBGsFGHJoOAvAPn0G27Jz7bXfdcJiIPLwMHgA43e+D2loZcBsNo9Pp7APgEp8xprydjHPOPa1sQgH83vT17LL7aAy8JUuW3Ks7UX8KwN2GKfFkfSdX1VxlV0QUv8rbTd/zKuqr3mABPAbAHwwzYkFwkv7a/Pnz21VSoeaUuE/+3lhlf7WFLSIHANiSIIyzoyh61CCQB7CvjwNV60H0W6c+5jjnjk9YT2wWkdcPElkdLv0v5OhB9j/UvqIouh+Ac/w30iuviKJo7qARBHC+hwMF8+pB4zCU/rhOUKur/zayvM05986hINVqzQFwhy+QsbGxzpBwGVy3JBLAH33CtXw1gKcMDpP+nqhCG5yu6K8xgldcvInInw3h/DIu7XQ6Y8MkuatqH2HwOmGY+FTe99y5cx9MxhuiKYxVfFY5AlN00DVYXmRw23eKJs193G63H6Du0b45Q0TOoK1q2JQBmAdghyeQ7YsWLXrIsPGqpH+10v7SI3a3UKjjL168+N5JnXLVruuTFV2D4XoAW9X1yjJ9GAewTlL7PPcDJvc1edo3qe5eAH5shcFhimpvEiEA9usaFv8WaNf3hWmd/ZLgZL0P4FzT19KsbRtVzzn3dUMoGXpxShTHbACfD7SxgvCvd4rI5/L4PHwmttvt+QBorIxh7li4cKHz64xEWUQ+6REZE7suzVdRQBgx3F0qlNy8c859wOC5KjeQujcAcKg1h4jI39OMgzpMWZfsNobuRFH0DCoG/GeZFl8uIg0j2Ta3ZtRts86H45x7d935mws/EXmlGQL4Ft+UZiBUs7udM65pt9uPT+qcrtmuS/dan5mcU/JM9CLyLNOeXsfRMbfrapfaUG8ooXbEtzqJsbyv2pTfZluaMGJYKpQ+3wlhxc+n+gXwAx/XkfKfMzgtEJS2nV9MBsZQte0JhMPUVG3i5wCWm7Ynx8/Sftvt9iPM2mOXc+6paW0a82zevHkPCjiXOKYfmoUIAH/1mdrpdJ6epR3rRFH0TL8tYWVpq/NQ7yUAcGGWdk2ow7WG1eNJ6KezIh+wsmYObtaXwWfsHVP1qwbOvvhe59xrpmrXiOeBN43MOT1PCP+gBUJ3sP9VUQNstVp7NYLhaUh2taf3+oRp+ZK0VXgInh2yplICfBgBTSl1yFLfvb8Q5Av0Nh9mI8vOuZcG1NsNaWuNJEJpm/IFy68uqa69D+AE0zZ1UrfDK90Bjf86NG7KBiVsyaKqWobyOqT2aghoqHrvnog8yYYMpam9jGr0hcdyFEWv6AFsYoFfAIANhrDtzrmXFaUnaWGYJpQoip6YZ2FI5xiAzQbv84viXIt2GpgQiig8bLoIJphOuOhbznmCBkn+65zBYapvQaimmkTTCYBTjDC2ttvtRdPFe5jtGdXXN9YrgaW5OqsyLtI+ZYRBY+SyYTJz2n075z4TIOpnJU+Is2m1tYZJ26+5TjW/O+eWWENkd3j9Tcl4Z+Mv44oC5gx/EVW4TO2kKl+4RhBaY2MIV9ZJHKbU12Gj52+l2SQbB0uspWOtNVGHiCpyb7NzbmGJ6E4CxYleta/YhcuVNf+v4GZOPkuz7OoK3kay05wz+OA3NfTdYD7tIowPtbmL9qNJHKzRDQZOAJjkxwdw7MDR1AiPyyoSBi2ihwycqBwdMnACwJkB+s8axrxBTej7Fhnn3DE5aNpdFcCpFg6AL+SFM8j6+mVMCqoQkQsY/TJIXHb3xf1wlomMfcobAADgIxYOA5GH8YZlZaKODJOGKW4SXbBgwcOywimtHvdYB9TFtUQ0Tyea/8MPGuM8cmVacEIe+FXUZaS8iPzOvkTUBIcSMJ2gUW0SkSgPA7gRH8C/DGHc4vXYPHAGWZd7zkNbpSmgsjaC5qKHCAHYaJi4La8mpGYJGwh9j4i8KhdCA6zMpDJd0/k1hnZ+0aurWiOlkkfbUuBTpa79ptSGkx8GlQEAH55ctR53dFRgegyrmq9MCcSrFHlG+YXUuyPz9hrI70EiT8kLZ1D1nXOvs+YQFczpafHCleIX0qiccz/M4zolgupospM4g8fuXykBBYEzSQCAewJfxvK82mRBFCY367o8DwxoVFfn/VTVnWn3Zd+QVxmYjGEld2Y7574UEASNi4dX0mNWoCnpJsjcczQ3CLeHJSZd4f4HDfP3x2D6GGqXuYAvWne729kBYTDSMO98mZXN2eulCMRnLstUYZmQZSk9bN5wxvkntAO2ds5+fq1d51XIFHS7iLwoO9cqrKmLt+sCb4wViL2+WZM9TjKL5AksqJC0PtAamropQOeGov77vg7KvqAL0jn3Lo1RZSZNK4Cs10zSVatEj93F3mu7ave/LU10LhWJbCmb91ngMfXpPp6A7Io7STjXDHsHrCWO6fZCmhS1yLpqf5aG0HUWAXGjfukpjkLIZLzHVBuhXVd8mYan1mZEPk+14CReJ9+G7mG/wA5RjC6pE555mJ5YVzOz9Q1ZeUL+EwGX9EBEHp2wyZOmkeeU1E19wDAbp3nzLq7LJC4iL+yq5bca/PjyrKf1uT5cLBETnST9L+S8EsEXBuWce4efY90Tyi/q7H8pTLA25PxhU1rs4DAxXcDTaM89Jcd6AvBflhPTokmm0Wc9miZsGSADThsGhvTuJUSEMJpwuDapqhmixKctGPevGgcfvhoz+7av+V+JX3cky11X4rd8ggPl6weVtUCjEfsShFl8RlIIMVHcOGlXu865bwQcOxdV7NSZpVpeyIfhzx27YtxH8Ze+A2Z87hGsO4WYxm6pf1/L3/EswaXxg2aOUJyY9nmaxaO0jusGSNXJnjBIOPV9xZP+89CuWZomSvtTs7nV7ogTff5H8QWYMQIBwPyFvkD6NCoaE0MrY+fcx8qQiHPuuQnJ82/jcRFxHwbH0R2y7O4iEXlyzIT4VzMZhI4DOiKuU+RXrc305PkvBMvr7drH1inSXyPaBDxsJ4UQ102T1qdO5h2Xd07RfYJftUzW63NDcVK2bgjHkbhnDyXhuJ3k7ux0Os8PaF4Uyrezrph1Y8yFlsHaL8/fCPr2bf2RYH6ICNVurIs3MZpEhRL6UtZMFRurblabJokC3TpVqvAZIxAKiec0BUKF1iVl29ThKzSnbPInYv8FEJG3JHxdGwjPrxsqj7xANKKvF+AWCqbTFN+9Oj6jdKJP2tt3qmcOn5OQ44RfxqqsScBGViB67sXPlUB/Aueu1jMs4Zp0PigUqsR6AhqZa/+ZI+S8pNNvdC9K5mAJC99/ORpZ1vUEzdh3GeJ68VUMyHbO/co8J6NXJw1f1LBUfZ0U9RGA4wuNWYAy/1lYmRvWraJacXmamBVEzJzr/Iw83JFqTSnKjHUpYaMMOKDtK4aZ5ZenYmY+WdnCrhufM+HD4xwA8KDEJAadG7LgcltXglCoffVFAEZR9ALavlL6iPvmfNFnwWUoUiZC/q94xHB2/2ZtV5d6NAyelMKkjTwROQ1Z3bsdXC8QNlf09tg409/lGjf8UQZO0C+vc4rP2Cx5TzgkHmNgN8t0woWaJUCvt6h5OzhJWwFxjZIw0ZOpNPz5zI3LjKNdFloo2g2iOrHbbnvX3POo4awx7Pj3n71KdS+Ewng0edgXC+6jo/bFHbtJAoiZxOffTQvdZPY3I8RbklbmagFea+qzL27Ba0beKj1dwGZluJZbuvK+SP5Ez7a6eAytssmkSzP2wWGrL5lZaFGoDrNQ4DTnsNy05KW9tPoB38Y2nh2et4PuHLEAwCY7z+g+xcPVIEkr7VXsM+ktD/XLk5j9t5751P16IvKGBI2Q2wzG/bq1L/PUY0Ps8UWQ9pnGDM6c4IvACbXp2q0+5OPIzTVaj06oIxOGxjPz7qEP9T3Qe6oV8ZTLeEzflUetjJFlTlofBstc+MXPp/urOal6OFIt111PfQf9Kg60PCdagKeLS6Xt1QrrE7qxQIcMlPuLEchlJafJYOCbXRtZryXpYLT9wQVoqEeTwNkW3FiT6y+koTnnnpcLSIbKCXsA/ZepWZN3iGabaJ5xVqF6Kff45vLMph5jaNdKqV/4kS4Ye/34ffLcwqoTnhVGPE9Du4DLG4QgIu8xjGH0SZ+ZJA8+aXV1lR8SSPMm7yRCmefJZygZnFTX3tc8IPYsjyqj3jlX+TlXmjt5W2bG19zg6Ask606i7tER+wOweUC269boGHzpv7o7mEmWOaEfWHoHwwYYODM26Yi4WTxSSMfx4CHxzGcybHoa338gmI3ntR6k4aBHi8g3Aayxpgv/q9Lyijx+isYzrioCuifU2MiR0KSZdm8n84OUvOaoitz6ww3MA2nMt8/WevG89Se2CRgGVr+W6fb6eg5j9Pg1gb7G4ajHQnCHKv9v4tE83ew3V2rUBy2sJ3JtwoC0kVh41VxC/wN005Ngt33pygAAAABJRU5ErkJggg==;" parent="1" vertex="1">
          <mxGeometry x="815" y="100" width="50" height="50" as="geometry" />
        </mxCell>
        <mxCell id="Jo6vO53GGim_JeBMiUSH-27" value="&lt;font style=&quot;font-size: 9px;&quot;&gt;&lt;i&gt;Describe the context, including the problem and business need. Explain why this ML project is important&lt;/i&gt;&lt;/font&gt;" style="text;html=1;align=left;verticalAlign=middle;whiteSpace=wrap;rounded=0;" parent="1" vertex="1">
          <mxGeometry x="13" y="120" width="159.5" height="30" as="geometry" />
        </mxCell>
        <mxCell id="Jo6vO53GGim_JeBMiUSH-29" value="&lt;font style=&quot;font-size: 9px;&quot;&gt;&lt;i&gt;Outline the key benefits and the value the ML solution will bring. Highlight its impact on the business or users.&lt;/i&gt;&lt;/font&gt;" style="text;html=1;align=left;verticalAlign=middle;whiteSpace=wrap;rounded=0;" parent="1" vertex="1">
          <mxGeometry x="13" y="355" width="159.5" height="30" as="geometry" />
        </mxCell>
        <mxCell id="Jo6vO53GGim_JeBMiUSH-30" value="&lt;i&gt;&lt;font style=&quot;font-size: 9px;&quot;&gt;State the specific, measurable goals of the ML project. Detail the expected outcomes and success criteria.&lt;/font&gt;&lt;/i&gt;" style="text;html=1;align=left;verticalAlign=middle;whiteSpace=wrap;rounded=0;" parent="1" vertex="1">
          <mxGeometry x="13" y="590" width="157" height="30" as="geometry" />
        </mxCell>
        <mxCell id="Jo6vO53GGim_JeBMiUSH-31" value="&lt;font style=&quot;font-size: 9px;&quot;&gt;&lt;i&gt;Identify the data sources and methods for gathering data. Include information on data frequency, volume and labelling process.&lt;/i&gt;&lt;/font&gt;" style="text;html=1;align=left;verticalAlign=middle;whiteSpace=wrap;rounded=0;" parent="1" vertex="1">
          <mxGeometry x="230.5" y="126" width="159.5" height="30" as="geometry" />
        </mxCell>
        <mxCell id="Jo6vO53GGim_JeBMiUSH-33" value="&lt;font style=&quot;font-size: 9px;&quot;&gt;&lt;i&gt;Explain the data management policies, focusing on quality, privacy, and compliance. Describe data storage and access controls.&lt;/i&gt;&lt;/font&gt;" style="text;html=1;align=left;verticalAlign=middle;whiteSpace=wrap;rounded=0;" parent="1" vertex="1">
          <mxGeometry x="229" y="510" width="159.5" height="30" as="geometry" />
        </mxCell>
        <mxCell id="Jo6vO53GGim_JeBMiUSH-34" value="&lt;font style=&quot;font-size: 9px;&quot;&gt;&lt;i&gt;Detail the algorithms and techniques used for building the ML model. Include information on feature engineering and selection.&lt;/i&gt;&lt;/font&gt;" style="text;html=1;align=left;verticalAlign=middle;whiteSpace=wrap;rounded=0;" parent="1" vertex="1">
          <mxGeometry x="445.25" y="126" width="159.5" height="30" as="geometry" />
        </mxCell>
        <mxCell id="Jo6vO53GGim_JeBMiUSH-35" value="&lt;font style=&quot;font-size: 9px;&quot;&gt;&lt;i&gt;Specify the performance metrics and evaluation methods. Describe how the model&#39;s effectiveness will be assessed.&lt;/i&gt;&lt;/font&gt;" style="text;html=1;align=left;verticalAlign=middle;whiteSpace=wrap;rounded=0;" parent="1" vertex="1">
          <mxGeometry x="445.25" y="352" width="159.5" height="30" as="geometry" />
        </mxCell>
        <mxCell id="Jo6vO53GGim_JeBMiUSH-36" value="&lt;font style=&quot;font-size: 9px;&quot;&gt;&lt;i&gt;Outline the process for managing models versions including conditions from going from staging to production. Outline procedues for updating and retraining models.&lt;br&gt;&lt;/i&gt;&lt;/font&gt;" style="text;html=1;align=left;verticalAlign=middle;whiteSpace=wrap;rounded=0;" parent="1" vertex="1">
          <mxGeometry x="445.25" y="601" width="159.5" height="30" as="geometry" />
        </mxCell>
        <mxCell id="Jo6vO53GGim_JeBMiUSH-37" value="&lt;font style=&quot;font-size: 9px;&quot;&gt;&lt;i&gt;Describe the deployment process for the model to make predictions. Include details on the infrastructure and environment used.&lt;/i&gt;&lt;/font&gt;" style="text;html=1;align=left;verticalAlign=middle;whiteSpace=wrap;rounded=0;" parent="1" vertex="1">
          <mxGeometry x="661" y="125" width="159.5" height="30" as="geometry" />
        </mxCell>
        <mxCell id="Jo6vO53GGim_JeBMiUSH-38" value="&lt;font style=&quot;font-size: 9px;&quot;&gt;&lt;i&gt;Explain how the model&#39;s predictions are integrated into decision-making. Detail any human oversight or automated decision systems.&lt;/i&gt;&lt;/font&gt;" style="text;html=1;align=left;verticalAlign=middle;whiteSpace=wrap;rounded=0;" parent="1" vertex="1">
          <mxGeometry x="661" y="480" width="159.5" height="30" as="geometry" />
        </mxCell>
        <mxCell id="Jo6vO53GGim_JeBMiUSH-39" value="&lt;font style=&quot;font-size: 9px;&quot;&gt;&lt;i&gt;Describe the mechanisms for collecting feedback on model performance. Explain how this feedback is used to refine the model.&lt;/i&gt;&lt;/font&gt;" style="text;html=1;align=left;verticalAlign=middle;whiteSpace=wrap;rounded=0;" parent="1" vertex="1">
          <mxGeometry x="879.25" y="125" width="159.5" height="30" as="geometry" />
        </mxCell>
        <mxCell id="Jo6vO53GGim_JeBMiUSH-40" value="&lt;font style=&quot;font-size: 9px;&quot;&gt;&lt;i&gt;Outline the entire lifecycle of the model from development to retirement. Include plans for model versioning and decommissioning.&lt;/i&gt;&lt;/font&gt;" style="text;html=1;align=left;verticalAlign=middle;whiteSpace=wrap;rounded=0;" parent="1" vertex="1">
          <mxGeometry x="880" y="480" width="159.5" height="30" as="geometry" />
        </mxCell>
        <mxCell id="Y5mcHGoH0wch64RgnlNc-4" value="" style="shape=image;aspect=fixed;image=data:image/png,iVBORw0KGgoAAAANSUhEUgAAAgAAAAIACAYAAAD0eNT6AAAABHNCSVQICAgIfAhkiAAAAAlwSFlzAAAN1wAADdcBQiibeAAAABl0RVh0U29mdHdhcmUAd3d3Lmlua3NjYXBlLm9yZ5vuPBoAACAASURBVHic7d13vKVVdf/xzxqHIk2w0ETFQlGxN1TUCBaiYC9gw/w0ij3Gig1RARtokMTYIqJiDyKaaGwRFRViCUJUQEXpWOhIG9bvj3NGL+PcmXvuPees/Zzn83697msQ5p791ZG7117Ps/eOzESSJPXLsuoAkiRp+iwAJEnqIQsASZJ6yAJAkqQesgCQJKmHLAAkSeohCwBJknrIAkCSpB6yAJAkqYcsACRJ6iELAEmSesgCQJKkHrIAkCSphywAJEnqIQsASZJ6yAJAkqQesgCQJKmHLAAkSeohCwBJknrIAkCSpB6yAJAkqYcsACRJ6iELAEmSesgCQJKkHlpeHUCSpJZExHLglsBmwEarfF0DXDL8unT467mZeUlN2sWLzKzOIElSiYi4JfBA4I7AjsAOwO2AdUb8qPOBU4HThr/+GPhOZl4xvrTjZQEgSeqNiNgCeAjw4OHXbSY43NXA94GvD7++n5krJjjeSCwAJEkzLSI2AB4LPAPYDbhBUZTzgaOAIzPzJ0UZ/swCQJI0kyLibsCLgScweH7fkp8CRwDvy8zLKwJYAEiSZkpE3Bp4C7A3EMVx1uZ84ADgA5l57TQHtgCQJM2EiLgZ8DpgX2Dd4jijOhV4bWZ+dloDWgBIkjotIjYE/hF4BbBxcZyl+gHwqsz81qQHsgCQJHXScL/+s4H9gS2L44zbl4BXZ+bJkxrAAkCS1DkRcSfgMwz27c+q64B/Af4xM68Z94dbAEiSOiUiHg18jPbe7J+U44DHZ+bvx/mh3gUgSeqMiHgtcDT9mfxhcFLhiRGx0zg/1A6AJKl5EXFD4MPAk6uzFLoMeGpmfmEcH2YHQJLUtIjYBvg2/Z78YdD1ODoiXj2OD7MDIElqVkTszKDlP2tv+S/Vx4FnZ+aVi/0ACwBJUpMi4vEMJrr1qrM06gRg98y8cDHfbAEgSWpORNyLwdvv61dnadzXGBQBI98y6DsAkqSmRMTNgWNw8l+IhwCHLuYbLQAkSc0Yvu1/DLBVdZYOeXFEPHvUb/IRgCSpCRERwCeBJ1Vn6aCrgYdk5rcX+g12ACRJrXgDTv6LtS7wuYi41UK/wQ6AJKlcRDwB+DQQ1Vk67n+B+2fm5Wv7jXYAJEmlIuLuwEdw8h+HuwBHDh+nrJEFgCSpzPBK36OADaqzzJDHAc9b22+yAJAkVXo2s32lb5X9I2KNFyZZAEiSSgwnqDdW55hRmwOvWNNvsACQJFV5GbBFdYgZ9rKImPcOBQsASdLURcQWwMurc8y4DYH95/uHFgCSpAr7M7jeVpP17IhY7TsWngMgSZqqiNgeOAVYXp2lJ/49Mx+/6t+0AyBJmraDcfKfpsdFxH1X/Zt2ACRJUxMROwPfq87RQ9/JzAfM/Rt2ACRJ07TWA2o0EbsMT1z8MwsASdJURMSGDE6pU41nzP0PPgKQJE1FRDwdOLI6xyJcCZw9/NoA2IbBQTtdW0RfANw8M68FX8KQJE3P06sDLNDFwJeBY4GvZeb5q/6GiFgH2BHYA3gUcG/aLwg2B3YHvgh2ACRJUxARmwPn0vYk+TvgTcD7MvOaUb4xIrYFDgT2pu1bDT+ZmXtD238QkqTZsRvtzjkrgLcCt8vMw0ed/AEy84zMfCpwL9re5fDQlVcFt/qHIUmaLbtWB5jHRcAjM3O/zLxkqR+WmT8EHgS8f8nJJuMmwF3BAkCSNB27VQdYjdOBe2fmV8b5oZl5TWY+F3gB0OJz9t3AAkCSNGERcWvg1tU5VnER8IjMPG1SA2Tmv7CGy3gKWQBIkqbiAWv/LVO1AthrkpP/HG8BPjuFcUbxgIhYZgEgSZq0HasDrOId4277zycHW+2eCZw1jfEWaEPglhYAkqRJa6kA+B2Dy4imJjMvB14/zTEXYAcLAEnSpK32PvoibxrH2/6LcCRwUsG489nRAkCSNDERcQPgdtU5hi4G3lcxcGZeB7yzYux52AGQJE3UNsC61SGGvryYQ37G6IvAtYXjz3U7CwBJ0iRtUh1gjmMrB8/MC4HjKjPMsZkFgCRpkjauDjDH16oDAF+tDjC0kQWAJGmSNqoOMHTl6m71K3BmdYAhCwBJ0kS1UgCcXR1g6JzqAEMbWwBIkibphtUBhlopAM6tDjC0oQWAJGmS/lgdYGiD6gBDrRRE11oASJIm6bzqAEPbVAcY2ro6wNBlFgCSpElqpQDYPCLWqQ4BbFUdYMgCQJI0URcA11WHYHD7bQt3Ety+OsDQpRYAkqSJycwVDC7gacEe1QGAR1cHGLIDIEmauFbefH9U5eARsRNw28oMc5xrASBJmrRW3gO4d0RsWzj+UwrHXtUvLAAkSZPWSgGwDDiwYuCI2BJ4ccXY87AAkCRNXCuPAAD2joh7FIx7ALBhwbjz+bkFgCRp0s6oDjBHAO+Z5pbAiNgZeNa0xlsgOwCSpIn7r+oAq7gvcPg0BoqIrYF/B24wjfEW6NeZeZEFgCRpojLzDOD/qnOs4jkR8fxJDhAR6wNH087hPyt9AwYvREiSNGlfqg6wGodHxOsjIsb9wcOV/7eAe4/7s8fg62ABIEmajhYLgADeBHw6Isb2gt7wmf//0ObkD3YAJElT9F3g4uoQ83gC8POIeGZELHpejIgtI+J9wHdor+2/0smZeT5YAEiSpiAzr6W9lwHn2gb4MPDjiHh6RGy20G+MiJ0i4iDgdOA5tPXC36o+v/IvIjMrg0iSeiIi9gGOqM6xQNcCxwFfBc4EzmFwnsENGVzpuxWDi30eTTvH+y7EDpl5KlgASJKmJCI2Z3Aq4NhfutOC/CAzd175H3wEIEmaisy8ADixOkePHTn3P1gASJKm6V3VAXrqSuCTc/+GBYAkaZo+BZxUHaKHDs/MP879G74DIEmaqojYE/hCdY4euQi4TWZeOPdv2gGQJE1VZh4LfL86R48cvOrkD3YAJEkFImJXhkfSaqLOArbLzCtX/Qd2ACRJU5eZ38ACYBresLrJH+wASJKKRMR98FHAJJ0C3Dkzr1vdP7QDIEkqkZk/wJcBJ+nV803+YAdAklQoInZicHPeetVZZsxxmfmgNf0GOwCSpDKZeTLw/OocM+Yq4KVr+00WAJKkUpn5b8B7q3PMkOdm5o/W9pt8BCBJKhcR6wDfBO5fnaXj3pmZr1jIb7QAkCQ1ISK2BH7I4Lpdje4/gD3X9OLfXBYAkqRmRMTOwLeAdauzdMzPgJ0z85KFfoPvAEiSmpGZ3wdeWJ2jY/7IYOW/4MkfLAAkSY3JzA8A76/O0RHXAk/MzF+O+o0WAJKkFv1TdYCOePHwWOWRWQBIklr0yuoAjbsWeH5mLnr7pC8BSpKaEhG3A34O3KA6S6P+yKDtv6iV/0rLxxRGkqRxeR1O/vP5GYMX/kZ+5r8qOwCSpGa4+l+j/wD2HvVt//n4DoAkqSWu/lfvnSxiq9+a2AGQJDXB1f9qXcXgbP+PjPuD7QBIklrh6v/6jgPuN4nJH+wASJIa4Or/ek4BXp2ZX5zkIHYAJEktcPUPZwH/D7jzpCd/sAMgSSrm6p+LgIOBwzLzymkN6jkAkqRqfV39XwkcDhyUmRdOe3A7AJKkMj1d/f8AOBL4ZGb+sSqEHQBJUqW+rP5PBj4PfDQzT60OA3YAJElFZnz1/2vgG8DXgW9k5vnFef6KHQBJUpVWV/+fAn4MbA1sNfx15V8DXDb8unT467nAL4ZfPwd+kZkXTTnzyOwASJKmruHV/2XArTPz99VBJs1zACRJFVpd/R/eh8kf7ABIkqbM1X8b7ABIkqbN1X8D7ABIkqbG1X877ABIkqbJ1X8j7ABIkqbC1X9b7ABIkqbF1X9D7ABIkibO1X977ABIkqbB1X9j7ABIkibK1X+b7ABIkibN1X+D7ABIkibG1X+77ABIkibJ1X+j7ABIkibC1X/b7ABIkibF1X/D7ABIksbO1X/7llcHkMYhIjYDtgO2H37dFtgU2GTO10bA1cAlw69Lh7+eDZwGnDr8+k1mrpjyfwVp1rj6b5wdAHVSRGwH7Db8eiCw+Rg//mrgf4GvA98AvpOZfxrj50szzdV/N1gAqBMiIoAHA08BHgbcYorDXwV8Dzga+ERm/m6KY0udExFHAPtU51iNt2bmftUhWmEBoKZFxI7AM4CnMd1Jfz7XAF8GjgSOzcyrivNITXH13x3uAlCTIuIeEfFV4GfAfrQx+QOsA+wJfAY4OyJeFhHrFWeSWuKz/46wA6CmRMRtgAOBJwNRHGehfgO8Hvh4Zl5XHUaq0vjqf9vM/EN1kJbYAVATIuJmEXEYgx8ee9GdyR/gVgweCfw4InavDiMVann17+S/CjsAKhURGwL/CLwC2Lg4zrh8E3hlZv5PdRBpWlz9d48dAJWIgecCpwNvYnYmfxjsVjghIj4VEbeuDiNNiav/jrEDoKmLiI2AjwGPrs4yBRcBT8rMr1YHkSbF1X832QHQVEXEtsDx9GPyh8FphP8ZES+uDiJNkKv/DrIDoKmJiAcAnwNuVp2lyAeAF2TmNdVBpHFx9d9ddgA0FRHxbAZH6/Z18gf4e+BrEXHT6iDSGLn67yg7AJqoiLgBcAjwkuosDTkD2DMzT64OIi2Fq/9uswOgiYmITYH/wMl/VdsC34uIR1UHkZbI1X+H2QHQRETE+sC3gXtWZ2nYdcBjM/ML1UGkUbn67z47AJqUf8PJf22WAR+LiJ2qg0iL4Oq/4+wAaOwiYj/goOocHfIr4N7+0FJXuPqfDXYANFbD59pvqc7RMbcBPhsRy6uDSAvk6n8G2AHQ2Axb2cczW8f6TtN7M/P51SGkNXH1PzvsAGgsIuImwBdw8l+K50XE86pDSGvh6n9G2AHQkg1b118F/qY4yiy4FnhYZn6zOoi0Klf/s8UOgMbhUJz8x2U58JmIuGV1EGk1XP3PEDsAWpKIuAvwIywmx+2ozHxqdQhpJVf/s8cf2lqqt+H/jyZh74i4W3UIaQ5X/zPGDoAWLSJ2A75WnWOGfS0zH1odQnL1P5tcuWlRIiKAt1fnmHEPiYiHVYeQcPU/k+wAaFEiYm/gqOocPfAT4O7pv6gq4up/dtkB0MgiYl3gwOocPXFXwJcBVcnV/4yyA6CRRcRLgHdX5+iR3wA7ZOZV1UHUL67+Z5sdAI0kIjZhsCLQ9NwKeEF1CPVSq6v/9zj5L50dAI0kIl6Ll/1U+ANwc7sAmhZX/7PPDoBG9czqAD11E2DP6hDqFVf/M84OgBYsIu4HfLc6R48dm5mPqg6h2efqvx+8f1yjeEZ1gBEk8H3gG8BZwLnAecBGwNbAVsBOwCOBGxdlHNXuEXGzzPxddRDNPFf/PWAHQAsSEesxmEQ3q86yFj9nsEPhmMw8b22/eXiT4QOApwH70OYPvblekpmHVYfQ7HL13x++A6CF+hvanvzPB/YF7pSZ71vI5A+Qmddm5jcz81nAnYBjJxlyDB5bHUAzz9V/T9gB0IJExNuBV1TnmMfRwD6Zeek4PiwiHgMcCWw8js8bs6uAzTLzT9VBNHtc/feLHQAt1G7VAVYjgQOAx49r8gfIzM8D9wV+Oa7PHKP1gF2qQ2hmufrvETsAWquIuDHwO9orGJ+Xmf86qQ+PiJsyeJHwtpMaY5Hempn7VYfQbHH13z+t/UBXm/6G9v6/8t5JTv4Amfl74NHA2LoLY9JiN0bd5+q/Z1r7oa423aM6wCq+A7xkGgNl5im0t/3xLhHR4g9qddRw9f+06hyrcRlwSHWIWWUBoIXYrjrAHNcBz8/Ma6Y14PCdgJZ2B6zL4H4AaVxc/feQBYAWYvvqAHMckZk/LRj3VcCKgnHn09KfiTrM1X9/WQBojSIiaKcDcA3whoqBM/NnwEcqxp6HBYDGxdV/T1kAaG22BjaoDjH0zcw8u3D8jxWOvapWijJ1mKv/frMA0NrcvDrAHJ8vHv/bwB+LM6zU0p+LusvVf49ZAGhtNqkOMMcxlYNn5rXAlyozzNHSn4s6yNW/LAC0Nq0ch3thZp5THQI4uTrAUCt/LuouV/89ZwGgtWllpXludYChVnK08ueiDnL1L7AA0Nq1MtG0sPqHdnK08ueibnL1LwsArdXy6gBDl1UHGGolxzrVAdRNrv61kgWA1ub86gBDW1YHGGolx4XVAdRZrv4FWABo7c6rDjC0VXWAoVZy+INSI3P1r7ksALQ2rXQAtmrkApxtqgMMWQBoMVz9688sALQ2rXQA1gXuXx0C2LU6wJA/LDUSV/9alQWA1uaPDM7gb8FjKwePiC2BnSszzNHKiYTqDlf/uh4LAK1RZibtPAZ4TPH4jwaiOMNKv6sOoO5w9a/VsQDQQrTyGGDbiHh8xcARsRz4h4qx53FKdQB1iqt//RULAC1EKwUAwMERUbEH/lnAjgXjzueH1QHUDa7+NR8LAC3EL6sDzLEdsO80B4yIjYEDpjnmWpxffC2yusXVv1bLAkAL8V/VAVbx1oi42zQGiogAPgJsMY3xFsjVvxak4dX/pbj6L2cBoIX4b+Cq6hBzbAB8PiI2n8JY+1O8+2A1LAC0UK2u/g939V/PAkBrlZlXAN+uzrGKWwLHTrIIiIh9gTdM6vOXwAJAa+XqX2tjAaCF+nJ1gNW4N3DiuB8HRMQ6EfEvwHtpZ9vfSlcD36oOoU5w9a81sgDQQrVYAMCgE/CdiHjROHYHRMSdgG8Az1tyssn4amZeVB1CbXP1r4WwANCCZOYpwFnVOeaxAXAYcMpizwmIiJtHxIeAnwC7jDPcmH26OoA6wdW/1ioGB71JaxcRHwCeXZ1jAc4APg8cDXw3M1es7jdFxNYMTvd7DPBgoOJ8gVFcDWyemRdXB1G7hqv/n9NeAXApcGsLgHZYAGjBhqvrz1bnGNHVwLnDr/OAjYCtGVzru1lhrsX4YmbuWR1CbYuII4B9qnOsxsGZ+ZrqEPoLCwAtWETcEPg1be2J75NnZOZHq0OoXa7+NQrfAdCCZeaf8AWeKr8DPlcdQs3z2b8WzA6ARhIRGwG/AW5cnaVnXpOZB1eHULtc/WtUdgA0ksy8DHh3dY6euRA4vDqEmufqXyOxA6CRRcSmDLoAm1Rn6YkDMvON1SHULlf/Wgw7ABrZ8CAaV6TTcSnwT9Uh1DxX/xqZHQAtSkTclMF++w2Lo8y6QzPzZdUh1C5X/1osOwBalMz8PfC+6hw98IThgUXSfFpd/b/Hyb9tdgC0aBFxE+AkBgfraHJOAh6QmZdUB1FbXP1rKewAaNGG/3I/HbiuOsuMuzNwdESsWx1EzXH1r0WzA6Ali4gDAY/4nLyjgKel/9IKV/9aOjsAGof9ge9Vh+iBpwBvqw6hZrj615LYAdBYRMS2DK7SvVFtkl54SWYeVh1CdVz9axzsAGgsMvMM4DnVOXriXRHxhOoQKuXqX0tmB0BjFREfBJ5VnaMHrgIempnfrg6i6XL1r3GxA6BxezWwojpED6wHHBMRd6gOoqlz9a+xsADQuD2fNn84zaLNgP/0oKD+GK7+n1adYzUuBQ6tDqHRWABobCLi5sCrqnP0zC0ZFAFezNQPrv41Nr4DoLGJiCMZHAyk6fsG8LeZeXV1EE2Gz/41bnYANBYRcW/abE32xa7AERER1UE0Ma7+NVZ2ADQWEXE8cN/qHOKdmfmK6hAar8ZX/9tm5h+rg2h0dgC0ZBGxN07+rXh5RLy4OoTGruXVv5N/R9kB0JJExA2BXwC3qM6iP7sOeHJmfrY6iJbO1b8mxQ6AlurlOPm3ZhnwsYh4QHUQjYWrf02EHQAt2nDb3y+ADauzaLUuBHbJzP+rDqLFcfWvSbIDoKU4CCf/lm0GfHlYqKmbXP1rYuwAaFEi4l7ADwC3nbXvJOCBmXlxdRAtnKt/TZodAC3Wu3Hy74o7A/8eEetWB9FIXP1rouwAaGQRsRfwieocGtkngKem/9I3z9W/psEOgEYy3Pb3tuocDfgxcGV1iBHtDby9OoQWxNW/Js4CQKN6GYMLaProJ8BrgO0y8+7AUxnsue+Sl0fES6pDaH6N3/h3SHUIjY+PALRgw2tnT6Vfb/7/FPg08OnMPHXVfxgRLwTeM/VUS+NBQQ2LiCOAfapzrMZBmfna6hAaHwsALVjDP5gAjgPOBG41/Nqa0VqolwAnM5jw//yVmReu7Rsj4q107xrkq4CHZeZx1UH0Fz771zRZAGhBIuKewAm0+eb/pQza8uev/BsRsRzYBtiWwSOLdRhMelcBV6/y12dn5hmLHXx4A9+RtNm2XZOLgPt7UFA7Gi6yXf3PIAsALUhEfAe4f3WOeeyXmW+tDBAR6wD/ATykMscinAncNzPPrg7Sd67+NW2+BKi1iogn0+7k/2vgXdUhMvMa4HEMXhTsklsA/xkRN6oOIt/813TZAdAaRcT6DFYlt6rOMo8ntvQyW0RsBXyPdv/3ms83gd0z8+rqIH3k6l8V7ABobV5Gu5PZcS1N/gCZeS6wO9C1H5gPBo4Yvs+g6XP1r6mzA6B5DVezpwIbVWdZjeuAe2bmj6uDrE5E3B/4GrB+dZYRHZKZL68O0Seu/lXFDoDW5CDanPwBjmh18gfIzO8CT6F7BwW9zIOCps7Vv0rYAdBqRcQ9gBNpc9vfZQy2/Z1XHWRtIuIFwOHVOUZ0HbBXZn6mOsisc/WvSnYANJ+Wb/s7qAuTP0Bm/jNQukVxEZYBH42IB1YH6QFX/ypjB0B/JSKeBHyqOsc8zgB2zMyrqoMs1PDFuo8AT6/OMqKLgF0y85TqILPI1b+q2QHQ9Qy3/bV8Y9wruzT5Awyv330W8NXqLCPalMEZATevDjKjXP2rlB0AXU9EvAY4sDrHPL6dmZ1tS0fExsC3gLtVZxnRT4EHZObF1UFmhat/tcAOgP5suO1vv+oc87gO+IfqEEuRmZcCj2DwGKNL7gQcHRHrVgeZIa7+Vc4CQHMdSLvb/j6SmT+qDrFUw5cXu3pQ0Ec8KGjphqv/Fi+OuhQ4pDqEpscCQABExN2BZ1bnmMdlwMzcRJaZvwD2BP5UnWVEewHvqA4xA1z9qwkWAFqp5W1/Bw+P2J0ZmXk83T0oqNOPYiq5+ldLLABERDwReEB1jnmcARxaHWISMvPzwAurcyzCocP/z2h0rv7VDHcB9Nxw29/PgG2Lo8znyZn56eoQkxQRB9Huy5fzuQp4WGYeVx2kK3zzX62xA6CX0u7k/51Zn/wBMvM1wJHVOUa0HnBMRNyxOkiHuPpXU+wA9FhEbAmcRptv/idwr8z8YXWQaYiIdYAvAg+rzjKiM4H7ZubZ1UFa5upfLbID0G+tb/vrxeQPkJnXAE8Amr3hcB63YHBa4I2qgzTO1b+aYwegp4bb/k6kzSLwMmD7WXvzfyGGXZnv0e5jmfl8E9g9M6+uDtIaV/9qVYs//DUd76LdP/+39nHyh+sdFPSH6iwj8qCg+bW6+j/Myb/f7AD0UEQ8AWj1rvffMLjt78rqIJUi4r7A14EbVmcZ0SGZ+fLqEK1w9a+WtboC1IRExHq0fdvfq/o++QNk5veAvYEV1VlG5EFB1+fqX82yA9AzEfFq4ODqHPP4bmbuUh2iJRGxL/De6hwjSgbnN7TaZZoKV/9qnR2AHomILYDXVOeYR9Lx2/4mITP/lXavZ55PAB+NiAdVBynm6l9NswPQIxHxQeBZ1Tnm8ZHMfGZ1iFZFxBHAPtU5RnQRsEtmnlIdZNpc/asL7AD0RETcDfi76hzzuJx2OxOteDbwleoQI9qUwRkBN68OUsDVv5pnAdAfrW/7O6c6RMsy81oGBwX9qDrLiHp3UFDjN/7N5MVaWpxWJwSNUUQ8Hmj1eexv8RrSBcnMy4BHAL+uzjKiOwGfj4h1q4NMiat/dYLvAMy44ba//wNuU51lHntn5ierQ3RJRGwPHA/cpDrLiD4JPCVn+IeOz/7VJXYAZt8/0O7kf7yT/+gy81RgD+BP1VlGtBfwzuoQE+bqX51hB2CGDbf9nQZsXJ1lNRK4T2aeWB2kqyLiUcC/0+aEsyYvzcx3V4cYN1f/6ho7ALPtLbQ5+QN81Ml/aTLzC8ALqnMswqER8aTqEBPg6l+dYgdgRkXEXYEf0maRdzmD2/58838MIuLNDCafLrkKeHhmfqs6yDi4+lcXtTg5aDxa3vb3Nif/8cnM1wNHVOcY0XoMdgbcsTrImLj6V+fYAZhBEfE44HPVOebxWwa3/XXtBbamRcRy4FgGVwl3yVnAfTPzrOogi+XqX13V6gpRizTc9veO6hxr8Gon//EbHhT0RAaPfbpkG7p/UJCrf3WSHYAZExGvBN5WnWMe38vM+1WHmGXDnR/H0+7Wz/n8N4N3Aq6uDjIKV//qMjsAMyQiNgdeW51jHt72NwWZeT6DxwC/r84yor8BjoyIqA4yIlf/6iwLgNnyFmCT6hDz+FhmnlAdog8y8zQGBwVdUZ1lRE+mQwcFeea/us4CYEZExF1o96rfK4D9qkP0SWb+gMHJeyuqs4zoHyPipdUhFsjVvzrNAmB2tL7t7+zqEH2TmccCz6/OsQiHtH5QkKt/zYJWJwyNICIeCzy4Osc8zqTtXQkzLTPfD7y5OseIgsH7AK3eYAmu/jUD3AXQccMrVv8PuG11lnk8NTOPqg7RdxHxb8DfVecY0UXAAzLz5Oogc/nmv2aFHYDuewntTv7fBz5RHUIAPAf4z+oQI9qUwRkB21QHWYWrf80EOwAdNtz2dxptvvmfDE54+0F1EA1ExIYM9tvfszjKqE4GdsnMi6uDuPrXLLED0G1vps3JH+DjTv5tyczLgUcCv6rOMqKdGNwbsF51EFz9a4bYAeioiLgz8GPaLOKuAHbo8vnusywitmNwWuBNq7OM6FPA3ln0Q8vVv2ZNi5OHFqblbX9vd/JvV8cPCjqkcHxX/5opdgA6KCIeAxxdnWMeZzFY/XdtcumdiNgD+DxtTmpr8o+Z+a5xfdjwIqKth18bAecCZwPnZeaK4e9x9a+ZIKbgGQAAGPVJREFUs7w6gEYz3PbX8r76Vzv5d0NmfjEinge8vzrLiA6JiHMy81ML+c0RcRMG52Tcir9M9HO/NpjnW1dExPkMioGNaW/yB1f/WgI7AB0TES+n3QLg+8D9qp7RanEi4gDgDdU5RnQVg9sDv7W6fxgROwJ7Dr/uR5uT91K5+teSWAB0SETcjMG2vxbvTk8Gk//3q4NodBHxIeD/VecY0Z8PCoqI5cAuDCb8RwG3K002HQdm5uuqQ6i7LAA6JCL+FXhudY55fDwzWzwbXQswnECPAR5RnWVEZwHfBv6WwcFBfeHqX0tmAdAREXEnBtv+Wmxluu1vBgwPCvomcK/qLForV/9asla3kemvvYs2J3+Adzj5d9/woKA9gF9WZ9EaeeOfxsICoAMi4tHAbtU55nEW8PbqEBqPzLwA2B34XXUWzcs3/zUWPgJo3HDb3ym0+1LT0zPzY9UhNF4RcW8GjwPm2yKnGj7719jYAWjfi2h38v8B8PHqEBq/zDwBeBKwojqLrsfVv8bGDkDD3PanahHxbOAD1TkEwCXArS0ANC52ANr2Jtqc/AE+4eQ/+zLzg8AB1TkEwHuc/DVOdgAa1fi2vz8x2PZ3ZnUQTUdEfBB4VnWOHnP1r7GzA9CuQ2lz8ofBtj8n/37ZF/hSdYgec/WvsbMD0KCIeBSDU9ladDawvRf+9I8HBZVx9a+JsAPQmIhYB3hndY412M/Jv5+GBwU9Eji9OkvPuPrXRFgAtOdFwHbVIeZxAuCe/x7LzN/hQUHT9l/VATSbfATQkIi4KYNtf61eanK/zPxedQjVi4h7MXgcsGF1lh74JXDPzLyoOohmix2AtryJdif/Tzj5a6XMPJHBQUHXVmfpgdsCH48If15rrOwANCIidgJ+Qptv/v8J2DEzf1sdRG2JiGcBH6zO0RNvzsw3VIfQ7LCibEfL2/7e6eSv1cnMDwFvrM7RE68b7hCSxsIOQAMiYk/gC9U55nEOg21/l1cHUbsi4gPAs6tz9MAlwL0y89TqIOo+OwDFOrLtz8lfa7Mv8MXqED2wCXB0RGxUHUTdZwFQ74XA9tUh5nEi8NHqEGpfZq4Ansxgq6gm6w7Ah6tDqPt8BFCoA9v+7p+Zx1eHUHcMb7A8nnavsJ4lf5eZR1SHUHfZAah1AO1O/p908teo5hwUdEF1lh54Y0SsWx1C3WUHoEhE3BH4X9p8899tf1qSiLgn8N94UNCkvSgzD68OoW6yA1Cn5W1/hzj5ayky83/w2OhpeG1EbFAdQt1kAVAgIvYAHladYx7nAG+tDqFui4hNgb2rc/TAlgzuD5FGZgEwZR3Y9vcat/1pDF7EYMuaJu+VEXGj6hDqHguA6XsBsEN1iHn8D3BkdQh1W0RsCLykOkeP3Bh4WXUIdY8vAU5RRNyEwba/zaqzzGOXzPxudQh1W0S8jLa7XLPoMuA2w10Y0oLYAZiuA2h38v+Uk7+WKiLWx9VohY2AV1eHULfYAZiSiLgDg21/y6uzrMaVDLb9/aY6iLotIp4CfLw6R0/9Adg8M6+rDqJusAMwPYfS5uQPg21/Tv4ahydWB1ika4GzgJ8DFxVnWaybADtXh1B3WABMQUQ8Anh4dY55nIvb/jQGEbExg1MAu+B04F3ArsAWwLqZeYvMvH1mbgZsAGwH/D1wLIPDsbpgj+oA6g4fAUxYRCwHTqbdN/89T1xj0ZH2/zeAV2fmiaN80/CwnecBr6Xd93gATsrMu1SHUDfYAZi8lrf9/RD4SHUIzYyW2/+nAo/MzN1GnfwBMvOKzDwEuC2Dx3mtPme/c0TcojqEusEOwARFxI0ZtBpbXTE8IDO/Ux1C3Tds/18ArF+dZTW+DOyVmReP6wOHp3keBWw8rs8co+dl5r9Wh1D77ABMVsvb/j7t5K8x2pU2J/93A3uMc/IHyMwvAvcFzhjn547JI6sDqBssACYkIm4P7FudYx5XAq+qDqGZco/qAKvx4cx8aWaumMSHZ+YpDF56bG3XwG4RccPqEGqfBcDktLzt79DMPKM6hGZKawXAd5lCAZ6ZvwD2AiZSZCzSDYEHV4dQ+ywAJiAi/pZ2t0OdCxxcHUIzp6UC4BLg8Zl59TQGy8yvAAdOY6wR/E11ALXPAmDMhtv+Dq3OsQavzczLqkNodkTEzRnspW/FWzPz/CmP+TYGxXUrtq4OoPZZAIzf84Edq0PM40e47U/j19Lq/ywGL/5NVWZeAbxh2uOuwVbVAdQ+C4AxGm772786xxr8g+eEawLuXB1gjndnZtWpfR8Gzisae1VbVgdQ+ywAxuuNDO7mbtFnMvPb1SE0kzavDjDH0VUDD3cbHFs1/iosALRWFgBjMtz297zqHPO4CnhldQjNrFbOuvhpZv6qOMPni8df6cYRsW51CLXNAmB8DsFtf+qnVgqAr1QHAL7O4GbBFtgF0BpZAIxBROwO/G11jnmcBxxUHUIzrZXHXuVXWmfmVcC0dyDMxwJAa2QBsERu+5Oa6QC0sg2vlRwWAFojC4Clex5w++oQ8/gxcER1CM28VjoA51QHGGolh1sBtUYWAEsQEZsxePO/VW770zS0cqXoetUBhlp5+W6j6gBqmwXA0ryRdlY/q/pcZh5XHUK90MojplZWvK2cwndJdQC1zQJgkSJiRwan/rXoKuAV1SHUG5dWBxhqZeJtJUcrfy5qlAXA4rW87e9dmfnr6hDqjVY6ANtXBxieBnqT6hxDdgC0RhYAixARDwceUZ1jHufjtj9NVysFwB4REcUZ9gSqM6xkAaA1sgAYUUe2/dn60zS1su99a+DexRkeUzz+XH+sDqC2WQCMbl/gDtUh5vFjBheSSNN0anWAOfaqGni4K+hhVeOv4jrgl9Uh1DYLgBF0YNvfS932pwKnVQeYY9+IuEXR2K8FNigae1VnDE8llOZlATCa/WnnBZ9V/Xtmfqs6hHqppQ7A+sCbpz1oRGwLvHDa467BL6oDqH0WAAsUETvgtj9pdU6jncOAAJ4eEfef8pjvpp2DiMACQAtgAbBwhwDrVIeYx7sbuAZVPZWZV9DW8+ZlwGcjYptpDBYRrwMePY2xRnBKdQC1zwJgASLiYcAjq3PM43zgwOoQ6r1vVgdYxZbA0RFxw0kOEhGPAt40yTEWyceBWisLgLWIiBsA76rOsQavc9ufGtBaAQBwT+DrEbHFJD48Ip4OfJp29v2vdGZmtvRiphplAbB2LW/7+wnwb9UhJNosAADuC5wYEXcb1wdGxLKIeBtwJG0991/p69UB1A0WAGsQEZsCB1TnWAO3/akJmXke8LPqHPO4BfC9iHjn8KjeRYuI3YAfAK8cS7LJsADQglgArFnL2/6Ozsz/rg4hzXFsdYA1WA94GfCriHh9RNx6od8YEetGxMMj4ivA1xg8WmjVCuCr1SHUDZHZ0u6ddkTE9sDJtPnm/9XA7X3zXy2JiJ2An1bnGMFJwDEM/j0/FziHwb0GWzK4WngbYFcG937cqCjjqL6cmX9bHULd0Optdi1w2580gsw8OSJ+Aty1OssC3Xn4NUuOqA6g7vARwGpExEOBPapzzOMC3Pandn20OkCPXcSgoyEtiAXAKjqy7c9rPtWqo4Brq0P01Kcy88rqEOoOC4C/9lzgjtUh5vG/wIeqQ0jzGe4GcGvq9K0ADqsOoW7xJcA5htv+TgNuWp1lHrtmZqv7rSUAImIr4HTauRmvDz6YmX9fHULdYgfg+t5Au5P/55381QWZeS7wT9U5euQKBj+7pJHYARjqwLa/O2RmSxeuSPOKiBsxuCCo1XM0ZslbMvP11SHUPXYA/uKdtDn5A/yTk7+6JDMvBg6qztEDFwBvrw6hbrIDAETEQ2j39KwLgO18819dExHrAacCt6zOMsNemJn/XB1C3dT7DkAHtv293slfXZSZV+Gz6Uk6DXhfdQh1V+8LAOA5wE7VIeZxEvDB6hDSEnyUwbs1Gr/9MtMzF7RovX4EMHxR6XTaffN/t8z8RnUIaSmGJ2t+BYjqLDPk+My8f3UIdVvfOwAtb/s7xslfsyAzvwr4lvr4XADsXR1C3dfbDkBEbAecQptv/l8N3DEzT68OIo1LRHwSeHJ1jo67msGBYN+tDqLu63MHoOVtf4c5+WsG/R3ww+oQHfdcJ3+NSy87ABGxG/C16hzz+B2DbX8XVweRxi0itgFOBLasztJBh2bmy6pDaHb0rgPQkW1/Tv6aSZl5FvBY4KrqLB3zn8ArqkNotnSiAzC8pGcHYMfhrzsAWwEbARsPf91o+NvPmfN19ir/+Rxgd9o9p/ynwN0yc0V1EGmSIuIZwEeqc3TEz4GdXRho3JosACJiC2BXYLfhr7euTTQ1D8nMr1eHkKYhIt4BvLw6R+P+CNzHd4I0CcurA6w0vIzn6cBjaPdgnkn6gpO/euZVwLrAi6uDNOoPwGOc/DUppR2AiLgxsBfwDOA+ZUHqXQ3slJmnVQeRpi0ingMcTru7ciqcAjwqM39VHUSzq6QDEBGbAa8BXgisX5GhMe9x8ldfZeb7I+I04LPAjavzNOAY4OmZeWl1EM22qXYAImJ9Bu2+/YBNpzZw234P3M4XfNR3EXE74FgGL/v21YEMdgK193KWZs5UtgFGxLKI+DsGt1e9DSf/udz2JwHDZ907A/9VnaXAFcCTM/N1Tv6alol3ACJiD+CtwB0nOlA3nQzc1W1/0l/MOavjRdVZpuRM4NGZ+ePqIOqXiXUAIuLuEfEtBi09J//Ve6mTv3R9mbkiM18M7AOcV51nwr4E3NPJXxUmUgBExD7A8cADJ/H5M+LYzGz1OGKpXGYeCdwO2B+YtRfiTgAenJl7ZOYF1WHUT2N9BBARyxg84/dwjzW7hsFtf775Ly1ARGzO4Pru59Dt7YKnAq/JzM9VB5HG1gGIiE0YtPud/NfObX/SCDLzgsx8IXAH4DPVeRbhXOC5DAp/J381YSwdgIi4LYPJ//ZL/rDZ93sGt/1dVB1E6qqIuDfwduBB1VnW4mIGOd+dmVdUh5HmWnIBEBG7MqjIPcBjYZ6fme+tDiHNgojYBXgm8ERgk9o013MS8FHgw5n5h+ow0uosqQCIiOcBh9HQnQKNc9ufNAERcUMG1wzvw+ACsYqfSecCRwFHZuZJBeNLI1l0ATCc/P9lvHFm3sMy86vVIaRZFhEbMdiBtNvw685ATGCoi4DjgG8Ov07yEB91yaIKgGHb/yu48h/FFzNzz+oQUt9ExE2BuwA7MDhmeIfh15bAegv4iIuB0xm8wX/a8Nf/A/43M6+bRGZpGkYuAIYv/J2Az/xHcQ2D2/5OrQ4i6S8iYl0G7w5sPPx1OXAZg3MHLgMuc5LXrBppBT9nq5+T/2gCuEl1CEnXl5lXM9iZ8/vqLNK0LfgcgOEhP5/ArX6LsRw4KiJuVB1EkiQY7SCgtwGPmFSQHtgWeH91CEmSYIHvAAzP9j9i4mn64dmZ+aHqEJKkfltrARARd2dwsc9C3pbV2l0B3CMzf14dRJLUXwt5BPAunPzHaQPgkxHh/6aSpDJrLAAiYg+80ncS7gK8ozqEJKm/5n0EMHzr/yTgjlNN1C8Pzsz/rg4hSeqfNXUA9sHJf9L2rw4gSeqn1XYAImJ9BkdebjP1RP2zS2Z+tzqEJKlf5usAvBgn/2l5XXUASVL//FUHICI2A34FbFqSqJ/ulZn/Ux1CktQfq+sAvAYn/2l7bXUASVK/XK8DEBE3Bs4G1i9L1E8J3CUzf1odRJLUD6t2APbCyb9CMOi8SJI0Fat2AL4P3KcuTq9dB9wmM39THUSSNPuWr/yLiNiebk3+vwSOAX4GnAucA/wJ2ArYGrgF8FAGJxkun+czWrIMeCTwL9VBJEmz788dgIh4M+1vSbscOAw4KjNPXsg3DHc17AG8HLjzBLONwxcy89HVISRJs29uAfBTYKfaOPNaAXwI2D8zz1vMBwyPNn4G8GbaPePgMuAmmXl1dRBJ0myLzCQitgAWNbFOwbnA4zLz++P4sIjYEDgCeMI4Pm8Cds3Mb1aHkCTNtpW7AHYtTTG/E4B7jmvyB8jMy4EnAW9gsP2uNbtXB5Akzb6VBcBupSlW7wTgQZl5zrg/OAfeDLxw3J89BhYAkqSJW/kI4FfAravDzHEug5X/2Cf/VUXE+4DnTHqcEW2dmedWh5Akza5lEbEpbU3+Kxg885/45D/0QuB7UxproR5eHUCSNNuWATtUh1jFh8b5zH9tMvMa4EW09T5Al85jkCR10DJgx+oQc1wO7D/tQTPzh8Anpj3uGmxVHUCSNNta6wActth9/mPwWgbH8bZgy+oAkqTZ1loBcFTVwJl5BoOdBy3YojqAJGm2LaOddvMvF3q87wR9oXj8lewASJImahmwUXWIoWOqAwBfrA4wtH5E3Kg6hCRpdi0DNq4OMfSz6gDAz/E9AElSD7TUASg/+Ga4JfCC6hxDFgCSpIlpqQCY1sE/a3NWdYAhCwBJ0sQsA5ZXhxj6U3WAoSuqAwy1UphJkmbQMgZ30Legld0IN68OMHRJdQBJ0uxqqQDYujrAUCsFwKXVASRJs6ulAuAW1QEiYgtg/eocQ3YAJEkT01IB8NDqAMBDqgPMYQEgSZqYZcCF1SGGHhgRmxVn2LN4/Lla+XORJM2gZcDp1SGGlgN7VA0eEesAu1eNv4o/0c62SEnSDFoG/KI6xBwvj4hlRWM/F2jl+N3TMzOrQ0iSZtcyBsfftuLOwDOmPWhEbAK8YdrjrsGp1QEkSbOttQ4AwJsjYsMpj7kfcLMpj7kmFgCSpIlaBvwWuLw6yBzbAEdERExjsIh4OPCKaYw1ghYuRpIkzbBlmXkd8O3qIKt4AvC6SQ8SEdsBnwRuMOmxRnRcdQBJ0mxb+cLd10tTrN4BEfH8SX34cPL/D2DTSY2xSL/MzN9Uh5AkzbaWC4AA/jki3jfcoje+Dx60/U8AbjfOzx2TFv8sJEkzZmUB8BPgD5VB1uA5wLci4h5L/aCI2CQiDga+RHsr/5UsACRJE7cMYLjn/KvFWdbkvsCJEfHxiNh21G+OiHUi4oUMDj16Ne0981/pWiwAJElTECvPm4mIPYBja+MsyHUM2vdfAL4I/Dwzr1n1Nw0v9nkIg+N9d6edQ37W5EuZWXYaoiSpP+YWAMuBs4HNSxON7jrgAuAs4AoG1/nenHZu9RvFkzPz09UhJEmzL+aeOBsR7wZeUhen1y4GtszMK6uDSJJm36rn7h9ZkkIAn3bylyRNy/UKgMz8EfCdoix9dh3wnuoQkqT+WN3Ne6+cegp9NDN/Wh1CktQfsbpbZyPic8Djph+nl64Ets/MM6uDSJL6Y3UdAIDXMNiTrsl7j5O/JGnaVlsAZOYvgA9OOUsfXQgcXB1CktQ/83UAAA6grWuCZ9FBmXlhdQhJUv/MWwBk5nnAIVPM0je/xTf/JUlFVvsS4J//YcRGwC/p3umAXbBPZnrugiSpxJoeAZCZlzF4FKDx+gnwseoQkqT+WmMHACAiAvgsbgscl4uAnYcvWkqSVGKtBQBARGwIfBe4y8QTzbYVwCMz8yvVQSRJ/bbGRwArZeblwKOB3002zsx7hZO/JKkFCyoAADLzN8DjgasnF2emfTgz31UdQpIkGKEAAMjMbwMvmFCWWXY8sG91CEmSVhqpAADIzA8Ch00gy6w6E3hcZto5kSQ1Y0EvAf7VN0XcAPgy8JCxJ5otVwC7ZOaPq4NIkjTXyB0AgMxcATwJOGG8cWbKFcBeTv6SpBYtqgAAGJ5h/yDg4+OLMzPOZLDyP7Y6iCRJq7PoAgAgM6/MzKcB+wHXjSdS5x0P3MuVvySpZYt6B2C1HxTxKAbdgI3G8oHd9GFgX1/4kyS1bmwFAEBE7AQcC2w7tg/thhUMDvlxn78kqRPGWgAARMRNgc8BDxzrB7frIgYv+3nCnySpM5b0DsDqZObvGWwPPJzZfy/gJwwu9nHylyR1ytgLAIDMvCYzX8Tg8qAvTWKMYr8F9gHu4a1+kqQuGvsjgNUOEvEg4G3AfSY+2GRdCBwEvCczr6oOI0nSYk2lAPjzYBFPAA4Etp/aoONxJfAe4ODh+QeSJHXaVAsAgIhYDvw9sD+wxVQHH911wEeB12fmmdVhJEkal6kXAH8eOGJD4LnAM4E7lYSY38XApxm0+n9aHUaSpHErKwCuFyLirsAzgKdQ1xW4FvgKcCTwhcy8siiHJEkT10QBsNLwlsGdgd2GXzsD605wyF8CX1/5lZl/mOBYkiQ1o6kCYFURsQGwC3A3Bi8Objf8ddQuwZ+A04FTh18/A47LzN+ML60kSd3RdAEwn4jYBNgK2ATYePjrJsA6wKXAJXO+LgTOyS7+F5UkaUI6WQBIkqSlmchJgJIkqW0WAJIk9ZAFgCRJPWQBIElSD1kASJLUQxYAkiT1kAWAJEk9ZAEgSVIPWQBIktRDFgCSJPWQBYAkST1kASBJUg9ZAEiS1EMWAJIk9ZAFgCRJPWQBIElSD1kASJLUQxYAkiT1kAWAJEk9ZAEgSVIPWQBIktRDFgCSJPWQBYAkST1kASBJUg/9fyBloY9S2CQwAAAAAElFTkSuQmCC;" parent="1" vertex="1">
          <mxGeometry x="603" y="332" width="50" height="50" as="geometry" />
        </mxCell>
      </root>
    </mxGraphModel>
  </diagram>
</mxfile>
